Palanquin SemiBold.ufo
<glyph name="exclam" format="1">
  <advance width="244"/>
  <unicode hex="0021"/>
  <outline>
    <contour>
      <point x="181" y="702" type="line"/>
      <point x="61" y="702" type="line"/>
      <point x="78" y="237" type="line"/>
      <point x="107" y="223"/>
      <point x="136" y="209"/>
      <point x="166" y="196" type="curve"/>
    </contour>
    <contour>
      <point x="188" y="104"/>
      <point x="159" y="133"/>
      <point x="121" y="133" type="curve" smooth="yes"/>
      <point x="85" y="133"/>
      <point x="54" y="104"/>
      <point x="54" y="66" type="curve" smooth="yes"/>
      <point x="54" y="28"/>
      <point x="85" y="0"/>
      <point x="121" y="0" type="curve" smooth="yes"/>
      <point x="159" y="0"/>
      <point x="188" y="28"/>
      <point x="188" y="66" type="curve" smooth="yes"/>
    </contour>
  </outline>
</glyph>
<glyph name="quotesingle" format="1">
  <advance width="162"/>
  <unicode hex="0027"/>
  <outline>
    <contour>
      <point x="153" y="700"/>
      <point x="122" y="732"/>
      <point x="85" y="732" type="curve"/>
      <point x="47" y="732"/>
      <point x="18" y="697"/>
      <point x="18" y="664" type="curve"/>
      <point x="18" y="631"/>
      <point x="47" y="600"/>
      <point x="70" y="599" type="curve"/>
      <point x="63" y="558"/>
      <point x="39" y="537"/>
      <point x="6" y="510" type="curve"/>
      <point x="31" y="457" type="line"/>
      <point x="102" y="495"/>
      <point x="153" y="580"/>
      <point x="153" y="651" type="curve"/>
    </contour>
  </outline>
</glyph>
<glyph name="parenleft" format="1">
  <advance width="274"/>
  <unicode hex="0028"/>
  <outline>
    <contour>
      <point x="44" y="194"/>
      <point x="89" y="66"/>
      <point x="169" y="-39" type="curve"/>
      <point x="257" y="-6" type="line"/>
      <point x="200" y="62"/>
      <point x="150" y="220"/>
      <point x="150" y="322" type="curve"/>
      <point x="150" y="421"/>
      <point x="200" y="573"/>
      <point x="258" y="648" type="curve"/>
      <point x="169" y="680" type="line"/>
      <point x="87" y="566"/>
      <point x="44" y="445"/>
      <point x="44" y="321" type="curve"/>
    </contour>
  </outline>
</glyph>
<glyph name="parenright" format="1">
  <advance width="274"/>
  <unicode hex="0029"/>
  <outline>
    <contour>
      <point x="230" y="447"/>
      <point x="184" y="575"/>
      <point x="105" y="680" type="curve"/>
      <point x="17" y="646" type="line"/>
      <point x="74" y="580"/>
      <point x="122" y="421"/>
      <point x="122" y="320" type="curve"/>
      <point x="122" y="221"/>
      <point x="74" y="68"/>
      <point x="16" y="-6" type="curve"/>
      <point x="104" y="-39" type="line"/>
      <point x="185" y="75"/>
      <point x="230" y="197"/>
      <point x="230" y="321" type="curve"/>
    </contour>
  </outline>
</glyph>
<glyph name="asterisk" format="1">
  <advance width="367"/>
  <unicode hex="002A"/>
  <outline>
    <contour>
      <point x="229" y="666" type="line"/>
      <point x="228" y="769" type="line"/>
      <point x="139" y="769" type="line"/>
      <point x="139" y="742"/>
      <point x="138" y="690"/>
      <point x="138" y="666" type="curve"/>
      <point x="31" y="689" type="line"/>
      <point x="6" y="611" type="line"/>
      <point x="32" y="606"/>
      <point x="88" y="596"/>
      <point x="112" y="589" type="curve"/>
      <point x="39" y="485" type="line"/>
      <point x="107" y="433" type="line"/>
      <point x="184" y="537" type="line"/>
      <point x="261" y="433" type="line"/>
      <point x="328" y="485" type="line"/>
      <point x="255" y="590" type="line"/>
      <point x="362" y="611" type="line"/>
      <point x="336" y="689" type="line"/>
    </contour>
  </outline>
</glyph>
<glyph name="plus" format="1">
  <advance width="511"/>
  <unicode hex="002B"/>
  <outline>
    <contour>
      <point x="494" y="231" type="line"/>
      <point x="484" y="317" type="line"/>
      <point x="312" y="317" type="line"/>
      <point x="312" y="531" type="line"/>
      <point x="206" y="534" type="line"/>
      <point x="206" y="317" type="line"/>
      <point x="17" y="317" type="line"/>
      <point x="25" y="231" type="line"/>
      <point x="206" y="231" type="line"/>
      <point x="206" y="8" type="line"/>
      <point x="312" y="4" type="line"/>
      <point x="312" y="231" type="line"/>
    </contour>
  </outline>
</glyph>
<glyph name="comma" format="1">
  <advance width="175"/>
  <unicode hex="002C"/>
  <outline>
    <contour>
      <point x="160" y="100"/>
      <point x="129" y="133"/>
      <point x="91" y="133" type="curve"/>
      <point x="54" y="133"/>
      <point x="25" y="99"/>
      <point x="25" y="66" type="curve"/>
      <point x="25" y="33"/>
      <point x="53" y="1"/>
      <point x="77" y="0" type="curve"/>
      <point x="69" y="-41"/>
      <point x="46" y="-62"/>
      <point x="11" y="-89" type="curve"/>
      <point x="38" y="-143" type="line"/>
      <point x="108" y="-104"/>
      <point x="160" y="-19"/>
      <point x="160" y="52" type="curve"/>
    </contour>
  </outline>
</glyph>
<glyph name="period" format="1">
  <advance width="157"/>
  <unicode hex="002E"/>
  <outline>
    <contour>
      <point x="145" y="105"/>
      <point x="116" y="133"/>
      <point x="79" y="133" type="curve"/>
      <point x="41" y="133"/>
      <point x="11" y="105"/>
      <point x="11" y="67" type="curve"/>
      <point x="11" y="28"/>
      <point x="41" y="0"/>
      <point x="79" y="0" type="curve"/>
      <point x="116" y="0"/>
      <point x="145" y="28"/>
      <point x="145" y="67" type="curve"/>
    </contour>
  </outline>
</glyph>
<glyph name="slash" format="1">
  <advance width="428"/>
  <unicode hex="002F"/>
  <outline>
    <contour>
      <point x="423" y="706" type="line"/>
      <point x="306" y="710" type="line"/>
      <point x="6" y="0" type="line"/>
      <point x="121" y="-4" type="line"/>
    </contour>
  </outline>
</glyph>
<glyph name="three" format="1">
  <advance width="530"/>
  <unicode hex="0033"/>
  <outline>
    <contour>
      <point x="456" y="500"/>
      <point x="388" y="579"/>
      <point x="249" y="579" type="curve"/>
      <point x="169" y="579"/>
      <point x="102" y="552"/>
      <point x="40" y="512" type="curve"/>
      <point x="94" y="436" type="line"/>
      <point x="129" y="460"/>
      <point x="182" y="487"/>
      <point x="246" y="487" type="curve"/>
      <point x="310" y="487"/>
      <point x="350" y="450"/>
      <point x="350" y="406" type="curve"/>
      <point x="350" y="349"/>
      <point x="296" y="313"/>
      <point x="207" y="313" type="curve"/>
      <point x="149" y="313" type="line"/>
      <point x="165" y="226" type="line"/>
      <point x="201" y="226" type="line" smooth="yes"/>
      <point x="315" y="226"/>
      <point x="362" y="183"/>
      <point x="362" y="116" type="curve"/>
      <point x="362" y="53"/>
      <point x="301" y="15"/>
      <point x="237" y="15" type="curve"/>
      <point x="174" y="15"/>
      <point x="133" y="29"/>
      <point x="81" y="60" type="curve"/>
      <point x="23" y="-16" type="line"/>
      <point x="81" y="-46"/>
      <point x="160" y="-76"/>
      <point x="234" y="-76" type="curve"/>
      <point x="378" y="-76"/>
      <point x="468" y="8"/>
      <point x="468" y="117" type="curve"/>
      <point x="468" y="200"/>
      <point x="414" y="260"/>
      <point x="367" y="272" type="curve"/>
      <point x="412" y="289"/>
      <point x="456" y="344"/>
      <point x="456" y="408" type="curve"/>
    </contour>
  </outline>
</glyph>
<glyph name="five" format="1">
  <advance width="543"/>
  <unicode hex="0035"/>
  <outline>
    <contour>
      <point x="85" y="212" type="line"/>
      <point x="187" y="212" type="line"/>
      <point x="199" y="232"/>
      <point x="233" y="259"/>
      <point x="281" y="259" type="curve"/>
      <point x="345" y="259"/>
      <point x="391" y="216"/>
      <point x="391" y="143" type="curve"/>
      <point x="391" y="65"/>
      <point x="335" y="18"/>
      <point x="257" y="18" type="curve"/>
      <point x="194" y="18"/>
      <point x="152" y="33"/>
      <point x="101" y="63" type="curve"/>
      <point x="44" y="-17" type="line"/>
      <point x="100" y="-47"/>
      <point x="179" y="-76"/>
      <point x="254" y="-76" type="curve"/>
      <point x="406" y="-76"/>
      <point x="496" y="17"/>
      <point x="496" y="143" type="curve"/>
      <point x="495" y="255"/>
      <point x="426" y="350"/>
      <point x="277" y="350" type="curve"/>
      <point x="247" y="350"/>
      <point x="218" y="344"/>
      <point x="193" y="330" type="curve"/>
      <point x="200" y="474" type="line"/>
      <point x="447" y="474" type="line"/>
      <point x="460" y="566" type="line"/>
      <point x="102" y="566" type="line"/>
    </contour>
  </outline>
</glyph>
<glyph name="six" format="1">
  <advance width="554"/>
  <unicode hex="0036"/>
  <outline>
    <contour>
      <point x="435" y="-13"/>
      <point x="517" y="89"/>
      <point x="517" y="200" type="curve"/>
      <point x="517" y="307"/>
      <point x="434" y="401"/>
      <point x="304" y="401" type="curve"/>
      <point x="258" y="401"/>
      <point x="212" y="381"/>
      <point x="176" y="355" type="curve"/>
      <point x="209" y="450"/>
      <point x="292" y="536"/>
      <point x="399" y="561" type="curve"/>
      <point x="350" y="634" type="line"/>
      <point x="173" y="598"/>
      <point x="54" y="409"/>
      <point x="54" y="262" type="curve"/>
      <point x="54" y="79"/>
      <point x="163" y="-13"/>
      <point x="308" y="-13" type="curve"/>
    </contour>
    <contour>
      <point x="372" y="319"/>
      <point x="415" y="257"/>
      <point x="415" y="194" type="curve"/>
      <point x="415" y="135"/>
      <point x="370" y="80"/>
      <point x="302" y="80" type="curve"/>
      <point x="214" y="80"/>
      <point x="169" y="141"/>
      <point x="160" y="231" type="curve"/>
      <point x="180" y="275"/>
      <point x="232" y="319"/>
      <point x="300" y="319" type="curve"/>
    </contour>
  </outline>
</glyph>
<glyph name="eight" format="1">
  <advance width="564"/>
  <unicode hex="0038"/>
  <outline>
    <contour>
      <point x="428" y="-13"/>
      <point x="512" y="75"/>
      <point x="512" y="181" type="curve"/>
      <point x="512" y="253"/>
      <point x="453" y="321"/>
      <point x="394" y="340" type="curve"/>
      <point x="445" y="363"/>
      <point x="486" y="412"/>
      <point x="486" y="471" type="curve"/>
      <point x="486" y="564"/>
      <point x="410" y="643"/>
      <point x="283" y="643" type="curve"/>
      <point x="154" y="643"/>
      <point x="78" y="564"/>
      <point x="78" y="471" type="curve"/>
      <point x="78" y="412"/>
      <point x="117" y="363"/>
      <point x="170" y="340" type="curve"/>
      <point x="109" y="321"/>
      <point x="52" y="250"/>
      <point x="52" y="181" type="curve"/>
      <point x="52" y="74"/>
      <point x="135" y="-13"/>
      <point x="283" y="-13" type="curve"/>
    </contour>
    <contour>
      <point x="282" y="78" type="line"/>
      <point x="215" y="78"/>
      <point x="156" y="116"/>
      <point x="156" y="179" type="curve"/>
      <point x="156" y="234"/>
      <point x="197" y="282"/>
      <point x="283" y="295" type="curve"/>
      <point x="365" y="282"/>
      <point x="409" y="234"/>
      <point x="409" y="179" type="curve"/>
      <point x="409" y="116"/>
      <point x="347" y="78"/>
      <point x="283" y="78" type="curve"/>
    </contour>
    <contour>
      <point x="216" y="389"/>
      <point x="180" y="423"/>
      <point x="181" y="471" type="curve"/>
      <point x="181" y="513"/>
      <point x="221" y="551"/>
      <point x="280" y="551" type="curve"/>
      <point x="343" y="551"/>
      <point x="383" y="514"/>
      <point x="383" y="471" type="curve"/>
      <point x="383" y="423"/>
      <point x="348" y="389"/>
      <point x="283" y="379" type="curve"/>
    </contour>
  </outline>
</glyph>
<glyph name="nine" format="1">
  <advance width="554"/>
  <unicode hex="0039"/>
  <outline>
    <contour>
      <point x="122" y="579"/>
      <point x="36" y="476"/>
      <point x="36" y="366" type="curve"/>
      <point x="36" y="259"/>
      <point x="122" y="165"/>
      <point x="253" y="165" type="curve"/>
      <point x="297" y="165"/>
      <point x="341" y="183"/>
      <point x="375" y="208" type="curve"/>
      <point x="342" y="115"/>
      <point x="261" y="30"/>
      <point x="153" y="5" type="curve"/>
      <point x="204" y="-69" type="line"/>
      <point x="380" y="-32"/>
      <point x="498" y="156"/>
      <point x="498" y="304" type="curve"/>
      <point x="498" y="486"/>
      <point x="394" y="579"/>
      <point x="249" y="579" type="curve"/>
    </contour>
    <contour>
      <point x="182" y="247"/>
      <point x="140" y="309"/>
      <point x="140" y="372" type="curve"/>
      <point x="140" y="431"/>
      <point x="183" y="486"/>
      <point x="252" y="486" type="curve"/>
      <point x="339" y="486"/>
      <point x="384" y="426"/>
      <point x="393" y="334" type="curve"/>
      <point x="373" y="291"/>
      <point x="322" y="247"/>
      <point x="253" y="247" type="curve"/>
    </contour>
  </outline>
</glyph>
<glyph name="less" format="1">
  <advance width="336"/>
  <unicode hex="003C"/>
  <outline>
    <contour>
      <point x="283" y="19" type="line"/>
      <point x="306" y="111" type="line"/>
      <point x="126" y="245" type="line"/>
      <point x="306" y="379" type="line"/>
      <point x="283" y="470" type="line"/>
      <point x="14" y="273" type="line"/>
      <point x="14" y="217" type="line"/>
    </contour>
  </outline>
</glyph>
<glyph name="greater" format="1">
  <advance width="336"/>
  <unicode hex="003E"/>
  <outline>
    <contour>
      <point x="322" y="217" type="line"/>
      <point x="322" y="272" type="line"/>
      <point x="54" y="470" type="line"/>
      <point x="31" y="378" type="line"/>
      <point x="211" y="245" type="line"/>
      <point x="151" y="200"/>
      <point x="91" y="155"/>
      <point x="31" y="111" type="curve"/>
      <point x="54" y="19" type="line"/>
    </contour>
  </outline>
</glyph>
<glyph name="question" format="1">
  <advance width="411"/>
  <unicode hex="003F"/>
  <outline>
    <contour>
      <point x="396" y="630"/>
      <point x="332" y="701"/>
      <point x="198" y="701" type="curve"/>
      <point x="123" y="701"/>
      <point x="67" y="682"/>
      <point x="8" y="644" type="curve"/>
      <point x="23" y="543" type="line"/>
      <point x="86" y="587"/>
      <point x="145" y="607"/>
      <point x="195" y="607" type="curve"/>
      <point x="252" y="607"/>
      <point x="290" y="579"/>
      <point x="290" y="524" type="curve"/>
      <point x="290" y="464"/>
      <point x="221" y="410"/>
      <point x="123" y="378" type="curve"/>
      <point x="131" y="203" type="line"/>
      <point x="212" y="169" type="line"/>
      <point x="227" y="320" type="line"/>
      <point x="325" y="370"/>
      <point x="396" y="452"/>
      <point x="396" y="526" type="curve"/>
    </contour>
    <contour>
      <point x="233" y="105"/>
      <point x="204" y="133"/>
      <point x="166" y="133" type="curve"/>
      <point x="129" y="133"/>
      <point x="99" y="105"/>
      <point x="99" y="67" type="curve"/>
      <point x="99" y="28"/>
      <point x="129" y="0"/>
      <point x="166" y="0" type="curve"/>
      <point x="204" y="0"/>
      <point x="233" y="28"/>
      <point x="233" y="67" type="curve"/>
    </contour>
  </outline>
</glyph>
<glyph name="at" format="1">
  <advance width="806"/>
  <unicode hex="0040"/>
  <outline>
    <contour>
      <point x="576" y="387" type="line"/>
      <point x="566" y="401"/>
      <point x="555" y="414"/>
      <point x="544" y="427" type="curve"/>
      <point x="466" y="427" type="line" smooth="yes"/>
      <point x="347" y="427"/>
      <point x="237" y="347"/>
      <point x="237" y="220" type="curve" smooth="yes"/>
      <point x="237" y="126"/>
      <point x="292" y="61"/>
      <point x="411" y="61" type="curve" smooth="yes"/>
      <point x="442" y="61"/>
      <point x="475" y="74"/>
      <point x="498" y="88" type="curve"/>
      <point x="519" y="70"/>
      <point x="548" y="60"/>
      <point x="578" y="60" type="curve" smooth="yes"/>
      <point x="685" y="60"/>
      <point x="761" y="142"/>
      <point x="761" y="306" type="curve" smooth="yes"/>
      <point x="761" y="477"/>
      <point x="628" y="600"/>
      <point x="445" y="600" type="curve" smooth="yes"/>
      <point x="203" y="600"/>
      <point x="52" y="427"/>
      <point x="52" y="222" type="curve" smooth="yes"/>
      <point x="52" y="26"/>
      <point x="215" y="-99"/>
      <point x="380" y="-99" type="curve" smooth="yes"/>
      <point x="447" y="-99"/>
      <point x="517" y="-93"/>
      <point x="585" y="-57" type="curve"/>
      <point x="575" y="-29"/>
      <point x="566" y="0"/>
      <point x="557" y="28" type="curve"/>
      <point x="504" y="0"/>
      <point x="440" y="-7"/>
      <point x="391" y="-7" type="curve" smooth="yes"/>
      <point x="263" y="-7"/>
      <point x="153" y="79"/>
      <point x="153" y="222" type="curve" smooth="yes"/>
      <point x="153" y="400"/>
      <point x="294" y="510"/>
      <point x="443" y="510" type="curve" smooth="yes"/>
      <point x="576" y="510"/>
      <point x="667" y="424"/>
      <point x="667" y="300" type="curve" smooth="yes"/>
      <point x="667" y="206"/>
      <point x="628" y="149"/>
      <point x="584" y="149" type="curve" smooth="yes"/>
      <point x="569" y="149"/>
      <point x="553" y="162"/>
      <point x="553" y="191" type="curve"/>
    </contour>
    <contour>
      <point x="454" y="167"/>
      <point x="435" y="149"/>
      <point x="409" y="149" type="curve" smooth="yes"/>
      <point x="357" y="149"/>
      <point x="337" y="185"/>
      <point x="337" y="220" type="curve" smooth="yes"/>
      <point x="337" y="299"/>
      <point x="398" y="344"/>
      <point x="467" y="344" type="curve" smooth="yes"/>
      <point x="479" y="344" type="line"/>
      <point x="462" y="219" type="line" smooth="yes"/>
      <point x="461" y="209"/>
      <point x="460" y="199"/>
      <point x="460" y="191" type="curve"/>
    </contour>
  </outline>
</glyph>
<glyph name="F" format="1">
  <advance width="495"/>
  <unicode hex="0046"/>
  <outline>
    <contour>
      <point x="394" y="296" type="line"/>
      <point x="378" y="383" type="line"/>
      <point x="201" y="383" type="line"/>
      <point x="201" y="592" type="line"/>
      <point x="482" y="592" type="line"/>
      <point x="465" y="680" type="line"/>
      <point x="89" y="680" type="line"/>
      <point x="89" y="0" type="line"/>
      <point x="201" y="0" type="line"/>
      <point x="201" y="296" type="line"/>
    </contour>
  </outline>
</glyph>
<glyph name="H" format="1">
  <advance width="688"/>
  <unicode hex="0048"/>
  <outline>
    <contour>
      <point x="486" y="0" type="line"/>
      <point x="599" y="0" type="line"/>
      <point x="599" y="680" type="line"/>
      <point x="486" y="680" type="line"/>
      <point x="486" y="386" type="line"/>
      <point x="201" y="386" type="line"/>
      <point x="201" y="685" type="line"/>
      <point x="89" y="680" type="line"/>
      <point x="89" y="0" type="line"/>
      <point x="201" y="0" type="line"/>
      <point x="201" y="295" type="line"/>
      <point x="486" y="295" type="line"/>
    </contour>
  </outline>
</glyph>
<glyph name="I" format="1">
  <advance width="291"/>
  <unicode hex="0049"/>
  <outline>
    <contour>
      <point x="89" y="0" type="line"/>
      <point x="201" y="0" type="line"/>
      <point x="201" y="680" type="line"/>
      <point x="89" y="680" type="line"/>
    </contour>
  </outline>
</glyph>
<glyph name="K" format="1">
  <advance width="626"/>
  <unicode hex="004B"/>
  <outline>
    <contour>
      <point x="484" y="0" type="line"/>
      <point x="623" y="0" type="line"/>
      <point x="333" y="388" type="line"/>
      <point x="542" y="630" type="line"/>
      <point x="460" y="695" type="line"/>
      <point x="192" y="380" type="line"/>
      <point x="192" y="680" type="line"/>
      <point x="79" y="680" type="line"/>
      <point x="79" y="0" type="line"/>
      <point x="192" y="0" type="line"/>
      <point x="192" y="224" type="line"/>
      <point x="259" y="302" type="line"/>
    </contour>
  </outline>
</glyph>
<glyph name="P" format="1">
  <advance width="599"/>
  <unicode hex="0050"/>
  <outline>
    <contour>
      <point x="89" y="0" type="line"/>
      <point x="201" y="0" type="line"/>
      <point x="201" y="244" type="line"/>
      <point x="283" y="244" type="line" smooth="yes"/>
      <point x="428" y="244"/>
      <point x="554" y="311"/>
      <point x="556" y="465" type="curve"/>
      <point x="556" y="620"/>
      <point x="440" y="680"/>
      <point x="293" y="680" type="curve"/>
      <point x="89" y="680" type="line"/>
    </contour>
    <contour>
      <point x="290" y="586" type="line" smooth="yes"/>
      <point x="382" y="586"/>
      <point x="437" y="554"/>
      <point x="437" y="459" type="curve"/>
      <point x="433" y="373"/>
      <point x="374" y="337"/>
      <point x="289" y="337" type="curve"/>
      <point x="201" y="337" type="line"/>
      <point x="201" y="586" type="line"/>
    </contour>
  </outline>
</glyph>
<glyph name="Q" format="1">
  <advance width="740"/>
  <unicode hex="0051"/>
  <outline>
    <contour>
      <point x="602" y="-31" type="line"/>
      <point x="668" y="28" type="line"/>
      <point x="601" y="93" type="line"/>
      <point x="651" y="155"/>
      <point x="679" y="244"/>
      <point x="679" y="344" type="curve"/>
      <point x="679" y="538"/>
      <point x="583" y="696"/>
      <point x="370" y="696" type="curve"/>
      <point x="172" y="692"/>
      <point x="61" y="545"/>
      <point x="61" y="337" type="curve"/>
      <point x="61" y="144"/>
      <point x="157" y="-14"/>
      <point x="369" y="-14" type="curve"/>
      <point x="434" y="-13"/>
      <point x="489" y="4"/>
      <point x="534" y="32" type="curve"/>
    </contour>
    <contour>
      <point x="237" y="81"/>
      <point x="179" y="190"/>
      <point x="179" y="338" type="curve"/>
      <point x="179" y="497"/>
      <point x="256" y="599"/>
      <point x="372" y="599" type="curve"/>
      <point x="503" y="599"/>
      <point x="561" y="491"/>
      <point x="561" y="344" type="curve"/>
      <point x="561" y="271"/>
      <point x="547" y="213"/>
      <point x="522" y="170" type="curve"/>
      <point x="445" y="246" type="line"/>
      <point x="368" y="187" type="line"/>
      <point x="456" y="105" type="line"/>
      <point x="430" y="90"/>
      <point x="400" y="81"/>
      <point x="367" y="81" type="curve"/>
    </contour>
  </outline>
</glyph>
<glyph name="V" format="1">
  <advance width="634"/>
  <unicode hex="0056"/>
  <outline>
    <contour>
      <point x="269" y="0" type="line"/>
      <point x="368" y="0" type="line"/>
      <point x="628" y="680" type="line"/>
      <point x="515" y="680" type="line"/>
      <point x="319" y="152" type="line"/>
      <point x="117" y="680" type="line"/>
      <point x="6" y="664" type="line"/>
    </contour>
  </outline>
</glyph>
<glyph name="W" format="1">
  <advance width="1013"/>
  <unicode hex="0057"/>
  <outline>
    <contour>
      <point x="673" y="0" type="line"/>
      <point x="777" y="0" type="line"/>
      <point x="1008" y="680" type="line"/>
      <point x="895" y="680" type="line"/>
      <point x="730" y="161" type="line"/>
      <point x="559" y="680" type="line"/>
      <point x="453" y="680" type="line"/>
      <point x="291" y="160" type="line"/>
      <point x="117" y="680" type="line"/>
      <point x="6" y="664" type="line"/>
      <point x="239" y="0" type="line"/>
      <point x="342" y="0" type="line"/>
      <point x="504" y="509" type="line"/>
    </contour>
  </outline>
</glyph>
<glyph name="X" format="1">
  <advance width="656"/>
  <unicode hex="0058"/>
  <outline>
    <contour>
      <point x="10" y="7" type="line"/>
      <point x="115" y="-10" type="line"/>
      <point x="317" y="266" type="line"/>
      <point x="514" y="0" type="line"/>
      <point x="633" y="0" type="line"/>
      <point x="385" y="337" type="line"/>
      <point x="646" y="680" type="line"/>
      <point x="528" y="680" type="line"/>
      <point x="328" y="415" type="line"/>
      <point x="134" y="680" type="line"/>
      <point x="24" y="663" type="line"/>
      <point x="259" y="344" type="line"/>
    </contour>
  </outline>
</glyph>
<glyph name="bracketleft" format="1">
  <advance width="308"/>
  <unicode hex="005B"/>
  <outline>
    <contour>
      <point x="72" y="696" type="line"/>
      <point x="72" y="-88" type="line"/>
      <point x="302" y="-88" type="line"/>
      <point x="285" y="-1" type="line"/>
      <point x="183" y="-1" type="line"/>
      <point x="183" y="608" type="line"/>
      <point x="285" y="608" type="line"/>
      <point x="302" y="696" type="line"/>
    </contour>
  </outline>
</glyph>
<glyph name="bracketright" format="1">
  <advance width="308"/>
  <unicode hex="005D"/>
  <outline>
    <contour>
      <point x="235" y="-88" type="line"/>
      <point x="235" y="696" type="line"/>
      <point x="6" y="696" type="line"/>
      <point x="21" y="608" type="line"/>
      <point x="123" y="608" type="line"/>
      <point x="123" y="-1" type="line"/>
      <point x="21" y="-1" type="line"/>
      <point x="6" y="-88" type="line"/>
    </contour>
  </outline>
</glyph>
<glyph name="asciicircum" format="1">
  <advance width="446"/>
  <unicode hex="005E"/>
  <outline>
    <contour>
      <point x="128" y="143" type="line"/>
      <point x="223" y="279" type="line"/>
      <point x="319" y="143" type="line"/>
      <point x="435" y="143" type="line"/>
      <point x="260" y="390" type="line"/>
      <point x="186" y="390" type="line"/>
      <point x="11" y="143" type="line"/>
    </contour>
  </outline>
</glyph>
<glyph name="b" format="1">
  <advance width="571"/>
  <unicode hex="0062"/>
  <outline>
    <contour>
      <point x="72" y="0" type="line"/>
      <point x="132" y="0" type="line"/>
      <point x="160" y="41" type="line"/>
      <point x="202" y="8"/>
      <point x="265" y="-12"/>
      <point x="308" y="-12" type="curve" smooth="yes"/>
      <point x="449" y="-12"/>
      <point x="526" y="97"/>
      <point x="526" y="245" type="curve" smooth="yes"/>
      <point x="526" y="392"/>
      <point x="452" y="502"/>
      <point x="308" y="502" type="curve" smooth="yes"/>
      <point x="271" y="502"/>
      <point x="224" y="487"/>
      <point x="185" y="463" type="curve"/>
      <point x="185" y="706" type="line"/>
      <point x="72" y="695" type="line"/>
    </contour>
    <contour>
      <point x="251" y="84"/>
      <point x="215" y="98"/>
      <point x="185" y="119" type="curve"/>
      <point x="185" y="370" type="line"/>
      <point x="215" y="392"/>
      <point x="251" y="406"/>
      <point x="282" y="406" type="curve" smooth="yes"/>
      <point x="383" y="406"/>
      <point x="410" y="332"/>
      <point x="410" y="244" type="curve" smooth="yes"/>
      <point x="410" y="165"/>
      <point x="377" y="84"/>
      <point x="282" y="84" type="curve" smooth="yes"/>
    </contour>
  </outline>
</glyph>
<glyph name="h" format="1">
  <advance width="577"/>
  <unicode hex="0068"/>
  <outline>
    <contour>
      <point x="291" y="502"/>
      <point x="227" y="479"/>
      <point x="185" y="442" type="curve"/>
      <point x="185" y="706" type="line"/>
      <point x="73" y="695" type="line"/>
      <point x="73" y="0" type="line"/>
      <point x="185" y="0" type="line"/>
      <point x="185" y="348" type="line"/>
      <point x="221" y="382"/>
      <point x="272" y="406"/>
      <point x="311" y="406" type="curve"/>
      <point x="371" y="406"/>
      <point x="401" y="368"/>
      <point x="401" y="305" type="curve"/>
      <point x="401" y="0" type="line"/>
      <point x="514" y="0" type="line"/>
      <point x="514" y="312" type="line"/>
      <point x="514" y="420"/>
      <point x="465" y="502"/>
      <point x="339" y="502" type="curve"/>
    </contour>
  </outline>
</glyph>
<glyph name="i" format="1">
  <advance width="250"/>
  <unicode hex="0069"/>
  <outline>
    <contour>
      <point x="58" y="591"/>
      <point x="87" y="563"/>
      <point x="124" y="563" type="curve" smooth="yes"/>
      <point x="162" y="563"/>
      <point x="191" y="591"/>
      <point x="191" y="629" type="curve" smooth="yes"/>
      <point x="191" y="667"/>
      <point x="162" y="696"/>
      <point x="124" y="696" type="curve" smooth="yes"/>
      <point x="87" y="696"/>
      <point x="57" y="667"/>
      <point x="58" y="629" type="curve" smooth="yes"/>
    </contour>
    <contour>
      <point x="67" y="0" type="line"/>
      <point x="181" y="0" type="line"/>
      <point x="181" y="485" type="line"/>
      <point x="67" y="485" type="line"/>
    </contour>
  </outline>
</glyph>
<glyph name="j" format="1">
  <advance width="266"/>
  <unicode hex="006A"/>
  <outline>
    <contour>
      <point x="81" y="3" type="line" smooth="yes"/>
      <point x="81" y="-60"/>
      <point x="55" y="-90"/>
      <point x="-14" y="-115" type="curve"/>
      <point x="29" y="-200" type="line"/>
      <point x="156" y="-160"/>
      <point x="195" y="-107"/>
      <point x="195" y="-4" type="curve" smooth="yes"/>
      <point x="195" y="485" type="line"/>
      <point x="81" y="485" type="line"/>
    </contour>
    <contour>
      <point x="71" y="591"/>
      <point x="100" y="563"/>
      <point x="137" y="563" type="curve" smooth="yes"/>
      <point x="175" y="563"/>
      <point x="205" y="591"/>
      <point x="205" y="629" type="curve" smooth="yes"/>
      <point x="205" y="667"/>
      <point x="175" y="696"/>
      <point x="137" y="696" type="curve" smooth="yes"/>
      <point x="100" y="696"/>
      <point x="71" y="667"/>
      <point x="71" y="629" type="curve" smooth="yes"/>
    </contour>
  </outline>
</glyph>
<glyph name="l" format="1">
  <advance width="257"/>
  <unicode hex="006C"/>
  <outline>
    <contour>
      <point x="72" y="0" type="line"/>
      <point x="185" y="0" type="line"/>
      <point x="185" y="706" type="line"/>
      <point x="72" y="695" type="line"/>
    </contour>
  </outline>
</glyph>
<glyph name="p" format="1">
  <advance width="571"/>
  <unicode hex="0070"/>
  <outline>
    <contour>
      <point x="72" y="-219" type="line"/>
      <point x="185" y="-208" type="line"/>
      <point x="185" y="26" type="line"/>
      <point x="224" y="2"/>
      <point x="271" y="-12"/>
      <point x="308" y="-12" type="curve" smooth="yes"/>
      <point x="449" y="-12"/>
      <point x="526" y="97"/>
      <point x="526" y="245" type="curve" smooth="yes"/>
      <point x="526" y="392"/>
      <point x="452" y="502"/>
      <point x="308" y="502" type="curve" smooth="yes"/>
      <point x="262" y="502"/>
      <point x="200" y="480"/>
      <point x="157" y="446" type="curve"/>
      <point x="132" y="485" type="line"/>
      <point x="72" y="485" type="line"/>
    </contour>
    <contour>
      <point x="251" y="84"/>
      <point x="215" y="98"/>
      <point x="185" y="119" type="curve"/>
      <point x="185" y="370" type="line"/>
      <point x="215" y="392"/>
      <point x="251" y="406"/>
      <point x="282" y="406" type="curve" smooth="yes"/>
      <point x="383" y="406"/>
      <point x="410" y="332"/>
      <point x="410" y="244" type="curve" smooth="yes"/>
      <point x="410" y="165"/>
      <point x="377" y="84"/>
      <point x="282" y="84" type="curve" smooth="yes"/>
    </contour>
  </outline>
</glyph>
<glyph name="t" format="1">
  <advance width="356"/>
  <unicode hex="0074"/>
  <outline>
    <contour>
      <point x="281" y="-18"/>
      <point x="321" y="-7"/>
      <point x="341" y="7" type="curve"/>
      <point x="309" y="90" type="line"/>
      <point x="293" y="83"/>
      <point x="276" y="78"/>
      <point x="259" y="78" type="curve"/>
      <point x="211" y="78"/>
      <point x="189" y="114"/>
      <point x="189" y="164" type="curve"/>
      <point x="189" y="395" type="line"/>
      <point x="312" y="395" type="line"/>
      <point x="277" y="482" type="line"/>
      <point x="189" y="482" type="line"/>
      <point x="189" y="622" type="line"/>
      <point x="76" y="599" type="line"/>
      <point x="76" y="482" type="line"/>
      <point x="10" y="482" type="line"/>
      <point x="10" y="395" type="line"/>
      <point x="76" y="395" type="line"/>
      <point x="76" y="145" type="line"/>
      <point x="76" y="39"/>
      <point x="143" y="-18"/>
      <point x="251" y="-18" type="curve"/>
    </contour>
  </outline>
</glyph>
<glyph name="u" format="1">
  <advance width="564"/>
  <unicode hex="0075"/>
  <outline>
    <contour>
      <point x="290" y="-18"/>
      <point x="358" y="9"/>
      <point x="402" y="50" type="curve"/>
      <point x="434" y="0" type="line"/>
      <point x="496" y="0" type="line"/>
      <point x="496" y="485" type="line"/>
      <point x="383" y="485" type="line"/>
      <point x="383" y="127" type="line"/>
      <point x="347" y="99"/>
      <point x="301" y="78"/>
      <point x="266" y="78" type="curve"/>
      <point x="206" y="78"/>
      <point x="176" y="117"/>
      <point x="176" y="179" type="curve"/>
      <point x="176" y="485" type="line"/>
      <point x="62" y="485" type="line"/>
      <point x="62" y="172" type="line"/>
      <point x="62" y="65"/>
      <point x="112" y="-18"/>
      <point x="238" y="-18" type="curve"/>
    </contour>
  </outline>
</glyph>
<glyph name="x" format="1">
  <advance width="527"/>
  <unicode hex="0078"/>
  <outline>
    <contour>
      <point x="9" y="0" type="line"/>
      <point x="134" y="0" type="line"/>
      <point x="257" y="158" type="line"/>
      <point x="379" y="0" type="line"/>
      <point x="503" y="0" type="line"/>
      <point x="332" y="228" type="line"/>
      <point x="518" y="485" type="line"/>
      <point x="395" y="485" type="line"/>
      <point x="265" y="316" type="line"/>
      <point x="140" y="485" type="line"/>
      <point x="24" y="468" type="line"/>
      <point x="192" y="246" type="line"/>
    </contour>
  </outline>
</glyph>
<glyph name="y" format="1">
  <advance width="492"/>
  <unicode hex="0079"/>
  <outline>
    <contour>
      <point x="162" y="-42" type="line"/>
      <point x="145" y="-88"/>
      <point x="91" y="-110"/>
      <point x="43" y="-131" type="curve"/>
      <point x="82" y="-221" type="line"/>
      <point x="162" y="-203"/>
      <point x="239" y="-149"/>
      <point x="267" y="-76" type="curve"/>
      <point x="307" y="29" type="line"/>
      <point x="483" y="485" type="line"/>
      <point x="366" y="485" type="line"/>
      <point x="249" y="164" type="line"/>
      <point x="125" y="485" type="line"/>
      <point x="10" y="469" type="line"/>
      <point x="187" y="24" type="line"/>
    </contour>
  </outline>
</glyph>
<glyph name="bar" format="1">
  <advance width="267"/>
  <unicode hex="007C"/>
  <outline>
    <contour>
      <point x="190" y="704" type="line"/>
      <point x="78" y="712" type="line"/>
      <point x="78" y="0" type="line"/>
      <point x="190" y="-9" type="line"/>
    </contour>
  </outline>
</glyph>
<glyph name="braceright" format="1">
  <advance width="285"/>
  <unicode hex="007D"/>
  <outline>
    <contour>
      <point x="64" y="163"/>
      <point x="99" y="114"/>
      <point x="99" y="78" type="curve" smooth="yes"/>
      <point x="99" y="62"/>
      <point x="85" y="44"/>
      <point x="54" y="44" type="curve" smooth="yes"/>
      <point x="18" y="44" type="line"/>
      <point x="14" y="15"/>
      <point x="12" y="-13"/>
      <point x="8" y="-42" type="curve"/>
      <point x="35" y="-42" type="line" smooth="yes"/>
      <point x="137" y="-42"/>
      <point x="193" y="-8"/>
      <point x="193" y="74" type="curve" smooth="yes"/>
      <point x="193" y="103"/>
      <point x="180" y="140"/>
      <point x="172" y="175" type="curve"/>
      <point x="172" y="174" type="line"/>
      <point x="167" y="191"/>
      <point x="164" y="207"/>
      <point x="164" y="219" type="curve" smooth="yes"/>
      <point x="164" y="251"/>
      <point x="186" y="272"/>
      <point x="211" y="272" type="curve" smooth="yes"/>
      <point x="253" y="272" type="line"/>
      <point x="253" y="345" type="line"/>
      <point x="211" y="345" type="line" smooth="yes"/>
      <point x="187" y="345"/>
      <point x="161" y="370"/>
      <point x="161" y="398" type="curve" smooth="yes"/>
      <point x="161" y="433"/>
      <point x="196" y="498"/>
      <point x="196" y="538" type="curve" smooth="yes"/>
      <point x="196" y="621"/>
      <point x="144" y="659"/>
      <point x="35" y="659" type="curve" smooth="yes"/>
      <point x="8" y="659" type="line"/>
      <point x="12" y="630"/>
      <point x="14" y="601"/>
      <point x="18" y="572" type="curve"/>
      <point x="54" y="572" type="line" smooth="yes"/>
      <point x="86" y="572"/>
      <point x="99" y="552"/>
      <point x="99" y="539" type="curve" smooth="yes"/>
      <point x="99" y="502"/>
      <point x="64" y="447"/>
      <point x="64" y="410" type="curve" smooth="yes"/>
      <point x="64" y="366"/>
      <point x="78" y="330"/>
      <point x="107" y="307" type="curve"/>
      <point x="77" y="287"/>
      <point x="64" y="254"/>
      <point x="64" y="206" type="curve" smooth="yes"/>
    </contour>
  </outline>
</glyph>
<glyph name="asciitilde" format="1">
  <advance width="436"/>
  <unicode hex="007E"/>
  <outline>
    <contour>
      <point x="361" y="183"/>
      <point x="415" y="223"/>
      <point x="415" y="332" type="curve"/>
      <point x="316" y="332" type="line"/>
      <point x="315" y="301"/>
      <point x="297" y="292"/>
      <point x="284" y="292" type="curve" smooth="yes"/>
      <point x="245" y="292"/>
      <point x="208" y="328"/>
      <point x="138" y="328" type="curve" smooth="yes"/>
      <point x="75" y="328"/>
      <point x="20" y="288"/>
      <point x="20" y="180" type="curve"/>
      <point x="119" y="180" type="line"/>
      <point x="121" y="210"/>
      <point x="137" y="218"/>
      <point x="149" y="218" type="curve" smooth="yes"/>
      <point x="189" y="218"/>
      <point x="230" y="183"/>
      <point x="297" y="183" type="curve" smooth="yes"/>
    </contour>
  </outline>
</glyph>
<glyph name="sterling" format="1">
  <advance width="495"/>
  <unicode hex="00A3"/>
  <outline>
    <contour>
      <point x="240" y="500" type="line" smooth="yes"/>
      <point x="240" y="550"/>
      <point x="258" y="586"/>
      <point x="306" y="586" type="curve" smooth="yes"/>
      <point x="321" y="586"/>
      <point x="341" y="581"/>
      <point x="357" y="574" type="curve"/>
      <point x="367" y="602"/>
      <point x="377" y="629"/>
      <point x="388" y="656" type="curve"/>
      <point x="368" y="672"/>
      <point x="329" y="684"/>
      <point x="298" y="684" type="curve" smooth="yes"/>
      <point x="185" y="684"/>
      <point x="126" y="615"/>
      <point x="126" y="505" type="curve" smooth="yes"/>
      <point x="126" y="386" type="line"/>
      <point x="52" y="386" type="line"/>
      <point x="52" y="300" type="line"/>
      <point x="126" y="300" type="line"/>
      <point x="126" y="173" type="line" smooth="yes"/>
      <point x="126" y="124"/>
      <point x="110" y="90"/>
      <point x="66" y="88" type="curve" smooth="yes"/>
      <point x="62" y="88" type="line"/>
      <point x="62" y="58"/>
      <point x="63" y="29"/>
      <point x="63" y="0" type="curve"/>
      <point x="481" y="0" type="line"/>
      <point x="476" y="29"/>
      <point x="471" y="58"/>
      <point x="465" y="88" type="curve"/>
      <point x="216" y="88" type="line"/>
      <point x="234" y="114"/>
      <point x="240" y="160"/>
      <point x="240" y="206" type="curve" smooth="yes"/>
      <point x="240" y="300" type="line"/>
      <point x="400" y="300" type="line"/>
      <point x="363" y="386" type="line"/>
      <point x="240" y="386" type="line"/>
    </contour>
  </outline>
</glyph>
<glyph name="currency" format="1">
  <advance width="679"/>
  <unicode hex="00A4"/>
  <outline>
    <contour>
      <point x="393" y="-12"/>
      <point x="440" y="2"/>
      <point x="480" y="28" type="curve"/>
      <point x="587" y="-79" type="line"/>
      <point x="655" y="4" type="line"/>
      <point x="557" y="103" type="line"/>
      <point x="581" y="142"/>
      <point x="595" y="189"/>
      <point x="596" y="242" type="curve"/>
      <point x="595" y="295"/>
      <point x="582" y="342"/>
      <point x="557" y="381" type="curve"/>
      <point x="655" y="480" type="line"/>
      <point x="587" y="562" type="line"/>
      <point x="481" y="456" type="line"/>
      <point x="442" y="482"/>
      <point x="395" y="497"/>
      <point x="342" y="498" type="curve"/>
      <point x="288" y="497"/>
      <point x="239" y="481"/>
      <point x="198" y="455" type="curve"/>
      <point x="92" y="562" type="line"/>
      <point x="23" y="480" type="line"/>
      <point x="124" y="377" type="line"/>
      <point x="100" y="341"/>
      <point x="86" y="294"/>
      <point x="86" y="242" type="curve"/>
      <point x="86" y="190"/>
      <point x="100" y="143"/>
      <point x="123" y="105" type="curve"/>
      <point x="23" y="4" type="line"/>
      <point x="92" y="-79" type="line"/>
      <point x="198" y="29" type="line"/>
      <point x="238" y="3"/>
      <point x="285" y="-12"/>
      <point x="339" y="-13" type="curve"/>
    </contour>
    <contour>
      <point x="419" y="390"/>
      <point x="479" y="326"/>
      <point x="480" y="241" type="curve"/>
      <point x="479" y="157"/>
      <point x="415" y="93"/>
      <point x="338" y="93" type="curve"/>
      <point x="262" y="95"/>
      <point x="203" y="159"/>
      <point x="202" y="243" type="curve"/>
      <point x="203" y="326"/>
      <point x="265" y="389"/>
      <point x="341" y="390" type="curve"/>
    </contour>
  </outline>
</glyph>
<glyph name="section" format="1">
  <advance width="615"/>
  <unicode hex="00A7"/>
  <outline>
    <contour>
      <point x="191" y="-20"/>
      <point x="121" y="6"/>
      <point x="82" y="25" type="curve"/>
      <point x="56" y="-63" type="line"/>
      <point x="85" y="-90"/>
      <point x="194" y="-119"/>
      <point x="252" y="-119" type="curve" smooth="yes"/>
      <point x="411" y="-119"/>
      <point x="502" y="-41"/>
      <point x="502" y="65" type="curve" smooth="yes"/>
      <point x="502" y="85"/>
      <point x="498" y="103"/>
      <point x="491" y="120" type="curve"/>
      <point x="542" y="153"/>
      <point x="569" y="204"/>
      <point x="569" y="263" type="curve" smooth="yes"/>
      <point x="569" y="463"/>
      <point x="227" y="476"/>
      <point x="227" y="603" type="curve" smooth="yes"/>
      <point x="227" y="655"/>
      <point x="275" y="683"/>
      <point x="343" y="683" type="curve" smooth="yes"/>
      <point x="404" y="683"/>
      <point x="448" y="662"/>
      <point x="489" y="643" type="curve"/>
      <point x="502" y="673"/>
      <point x="514" y="702"/>
      <point x="526" y="733" type="curve"/>
      <point x="477" y="756"/>
      <point x="408" y="780"/>
      <point x="342" y="780" type="curve" smooth="yes"/>
      <point x="197" y="780"/>
      <point x="113" y="704"/>
      <point x="113" y="602" type="curve" smooth="yes"/>
      <point x="113" y="582"/>
      <point x="116" y="563"/>
      <point x="122" y="545" type="curve"/>
      <point x="73" y="514"/>
      <point x="44" y="463"/>
      <point x="44" y="404" type="curve" smooth="yes"/>
      <point x="44" y="199"/>
      <point x="386" y="185"/>
      <point x="386" y="67" type="curve" smooth="yes"/>
      <point x="386" y="13"/>
      <point x="341" y="-20"/>
      <point x="251" y="-20" type="curve" smooth="yes"/>
    </contour>
    <contour>
      <point x="455" y="239"/>
      <point x="445" y="219"/>
      <point x="428" y="206" type="curve"/>
      <point x="331" y="282"/>
      <point x="159" y="318"/>
      <point x="159" y="407" type="curve" smooth="yes"/>
      <point x="159" y="429"/>
      <point x="168" y="447"/>
      <point x="183" y="460" type="curve"/>
      <point x="276" y="384"/>
      <point x="455" y="345"/>
      <point x="455" y="261" type="curve" smooth="yes"/>
    </contour>
  </outline>
</glyph>
<glyph name="dieresis" format="1">
  <advance width="334"/>
  <unicode hex="00A8"/>
  <outline>
    <contour>
      <point x="317" y="698"/>
      <point x="292" y="725"/>
      <point x="258" y="725" type="curve"/>
      <point x="226" y="725"/>
      <point x="198" y="698"/>
      <point x="198" y="666" type="curve"/>
      <point x="198" y="632"/>
      <point x="226" y="607"/>
      <point x="258" y="607" type="curve"/>
      <point x="292" y="607"/>
      <point x="317" y="632"/>
      <point x="317" y="666" type="curve"/>
    </contour>
    <contour>
      <point x="134" y="698"/>
      <point x="109" y="725"/>
      <point x="76" y="725" type="curve"/>
      <point x="43" y="725"/>
      <point x="16" y="698"/>
      <point x="16" y="666" type="curve"/>
      <point x="16" y="632"/>
      <point x="43" y="607"/>
      <point x="76" y="607" type="curve"/>
      <point x="109" y="607"/>
      <point x="134" y="632"/>
      <point x="134" y="666" type="curve"/>
    </contour>
  </outline>
</glyph>
<glyph name="copyright" format="1">
  <advance width="854"/>
  <unicode hex="00A9"/>
  <outline>
    <contour>
      <point x="239" y="29"/>
      <point x="124" y="162"/>
      <point x="124" y="337" type="curve"/>
      <point x="124" y="513"/>
      <point x="239" y="645"/>
      <point x="427" y="645" type="curve"/>
      <point x="615" y="645"/>
      <point x="730" y="513"/>
      <point x="730" y="337" type="curve"/>
      <point x="730" y="162"/>
      <point x="615" y="29"/>
      <point x="427" y="29" type="curve"/>
    </contour>
    <contour>
      <point x="661" y="-40"/>
      <point x="807" y="127"/>
      <point x="807" y="336" type="curve"/>
      <point x="807" y="547"/>
      <point x="661" y="713"/>
      <point x="427" y="713" type="curve"/>
      <point x="193" y="713"/>
      <point x="47" y="547"/>
      <point x="47" y="336" type="curve"/>
      <point x="47" y="127"/>
      <point x="193" y="-40"/>
      <point x="427" y="-40" type="curve"/>
    </contour>
    <contour>
      <point x="334" y="421"/>
      <point x="373" y="475"/>
      <point x="446" y="475" type="curve"/>
      <point x="496" y="475"/>
      <point x="522" y="463"/>
      <point x="562" y="443" type="curve"/>
      <point x="594" y="528" type="line"/>
      <point x="551" y="557"/>
      <point x="483" y="572"/>
      <point x="445" y="572" type="curve"/>
      <point x="310" y="572"/>
      <point x="218" y="479"/>
      <point x="218" y="338" type="curve"/>
      <point x="218" y="195"/>
      <point x="301" y="103"/>
      <point x="444" y="103" type="curve"/>
      <point x="482" y="103"/>
      <point x="551" y="116"/>
      <point x="592" y="148" type="curve"/>
      <point x="561" y="231" type="line"/>
      <point x="520" y="211"/>
      <point x="494" y="199"/>
      <point x="445" y="199" type="curve"/>
      <point x="371" y="199"/>
      <point x="334" y="250"/>
      <point x="334" y="339" type="curve"/>
    </contour>
  </outline>
</glyph>
<glyph name="macron" format="1">
  <advance width="288"/>
  <unicode hex="00AF"/>
  <outline>
    <contour>
      <point x="16" y="709" type="line"/>
      <point x="16" y="620" type="line"/>
      <point x="273" y="620" type="line"/>
      <point x="273" y="709" type="line"/>
    </contour>
  </outline>
</glyph>
<glyph name="plusminus" format="1">
  <advance width="458"/>
  <unicode hex="00B1"/>
  <outline>
    <contour>
      <point x="436" y="299" type="line"/>
      <point x="427" y="378" type="line"/>
      <point x="279" y="378" type="line"/>
      <point x="279" y="531" type="line"/>
      <point x="182" y="534" type="line"/>
      <point x="182" y="378" type="line"/>
      <point x="21" y="378" type="line"/>
      <point x="30" y="299" type="line"/>
      <point x="182" y="299" type="line"/>
      <point x="182" y="137" type="line"/>
      <point x="279" y="132" type="line"/>
      <point x="279" y="299" type="line"/>
    </contour>
    <contour>
      <point x="436" y="0" type="line"/>
      <point x="431" y="79" type="line"/>
      <point x="23" y="79" type="line"/>
      <point x="30" y="0" type="line"/>
    </contour>
  </outline>
</glyph>
<glyph name="twosuperior" format="1">
  <advance width="398"/>
  <unicode hex="00B2"/>
  <outline>
    <contour>
      <point x="340" y="700"/>
      <point x="293" y="771"/>
      <point x="180" y="771" type="curve"/>
      <point x="110" y="771"/>
      <point x="64" y="738"/>
      <point x="43" y="722" type="curve"/>
      <point x="81" y="648" type="line"/>
      <point x="83" y="650"/>
      <point x="134" y="688"/>
      <point x="174" y="688" type="curve"/>
      <point x="215" y="688"/>
      <point x="236" y="663"/>
      <point x="236" y="639" type="curve"/>
      <point x="236" y="596"/>
      <point x="218" y="565"/>
      <point x="173" y="527" type="curve"/>
      <point x="31" y="409" type="line"/>
      <point x="31" y="337" type="line"/>
      <point x="353" y="337" type="line"/>
      <point x="341" y="415" type="line"/>
      <point x="165" y="415" type="line"/>
      <point x="235" y="473" type="line" smooth="yes"/>
      <point x="309" y="534"/>
      <point x="340" y="580"/>
      <point x="340" y="639" type="curve"/>
    </contour>
  </outline>
</glyph>
<glyph name="threesuperior" format="1">
  <advance width="421"/>
  <unicode hex="00B3"/>
  <outline>
    <contour>
      <point x="349" y="711"/>
      <point x="298" y="771"/>
      <point x="193" y="771" type="curve"/>
      <point x="132" y="771"/>
      <point x="84" y="750"/>
      <point x="37" y="719" type="curve"/>
      <point x="78" y="649" type="line"/>
      <point x="103" y="668"/>
      <point x="132" y="687"/>
      <point x="179" y="687" type="curve"/>
      <point x="228" y="687"/>
      <point x="245" y="663"/>
      <point x="245" y="641" type="curve"/>
      <point x="245" y="609"/>
      <point x="228" y="577"/>
      <point x="161" y="577" type="curve"/>
      <point x="118" y="577" type="line"/>
      <point x="129" y="499" type="line"/>
      <point x="156" y="499" type="line" smooth="yes"/>
      <point x="223" y="499"/>
      <point x="253" y="472"/>
      <point x="253" y="423" type="curve"/>
      <point x="253" y="385"/>
      <point x="221" y="361"/>
      <point x="173" y="361" type="curve"/>
      <point x="130" y="361"/>
      <point x="106" y="372"/>
      <point x="67" y="396" type="curve"/>
      <point x="23" y="324" type="line"/>
      <point x="66" y="302"/>
      <point x="126" y="279"/>
      <point x="182" y="279" type="curve"/>
      <point x="290" y="279"/>
      <point x="358" y="342"/>
      <point x="358" y="424" type="curve"/>
      <point x="358" y="486"/>
      <point x="318" y="531"/>
      <point x="282" y="539" type="curve"/>
      <point x="316" y="552"/>
      <point x="349" y="594"/>
      <point x="349" y="642" type="curve"/>
    </contour>
  </outline>
</glyph>
<glyph name="mu" format="1">
  <advance width="573"/>
  <unicode hex="00B5"/>
  <outline>
    <contour>
      <point x="299" y="-18"/>
      <point x="368" y="9"/>
      <point x="412" y="50" type="curve"/>
      <point x="443" y="0" type="line"/>
      <point x="505" y="0" type="line"/>
      <point x="505" y="485" type="line"/>
      <point x="391" y="485" type="line"/>
      <point x="391" y="127" type="line"/>
      <point x="356" y="99"/>
      <point x="311" y="78"/>
      <point x="275" y="78" type="curve"/>
      <point x="215" y="78"/>
      <point x="185" y="117"/>
      <point x="185" y="179" type="curve"/>
      <point x="185" y="485" type="line"/>
      <point x="73" y="485" type="line"/>
      <point x="73" y="-219" type="line"/>
      <point x="185" y="-209" type="line"/>
      <point x="185" y="-8" type="line"/>
      <point x="202" y="-15"/>
      <point x="223" y="-18"/>
      <point x="248" y="-18" type="curve"/>
    </contour>
  </outline>
</glyph>
<glyph name="periodcentered" format="1">
  <advance width="157"/>
  <unicode hex="00B7"/>
  <outline>
    <contour>
      <point x="145" y="300"/>
      <point x="116" y="328"/>
      <point x="79" y="328" type="curve"/>
      <point x="41" y="328"/>
      <point x="11" y="300"/>
      <point x="11" y="262" type="curve"/>
      <point x="11" y="225"/>
      <point x="41" y="195"/>
      <point x="79" y="195" type="curve"/>
      <point x="116" y="195"/>
      <point x="145" y="225"/>
      <point x="145" y="262" type="curve"/>
    </contour>
  </outline>
</glyph>
<glyph name="ordmasculine" format="1">
  <advance width="382"/>
  <unicode hex="00BA"/>
  <outline>
    <contour>
      <point x="26" y="428"/>
      <point x="86" y="364"/>
      <point x="186" y="363" type="curve"/>
      <point x="287" y="364"/>
      <point x="355" y="428"/>
      <point x="355" y="531" type="curve"/>
      <point x="355" y="635"/>
      <point x="295" y="702"/>
      <point x="190" y="702" type="curve"/>
      <point x="91" y="702"/>
      <point x="26" y="637"/>
      <point x="26" y="533" type="curve"/>
    </contour>
    <contour>
      <point x="236" y="622"/>
      <point x="257" y="590"/>
      <point x="257" y="530" type="curve"/>
      <point x="257" y="469"/>
      <point x="230" y="442"/>
      <point x="188" y="442" type="curve"/>
      <point x="147" y="442"/>
      <point x="124" y="472"/>
      <point x="124" y="533" type="curve"/>
      <point x="124" y="596"/>
      <point x="154" y="622"/>
      <point x="192" y="622" type="curve"/>
    </contour>
  </outline>
</glyph>
<glyph name="Aacute" format="1">
  <advance width="634"/>
  <unicode hex="00C1"/>
  <outline>
    <contour>
      <point x="365" y="680" type="line"/>
      <point x="266" y="680" type="line"/>
      <point x="6" y="0" type="line"/>
      <point x="118" y="0" type="line"/>
      <point x="182" y="171" type="line"/>
      <point x="450" y="171" type="line"/>
      <point x="515" y="0" type="line"/>
      <point x="628" y="16" type="line"/>
    </contour>
    <contour>
      <point x="314" y="526" type="line"/>
      <point x="415" y="262" type="line"/>
      <point x="215" y="262" type="line"/>
    </contour>
    <contour>
      <point x="302" y="900" type="line"/>
      <point x="242" y="739" type="line"/>
      <point x="328" y="739" type="line"/>
      <point x="420" y="900" type="line"/>
    </contour>
  </outline>
</glyph>
<glyph name="Adieresis" format="1">
  <advance width="634"/>
  <unicode hex="00C4"/>
  <outline>
    <contour>
      <point x="365" y="680" type="line"/>
      <point x="266" y="680" type="line"/>
      <point x="6" y="0" type="line"/>
      <point x="118" y="0" type="line"/>
      <point x="182" y="171" type="line"/>
      <point x="450" y="171" type="line"/>
      <point x="515" y="0" type="line"/>
      <point x="628" y="16" type="line"/>
    </contour>
    <contour>
      <point x="314" y="526" type="line"/>
      <point x="415" y="262" type="line"/>
      <point x="215" y="262" type="line"/>
    </contour>
    <contour>
      <point x="463" y="848"/>
      <point x="438" y="875"/>
      <point x="404" y="875" type="curve"/>
      <point x="372" y="875"/>
      <point x="344" y="848"/>
      <point x="344" y="816" type="curve"/>
      <point x="344" y="782"/>
      <point x="372" y="757"/>
      <point x="404" y="757" type="curve"/>
      <point x="438" y="757"/>
      <point x="463" y="782"/>
      <point x="463" y="816" type="curve"/>
    </contour>
    <contour>
      <point x="280" y="848"/>
      <point x="255" y="875"/>
      <point x="222" y="875" type="curve"/>
      <point x="189" y="875"/>
      <point x="162" y="848"/>
      <point x="162" y="816" type="curve"/>
      <point x="162" y="782"/>
      <point x="189" y="757"/>
      <point x="222" y="757" type="curve"/>
      <point x="255" y="757"/>
      <point x="280" y="782"/>
      <point x="280" y="816" type="curve"/>
    </contour>
  </outline>
</glyph>
<glyph name="Aring" format="1">
  <advance width="634"/>
  <unicode hex="00C5"/>
  <outline>
    <contour>
      <point x="365" y="680" type="line"/>
      <point x="266" y="680" type="line"/>
      <point x="6" y="0" type="line"/>
      <point x="118" y="0" type="line"/>
      <point x="182" y="171" type="line"/>
      <point x="450" y="171" type="line"/>
      <point x="515" y="0" type="line"/>
      <point x="628" y="16" type="line"/>
    </contour>
    <contour>
      <point x="314" y="526" type="line"/>
      <point x="415" y="262" type="line"/>
      <point x="215" y="262" type="line"/>
    </contour>
    <contour>
      <point x="353" y="816"/>
      <point x="335" y="797"/>
      <point x="313" y="797" type="curve"/>
      <point x="290" y="797"/>
      <point x="272" y="816"/>
      <point x="272" y="838" type="curve"/>
      <point x="272" y="860"/>
      <point x="290" y="878"/>
      <point x="313" y="878" type="curve"/>
      <point x="335" y="878"/>
      <point x="353" y="860"/>
      <point x="353" y="838" type="curve"/>
    </contour>
    <contour>
      <point x="415" y="892"/>
      <point x="368" y="934"/>
      <point x="313" y="934" type="curve"/>
      <point x="257" y="934"/>
      <point x="210" y="892"/>
      <point x="210" y="838" type="curve"/>
      <point x="210" y="782"/>
      <point x="257" y="744"/>
      <point x="313" y="744" type="curve"/>
      <point x="368" y="744"/>
      <point x="415" y="782"/>
      <point x="415" y="838" type="curve"/>
    </contour>
  </outline>
</glyph>
<glyph name="AE" format="1">
  <advance width="935"/>
  <unicode hex="00C6"/>
  <outline>
    <contour>
      <point x="457" y="0" type="line"/>
      <point x="911" y="0" type="line"/>
      <point x="905" y="29"/>
      <point x="900" y="58"/>
      <point x="895" y="88" type="curve"/>
      <point x="571" y="88" type="line"/>
      <point x="571" y="300" type="line"/>
      <point x="774" y="300" type="line"/>
      <point x="756" y="389" type="line"/>
      <point x="571" y="389" type="line"/>
      <point x="571" y="592" type="line"/>
      <point x="869" y="592" type="line"/>
      <point x="853" y="680" type="line"/>
      <point x="445" y="680" type="line"/>
      <point x="1" y="16" type="line"/>
      <point x="37" y="10"/>
      <point x="73" y="5"/>
      <point x="108" y="0" type="curve"/>
      <point x="147" y="56"/>
      <point x="184" y="114"/>
      <point x="222" y="171" type="curve"/>
      <point x="457" y="171" type="line"/>
    </contour>
    <contour>
      <point x="283" y="262" type="line"/>
      <point x="457" y="525" type="line"/>
      <point x="457" y="262" type="line"/>
    </contour>
  </outline>
</glyph>
<glyph name="Ccedilla" format="1">
  <advance width="595"/>
  <unicode hex="00C7"/>
  <outline>
    <contour>
      <point x="426" y="599"/>
      <point x="453" y="588"/>
      <point x="508" y="570" type="curve"/>
      <point x="543" y="652" type="line"/>
      <point x="489" y="682"/>
      <point x="407" y="694"/>
      <point x="366" y="694" type="curve"/>
      <point x="167" y="694"/>
      <point x="61" y="544"/>
      <point x="61" y="337" type="curve"/>
      <point x="61" y="157"/>
      <point x="136" y="9"/>
      <point x="315" y="-11" type="curve"/>
      <point x="289" y="-77" type="line"/>
      <point x="342" y="-82"/>
      <point x="378" y="-102"/>
      <point x="378" y="-124" type="curve"/>
      <point x="378" y="-141"/>
      <point x="357" y="-146"/>
      <point x="338" y="-146" type="curve"/>
      <point x="320" y="-146"/>
      <point x="291" y="-136"/>
      <point x="274" y="-128" type="curve"/>
      <point x="248" y="-195" type="line"/>
      <point x="269" y="-211"/>
      <point x="312" y="-221"/>
      <point x="338" y="-221" type="curve"/>
      <point x="401" y="-221"/>
      <point x="460" y="-190"/>
      <point x="460" y="-122" type="curve"/>
      <point x="460" y="-87"/>
      <point x="429" y="-49"/>
      <point x="388" y="-35" type="curve"/>
      <point x="397" y="-12" type="line"/>
      <point x="449" y="-7"/>
      <point x="508" y="8"/>
      <point x="547" y="28" type="curve"/>
      <point x="505" y="112" type="line"/>
      <point x="465" y="95"/>
      <point x="417" y="81"/>
      <point x="355" y="81" type="curve"/>
      <point x="229" y="81"/>
      <point x="179" y="198"/>
      <point x="179" y="338" type="curve"/>
      <point x="179" y="497"/>
      <point x="247" y="598"/>
      <point x="364" y="599" type="curve"/>
    </contour>
  </outline>
</glyph>
<glyph name="Edieresis" format="1">
  <advance width="566"/>
  <unicode hex="00CB"/>
  <outline>
    <contour>
      <point x="89" y="0" type="line"/>
      <point x="543" y="0" type="line"/>
      <point x="537" y="29"/>
      <point x="531" y="58"/>
      <point x="526" y="88" type="curve"/>
      <point x="201" y="88" type="line"/>
      <point x="201" y="300" type="line"/>
      <point x="405" y="300" type="line"/>
      <point x="399" y="329"/>
      <point x="393" y="359"/>
      <point x="388" y="389" type="curve"/>
      <point x="201" y="389" type="line"/>
      <point x="201" y="592" type="line"/>
      <point x="500" y="592" type="line"/>
      <point x="483" y="680" type="line"/>
      <point x="89" y="680" type="line"/>
    </contour>
    <contour>
      <point x="257" y="848"/>
      <point x="232" y="875"/>
      <point x="199" y="875" type="curve" smooth="yes"/>
      <point x="166" y="875"/>
      <point x="139" y="848"/>
      <point x="139" y="815" type="curve" smooth="yes"/>
      <point x="139" y="782"/>
      <point x="166" y="756"/>
      <point x="199" y="756" type="curve" smooth="yes"/>
      <point x="232" y="756"/>
      <point x="257" y="782"/>
      <point x="257" y="815" type="curve" smooth="yes"/>
    </contour>
    <contour>
      <point x="440" y="848"/>
      <point x="415" y="875"/>
      <point x="381" y="875" type="curve" smooth="yes"/>
      <point x="349" y="875"/>
      <point x="321" y="848"/>
      <point x="321" y="815" type="curve" smooth="yes"/>
      <point x="321" y="782"/>
      <point x="349" y="756"/>
      <point x="381" y="756" type="curve" smooth="yes"/>
      <point x="415" y="756"/>
      <point x="440" y="782"/>
      <point x="440" y="815" type="curve" smooth="yes"/>
    </contour>
  </outline>
</glyph>
<glyph name="Igrave" format="1">
  <advance width="291"/>
  <unicode hex="00CC"/>
  <outline>
    <contour>
      <point x="89" y="0" type="line"/>
      <point x="201" y="0" type="line"/>
      <point x="201" y="680" type="line"/>
      <point x="89" y="680" type="line"/>
    </contour>
    <contour>
      <point x="43" y="900" type="line"/>
      <point x="136" y="739" type="line"/>
      <point x="222" y="739" type="line"/>
      <point x="161" y="900" type="line"/>
    </contour>
  </outline>
</glyph>
<glyph name="Icircumflex" format="1">
  <advance width="291"/>
  <unicode hex="00CE"/>
  <outline>
    <contour>
      <point x="89" y="0" type="line"/>
      <point x="201" y="0" type="line"/>
      <point x="201" y="680" type="line"/>
      <point x="89" y="680" type="line"/>
    </contour>
    <contour>
      <point x="76" y="739" type="line"/>
      <point x="98" y="764"/>
      <point x="122" y="789"/>
      <point x="145" y="815" type="curve"/>
      <point x="167" y="789"/>
      <point x="190" y="764"/>
      <point x="213" y="739" type="curve"/>
      <point x="317" y="739" type="line"/>
      <point x="177" y="900" type="line"/>
      <point x="109" y="900" type="line"/>
      <point x="62" y="846"/>
      <point x="15" y="793"/>
      <point x="-31" y="739" type="curve"/>
    </contour>
  </outline>
</glyph>
<glyph name="Idieresis" format="1">
  <advance width="291"/>
  <unicode hex="00CF"/>
  <outline>
    <contour>
      <point x="89" y="0" type="line"/>
      <point x="201" y="0" type="line"/>
      <point x="201" y="680" type="line"/>
      <point x="89" y="680" type="line"/>
    </contour>
    <contour>
      <point x="112" y="848"/>
      <point x="87" y="875"/>
      <point x="54" y="875" type="curve" smooth="yes"/>
      <point x="20" y="875"/>
      <point x="-6" y="848"/>
      <point x="-6" y="815" type="curve" smooth="yes"/>
      <point x="-6" y="782"/>
      <point x="20" y="756"/>
      <point x="54" y="756" type="curve" smooth="yes"/>
      <point x="87" y="756"/>
      <point x="112" y="782"/>
      <point x="112" y="815" type="curve" smooth="yes"/>
    </contour>
    <contour>
      <point x="295" y="848"/>
      <point x="270" y="875"/>
      <point x="236" y="875" type="curve" smooth="yes"/>
      <point x="203" y="875"/>
      <point x="176" y="848"/>
      <point x="176" y="815" type="curve" smooth="yes"/>
      <point x="176" y="782"/>
      <point x="203" y="756"/>
      <point x="236" y="756" type="curve" smooth="yes"/>
      <point x="270" y="756"/>
      <point x="295" y="782"/>
      <point x="295" y="815" type="curve" smooth="yes"/>
    </contour>
  </outline>
</glyph>
<glyph name="Odieresis" format="1">
  <advance width="740"/>
  <unicode hex="00D6"/>
  <outline>
    <contour>
      <point x="172" y="692"/>
      <point x="61" y="545"/>
      <point x="61" y="337" type="curve"/>
      <point x="61" y="144"/>
      <point x="157" y="-14"/>
      <point x="369" y="-14" type="curve"/>
      <point x="568" y="-10"/>
      <point x="679" y="138"/>
      <point x="679" y="344" type="curve"/>
      <point x="679" y="538"/>
      <point x="583" y="696"/>
      <point x="370" y="696" type="curve"/>
    </contour>
    <contour>
      <point x="237" y="81"/>
      <point x="179" y="190"/>
      <point x="179" y="338" type="curve"/>
      <point x="179" y="497"/>
      <point x="256" y="599"/>
      <point x="372" y="599" type="curve"/>
      <point x="503" y="599"/>
      <point x="561" y="491"/>
      <point x="561" y="344" type="curve"/>
      <point x="561" y="172"/>
      <point x="486" y="81"/>
      <point x="367" y="81" type="curve"/>
    </contour>
    <contour>
      <point x="521" y="848"/>
      <point x="495" y="875"/>
      <point x="461" y="875" type="curve"/>
      <point x="429" y="875"/>
      <point x="402" y="848"/>
      <point x="402" y="816" type="curve"/>
      <point x="402" y="782"/>
      <point x="429" y="757"/>
      <point x="461" y="757" type="curve"/>
      <point x="495" y="757"/>
      <point x="521" y="782"/>
      <point x="521" y="816" type="curve"/>
    </contour>
    <contour>
      <point x="338" y="848"/>
      <point x="313" y="875"/>
      <point x="279" y="875" type="curve"/>
      <point x="246" y="875"/>
      <point x="219" y="848"/>
      <point x="219" y="816" type="curve"/>
      <point x="219" y="782"/>
      <point x="246" y="757"/>
      <point x="279" y="757" type="curve"/>
      <point x="313" y="757"/>
      <point x="338" y="782"/>
      <point x="338" y="816" type="curve"/>
    </contour>
  </outline>
</glyph>
<glyph name="Thorn" format="1">
  <advance width="602"/>
  <unicode hex="00DE"/>
  <outline>
    <contour>
      <point x="89" y="0" type="line"/>
      <point x="201" y="0" type="line"/>
      <point x="201" y="129" type="line"/>
      <point x="283" y="129" type="line" smooth="yes"/>
      <point x="425" y="129"/>
      <point x="556" y="197"/>
      <point x="556" y="352" type="curve" smooth="yes"/>
      <point x="556" y="507"/>
      <point x="440" y="566"/>
      <point x="293" y="566" type="curve" smooth="yes"/>
      <point x="201" y="566" type="line"/>
      <point x="201" y="680" type="line"/>
      <point x="89" y="680" type="line"/>
    </contour>
    <contour>
      <point x="290" y="473" type="line" smooth="yes"/>
      <point x="382" y="473"/>
      <point x="437" y="441"/>
      <point x="437" y="346" type="curve"/>
      <point x="432" y="260"/>
      <point x="374" y="223"/>
      <point x="289" y="223" type="curve" smooth="yes"/>
      <point x="201" y="223" type="line"/>
      <point x="201" y="473" type="line"/>
    </contour>
  </outline>
</glyph>
<glyph name="aring" format="1">
  <advance width="512"/>
  <unicode hex="00E5"/>
  <outline>
    <contour>
      <point x="204" y="498"/>
      <point x="114" y="479"/>
      <point x="76" y="454" type="curve"/>
      <point x="86" y="423"/>
      <point x="96" y="393"/>
      <point x="107" y="362" type="curve"/>
      <point x="143" y="379"/>
      <point x="196" y="395"/>
      <point x="247" y="395" type="curve" smooth="yes"/>
      <point x="310" y="395"/>
      <point x="331" y="352"/>
      <point x="335" y="295" type="curve"/>
      <point x="230" y="295" type="line" smooth="yes"/>
      <point x="122" y="295"/>
      <point x="49" y="241"/>
      <point x="49" y="142" type="curve" smooth="yes"/>
      <point x="49" y="51"/>
      <point x="104" y="-12"/>
      <point x="221" y="-12" type="curve" smooth="yes"/>
      <point x="271" y="-12"/>
      <point x="325" y="14"/>
      <point x="360" y="43" type="curve"/>
      <point x="369" y="29"/>
      <point x="378" y="14"/>
      <point x="388" y="0" type="curve"/>
      <point x="449" y="0" type="line"/>
      <point x="449" y="324" type="line" smooth="yes"/>
      <point x="449" y="426"/>
      <point x="360" y="498"/>
      <point x="245" y="498" type="curve" smooth="yes"/>
    </contour>
    <contour>
      <point x="173" y="77"/>
      <point x="147" y="110"/>
      <point x="147" y="142" type="curve" smooth="yes"/>
      <point x="147" y="183"/>
      <point x="175" y="219"/>
      <point x="228" y="219" type="curve" smooth="yes"/>
      <point x="336" y="219" type="line"/>
      <point x="336" y="133" type="line"/>
      <point x="302" y="99"/>
      <point x="261" y="77"/>
      <point x="219" y="77" type="curve" smooth="yes"/>
    </contour>
    <contour>
      <point x="294" y="666"/>
      <point x="277" y="647"/>
      <point x="254" y="647" type="curve" smooth="yes"/>
      <point x="232" y="647"/>
      <point x="214" y="666"/>
      <point x="214" y="687" type="curve" smooth="yes"/>
      <point x="214" y="710"/>
      <point x="232" y="728"/>
      <point x="254" y="728" type="curve" smooth="yes"/>
      <point x="277" y="728"/>
      <point x="294" y="710"/>
      <point x="294" y="687" type="curve" smooth="yes"/>
    </contour>
    <contour>
      <point x="357" y="742"/>
      <point x="309" y="784"/>
      <point x="254" y="784" type="curve" smooth="yes"/>
      <point x="199" y="784"/>
      <point x="151" y="742"/>
      <point x="151" y="687" type="curve" smooth="yes"/>
      <point x="151" y="632"/>
      <point x="199" y="594"/>
      <point x="254" y="594" type="curve" smooth="yes"/>
      <point x="309" y="594"/>
      <point x="357" y="632"/>
      <point x="357" y="687" type="curve" smooth="yes"/>
    </contour>
  </outline>
</glyph>
<glyph name="igrave" format="1">
  <advance width="250"/>
  <unicode hex="00EC"/>
  <outline>
    <contour>
      <point x="67" y="0" type="line"/>
      <point x="181" y="0" type="line"/>
      <point x="181" y="485" type="line"/>
      <point x="67" y="485" type="line"/>
    </contour>
    <contour>
      <point x="3" y="750" type="line"/>
      <point x="95" y="589" type="line"/>
      <point x="180" y="589" type="line"/>
      <point x="122" y="750" type="line"/>
    </contour>
  </outline>
</glyph>
<glyph name="iacute" format="1">
  <advance width="250"/>
  <unicode hex="00ED"/>
  <outline>
    <contour>
      <point x="67" y="0" type="line"/>
      <point x="181" y="0" type="line"/>
      <point x="181" y="485" type="line"/>
      <point x="67" y="485" type="line"/>
    </contour>
    <contour>
      <point x="128" y="750" type="line"/>
      <point x="68" y="589" type="line"/>
      <point x="154" y="589" type="line"/>
      <point x="247" y="750" type="line"/>
    </contour>
  </outline>
</glyph>
<glyph name="eth" format="1">
  <advance width="554"/>
  <unicode hex="00F0"/>
  <outline>
    <contour>
      <point x="402" y="624" type="line"/>
      <point x="358" y="702" type="line"/>
      <point x="284" y="642" type="line"/>
      <point x="240" y="669"/>
      <point x="195" y="689"/>
      <point x="150" y="699" type="curve"/>
      <point x="100" y="624" type="line"/>
      <point x="135" y="616"/>
      <point x="171" y="601"/>
      <point x="204" y="581" type="curve"/>
      <point x="128" y="519" type="line"/>
      <point x="173" y="441" type="line"/>
      <point x="279" y="526" type="line"/>
      <point x="326" y="480"/>
      <point x="364" y="421"/>
      <point x="381" y="354" type="curve"/>
      <point x="346" y="380"/>
      <point x="299" y="402"/>
      <point x="253" y="402" type="curve"/>
      <point x="122" y="402"/>
      <point x="36" y="308"/>
      <point x="36" y="200" type="curve"/>
      <point x="36" y="89"/>
      <point x="122" y="-12"/>
      <point x="249" y="-12" type="curve"/>
      <point x="394" y="-12"/>
      <point x="498" y="81"/>
      <point x="498" y="263" type="curve"/>
      <point x="498" y="395"/>
      <point x="438" y="506"/>
      <point x="356" y="586" type="curve"/>
    </contour>
    <contour>
      <point x="183" y="80"/>
      <point x="140" y="136"/>
      <point x="140" y="195" type="curve"/>
      <point x="140" y="258"/>
      <point x="182" y="320"/>
      <point x="253" y="320" type="curve"/>
      <point x="322" y="320"/>
      <point x="373" y="275"/>
      <point x="393" y="231" type="curve"/>
      <point x="384" y="141"/>
      <point x="339" y="80"/>
      <point x="252" y="80" type="curve"/>
    </contour>
  </outline>
</glyph>
<glyph name="otilde" format="1">
  <advance width="574"/>
  <unicode hex="00F5"/>
  <outline>
    <contour>
      <point x="44" y="90"/>
      <point x="128" y="-12"/>
      <point x="278" y="-12" type="curve" smooth="yes"/>
      <point x="432" y="-12"/>
      <point x="529" y="87"/>
      <point x="529" y="239" type="curve" smooth="yes"/>
      <point x="529" y="393"/>
      <point x="444" y="498"/>
      <point x="287" y="498" type="curve" smooth="yes"/>
      <point x="134" y="498"/>
      <point x="45" y="396"/>
      <point x="44" y="244" type="curve"/>
    </contour>
    <contour>
      <point x="373" y="401"/>
      <point x="414" y="337"/>
      <point x="414" y="239" type="curve" smooth="yes"/>
      <point x="414" y="136"/>
      <point x="362" y="84"/>
      <point x="280" y="84" type="curve" smooth="yes"/>
      <point x="196" y="84"/>
      <point x="160" y="142"/>
      <point x="160" y="245" type="curve" smooth="yes"/>
      <point x="160" y="345"/>
      <point x="207" y="401"/>
      <point x="290" y="401" type="curve" smooth="yes"/>
    </contour>
    <contour>
      <point x="368" y="711" type="line"/>
      <point x="368" y="692"/>
      <point x="354" y="677"/>
      <point x="338" y="677" type="curve" smooth="yes"/>
      <point x="302" y="677"/>
      <point x="277" y="715"/>
      <point x="226" y="715" type="curve" smooth="yes"/>
      <point x="174" y="715"/>
      <point x="124" y="688"/>
      <point x="124" y="603" type="curve"/>
      <point x="202" y="603" type="line"/>
      <point x="202" y="619"/>
      <point x="215" y="637"/>
      <point x="231" y="637" type="curve" smooth="yes"/>
      <point x="268" y="637"/>
      <point x="291" y="598"/>
      <point x="339" y="598" type="curve" smooth="yes"/>
      <point x="393" y="598"/>
      <point x="441" y="626"/>
      <point x="441" y="711" type="curve"/>
    </contour>
  </outline>
</glyph>
<glyph name="odieresis" format="1">
  <advance width="574"/>
  <unicode hex="00F6"/>
  <outline>
    <contour>
      <point x="44" y="89"/>
      <point x="128" y="-11"/>
      <point x="279" y="-12" type="curve"/>
      <point x="432" y="-12"/>
      <point x="529" y="86"/>
      <point x="530" y="239" type="curve"/>
      <point x="530" y="393"/>
      <point x="444" y="498"/>
      <point x="287" y="498" type="curve"/>
      <point x="134" y="497"/>
      <point x="45" y="397"/>
      <point x="44" y="244" type="curve"/>
    </contour>
    <contour>
      <point x="374" y="401"/>
      <point x="414" y="337"/>
      <point x="414" y="239" type="curve"/>
      <point x="413" y="136"/>
      <point x="364" y="84"/>
      <point x="280" y="84" type="curve"/>
      <point x="196" y="84"/>
      <point x="161" y="143"/>
      <point x="161" y="245" type="curve"/>
      <point x="161" y="346"/>
      <point x="206" y="401"/>
      <point x="290" y="401" type="curve"/>
    </contour>
    <contour>
      <point x="438" y="698"/>
      <point x="412" y="725"/>
      <point x="378" y="725" type="curve"/>
      <point x="346" y="725"/>
      <point x="318" y="698"/>
      <point x="318" y="666" type="curve"/>
      <point x="318" y="632"/>
      <point x="346" y="607"/>
      <point x="378" y="607" type="curve"/>
      <point x="412" y="607"/>
      <point x="438" y="632"/>
      <point x="438" y="666" type="curve"/>
    </contour>
    <contour>
      <point x="254" y="698"/>
      <point x="229" y="725"/>
      <point x="196" y="725" type="curve"/>
      <point x="162" y="725"/>
      <point x="137" y="698"/>
      <point x="137" y="666" type="curve"/>
      <point x="137" y="632"/>
      <point x="162" y="607"/>
      <point x="196" y="607" type="curve"/>
      <point x="229" y="607"/>
      <point x="254" y="632"/>
      <point x="254" y="666" type="curve"/>
    </contour>
  </outline>
</glyph>
<glyph name="oslash" format="1">
  <advance width="574"/>
  <unicode hex="00F8"/>
  <outline>
    <contour>
      <point x="44" y="89"/>
      <point x="128" y="-11"/>
      <point x="279" y="-12" type="curve"/>
      <point x="432" y="-12"/>
      <point x="529" y="86"/>
      <point x="530" y="239" type="curve"/>
      <point x="530" y="393"/>
      <point x="444" y="498"/>
      <point x="287" y="498" type="curve"/>
      <point x="134" y="497"/>
      <point x="45" y="397"/>
      <point x="44" y="244" type="curve"/>
    </contour>
    <contour>
      <point x="413" y="136"/>
      <point x="364" y="84"/>
      <point x="280" y="84" type="curve"/>
      <point x="273" y="84"/>
      <point x="265" y="84"/>
      <point x="260" y="86" type="curve"/>
      <point x="396" y="331" type="line"/>
      <point x="407" y="307"/>
      <point x="414" y="274"/>
      <point x="414" y="239" type="curve"/>
    </contour>
    <contour>
      <point x="297" y="401"/>
      <point x="310" y="400"/>
      <point x="314" y="397" type="curve"/>
      <point x="178" y="150" type="line"/>
      <point x="166" y="175"/>
      <point x="161" y="207"/>
      <point x="161" y="245" type="curve"/>
      <point x="161" y="346"/>
      <point x="206" y="401"/>
      <point x="290" y="401" type="curve"/>
    </contour>
  </outline>
</glyph>
<glyph name="udieresis" format="1">
  <advance width="564"/>
  <unicode hex="00FC"/>
  <outline>
    <contour>
      <point x="290" y="-18"/>
      <point x="358" y="9"/>
      <point x="402" y="50" type="curve"/>
      <point x="434" y="0" type="line"/>
      <point x="496" y="0" type="line"/>
      <point x="496" y="485" type="line"/>
      <point x="383" y="485" type="line"/>
      <point x="383" y="127" type="line"/>
      <point x="347" y="99"/>
      <point x="301" y="78"/>
      <point x="266" y="78" type="curve"/>
      <point x="206" y="78"/>
      <point x="176" y="117"/>
      <point x="176" y="179" type="curve"/>
      <point x="176" y="485" type="line"/>
      <point x="62" y="485" type="line"/>
      <point x="62" y="172" type="line"/>
      <point x="62" y="65"/>
      <point x="112" y="-18"/>
      <point x="238" y="-18" type="curve"/>
    </contour>
    <contour>
      <point x="434" y="698"/>
      <point x="409" y="725"/>
      <point x="375" y="725" type="curve"/>
      <point x="343" y="725"/>
      <point x="316" y="698"/>
      <point x="316" y="666" type="curve"/>
      <point x="316" y="632"/>
      <point x="343" y="607"/>
      <point x="375" y="607" type="curve"/>
      <point x="409" y="607"/>
      <point x="434" y="632"/>
      <point x="434" y="666" type="curve"/>
    </contour>
    <contour>
      <point x="251" y="698"/>
      <point x="226" y="725"/>
      <point x="193" y="725" type="curve"/>
      <point x="160" y="725"/>
      <point x="132" y="698"/>
      <point x="132" y="666" type="curve"/>
      <point x="132" y="632"/>
      <point x="160" y="607"/>
      <point x="193" y="607" type="curve"/>
      <point x="226" y="607"/>
      <point x="251" y="632"/>
      <point x="251" y="666" type="curve"/>
    </contour>
  </outline>
</glyph>
<glyph name="yacute" format="1">
  <advance width="492"/>
  <unicode hex="00FD"/>
  <outline>
    <contour>
      <point x="162" y="-42" type="line"/>
      <point x="145" y="-88"/>
      <point x="91" y="-110"/>
      <point x="43" y="-131" type="curve"/>
      <point x="82" y="-221" type="line"/>
      <point x="162" y="-203"/>
      <point x="239" y="-149"/>
      <point x="267" y="-76" type="curve"/>
      <point x="307" y="29" type="line"/>
      <point x="483" y="485" type="line"/>
      <point x="366" y="485" type="line"/>
      <point x="249" y="164" type="line"/>
      <point x="125" y="485" type="line"/>
      <point x="10" y="469" type="line"/>
      <point x="187" y="24" type="line"/>
    </contour>
    <contour>
      <point x="238" y="750" type="line"/>
      <point x="178" y="589" type="line"/>
      <point x="264" y="589" type="line"/>
      <point x="357" y="750" type="line"/>
    </contour>
  </outline>
</glyph>
<glyph name="thorn" format="1">
  <advance width="571"/>
  <unicode hex="00FE"/>
  <outline>
    <contour>
      <point x="72" y="-219" type="line"/>
      <point x="185" y="-208" type="line"/>
      <point x="185" y="26" type="line"/>
      <point x="224" y="2"/>
      <point x="271" y="-12"/>
      <point x="308" y="-12" type="curve" smooth="yes"/>
      <point x="449" y="-12"/>
      <point x="526" y="97"/>
      <point x="526" y="245" type="curve" smooth="yes"/>
      <point x="526" y="392"/>
      <point x="452" y="502"/>
      <point x="308" y="502" type="curve" smooth="yes"/>
      <point x="271" y="502"/>
      <point x="224" y="487"/>
      <point x="185" y="463" type="curve"/>
      <point x="185" y="706" type="line"/>
      <point x="72" y="695" type="line"/>
    </contour>
    <contour>
      <point x="251" y="84"/>
      <point x="215" y="98"/>
      <point x="185" y="119" type="curve"/>
      <point x="185" y="370" type="line"/>
      <point x="215" y="392"/>
      <point x="251" y="406"/>
      <point x="282" y="406" type="curve" smooth="yes"/>
      <point x="383" y="406"/>
      <point x="410" y="332"/>
      <point x="410" y="244" type="curve" smooth="yes"/>
      <point x="410" y="165"/>
      <point x="377" y="84"/>
      <point x="282" y="84" type="curve" smooth="yes"/>
    </contour>
  </outline>
</glyph>
<glyph name="ydieresis" format="1">
  <advance width="492"/>
  <unicode hex="00FF"/>
  <outline>
    <contour>
      <point x="162" y="-42" type="line"/>
      <point x="145" y="-88"/>
      <point x="91" y="-110"/>
      <point x="43" y="-131" type="curve"/>
      <point x="82" y="-221" type="line"/>
      <point x="162" y="-203"/>
      <point x="239" y="-149"/>
      <point x="267" y="-76" type="curve"/>
      <point x="307" y="29" type="line"/>
      <point x="483" y="485" type="line"/>
      <point x="366" y="485" type="line"/>
      <point x="249" y="164" type="line"/>
      <point x="125" y="485" type="line"/>
      <point x="10" y="469" type="line"/>
      <point x="187" y="24" type="line"/>
    </contour>
    <contour>
      <point x="217" y="698"/>
      <point x="191" y="725"/>
      <point x="158" y="725" type="curve"/>
      <point x="125" y="725"/>
      <point x="98" y="698"/>
      <point x="98" y="666" type="curve"/>
      <point x="98" y="632"/>
      <point x="125" y="607"/>
      <point x="158" y="607" type="curve"/>
      <point x="191" y="607"/>
      <point x="217" y="632"/>
      <point x="217" y="666" type="curve"/>
    </contour>
    <contour>
      <point x="400" y="698"/>
      <point x="375" y="725"/>
      <point x="342" y="725" type="curve"/>
      <point x="308" y="725"/>
      <point x="281" y="698"/>
      <point x="281" y="666" type="curve"/>
      <point x="281" y="632"/>
      <point x="308" y="607"/>
      <point x="342" y="607" type="curve"/>
      <point x="375" y="607"/>
      <point x="400" y="632"/>
      <point x="400" y="666" type="curve"/>
    </contour>
  </outline>
</glyph>
<glyph name="Amacron" format="1">
  <advance width="634"/>
  <unicode hex="0100"/>
  <outline>
    <contour>
      <point x="365" y="680" type="line"/>
      <point x="266" y="680" type="line"/>
      <point x="6" y="0" type="line"/>
      <point x="118" y="0" type="line"/>
      <point x="182" y="171" type="line"/>
      <point x="450" y="171" type="line"/>
      <point x="515" y="0" type="line"/>
      <point x="628" y="16" type="line"/>
    </contour>
    <contour>
      <point x="314" y="526" type="line"/>
      <point x="415" y="262" type="line"/>
      <point x="215" y="262" type="line"/>
    </contour>
    <contour>
      <point x="182" y="859" type="line"/>
      <point x="182" y="770" type="line"/>
      <point x="439" y="770" type="line"/>
      <point x="439" y="859" type="line"/>
    </contour>
  </outline>
</glyph>
<glyph name="Aogonek" format="1">
  <advance width="634"/>
  <unicode hex="0104"/>
  <outline>
    <contour>
      <point x="365" y="680" type="line"/>
      <point x="266" y="680" type="line"/>
      <point x="180" y="453"/>
      <point x="92" y="227"/>
      <point x="6" y="0" type="curve"/>
      <point x="118" y="0" type="line"/>
      <point x="139" y="56"/>
      <point x="160" y="114"/>
      <point x="182" y="171" type="curve"/>
      <point x="449" y="171" type="line"/>
      <point x="471" y="115"/>
      <point x="492" y="60"/>
      <point x="513" y="4" type="curve"/>
      <point x="491" y="-17"/>
      <point x="471" y="-66"/>
      <point x="471" y="-98" type="curve" smooth="yes"/>
      <point x="471" y="-159"/>
      <point x="516" y="-207"/>
      <point x="584" y="-207" type="curve" smooth="yes"/>
      <point x="621" y="-207"/>
      <point x="652" y="-197"/>
      <point x="680" y="-174" type="curve"/>
      <point x="647" y="-105" type="line"/>
      <point x="632" y="-117"/>
      <point x="614" y="-123"/>
      <point x="602" y="-123" type="curve" smooth="yes"/>
      <point x="579" y="-123"/>
      <point x="566" y="-110"/>
      <point x="566" y="-89" type="curve" smooth="yes"/>
      <point x="566" y="-59"/>
      <point x="606" y="-3"/>
      <point x="628" y="16" type="curve"/>
    </contour>
    <contour>
      <point x="415" y="262" type="line"/>
      <point x="214" y="262" type="line"/>
      <point x="248" y="350"/>
      <point x="280" y="438"/>
      <point x="313" y="526" type="curve"/>
    </contour>
  </outline>
</glyph>
<glyph name="cacute" format="1">
  <advance width="480"/>
  <unicode hex="0107"/>
  <outline>
    <contour>
      <point x="161" y="334"/>
      <point x="205" y="402"/>
      <point x="287" y="402" type="curve"/>
      <point x="339" y="402"/>
      <point x="368" y="388"/>
      <point x="412" y="368" type="curve"/>
      <point x="445" y="449" type="line"/>
      <point x="399" y="481"/>
      <point x="327" y="498"/>
      <point x="287" y="498" type="curve"/>
      <point x="133" y="498"/>
      <point x="45" y="396"/>
      <point x="44" y="243" type="curve"/>
      <point x="44" y="89"/>
      <point x="131" y="-12"/>
      <point x="285" y="-12" type="curve"/>
      <point x="326" y="-12"/>
      <point x="400" y="3"/>
      <point x="443" y="35" type="curve"/>
      <point x="411" y="117" type="line"/>
      <point x="367" y="96"/>
      <point x="338" y="84"/>
      <point x="286" y="84" type="curve"/>
      <point x="203" y="84"/>
      <point x="161" y="150"/>
      <point x="161" y="243" type="curve"/>
    </contour>
    <contour>
      <point x="275" y="750" type="line"/>
      <point x="215" y="589" type="line"/>
      <point x="300" y="589" type="line"/>
      <point x="393" y="750" type="line"/>
    </contour>
  </outline>
</glyph>
<glyph name="Ccaron" format="1">
  <advance width="595"/>
  <unicode hex="010C"/>
  <outline>
    <contour>
      <point x="426" y="599"/>
      <point x="453" y="588"/>
      <point x="508" y="570" type="curve"/>
      <point x="543" y="652" type="line"/>
      <point x="489" y="682"/>
      <point x="407" y="694"/>
      <point x="366" y="694" type="curve"/>
      <point x="167" y="694"/>
      <point x="61" y="544"/>
      <point x="61" y="337" type="curve"/>
      <point x="61" y="142"/>
      <point x="149" y="-14"/>
      <point x="361" y="-14" type="curve"/>
      <point x="417" y="-14"/>
      <point x="499" y="3"/>
      <point x="547" y="28" type="curve"/>
      <point x="505" y="112" type="line"/>
      <point x="465" y="95"/>
      <point x="417" y="81"/>
      <point x="355" y="81" type="curve"/>
      <point x="229" y="81"/>
      <point x="179" y="198"/>
      <point x="179" y="338" type="curve"/>
      <point x="179" y="497"/>
      <point x="247" y="598"/>
      <point x="364" y="599" type="curve"/>
    </contour>
    <contour>
      <point x="189" y="900" type="line"/>
      <point x="329" y="739" type="line"/>
      <point x="397" y="739" type="line"/>
      <point x="538" y="900" type="line"/>
      <point x="433" y="900" type="line"/>
      <point x="365" y="824" type="line"/>
      <point x="296" y="900" type="line"/>
    </contour>
  </outline>
</glyph>
<glyph name="dcaron" format="1">
  <advance width="741"/>
  <unicode hex="010F"/>
  <outline>
    <contour>
      <point x="507" y="706" type="line"/>
      <point x="393" y="695" type="line"/>
      <point x="393" y="462" type="line"/>
      <point x="354" y="487"/>
      <point x="304" y="502"/>
      <point x="266" y="502" type="curve"/>
      <point x="125" y="502"/>
      <point x="44" y="393"/>
      <point x="44" y="245" type="curve"/>
      <point x="44" y="97"/>
      <point x="119" y="-12"/>
      <point x="261" y="-12" type="curve"/>
      <point x="309" y="-12"/>
      <point x="372" y="9"/>
      <point x="415" y="46" type="curve"/>
      <point x="446" y="0" type="line"/>
      <point x="507" y="0" type="line"/>
    </contour>
    <contour>
      <point x="161" y="325"/>
      <point x="193" y="406"/>
      <point x="289" y="406" type="curve"/>
      <point x="322" y="406"/>
      <point x="361" y="390"/>
      <point x="393" y="365" type="curve"/>
      <point x="393" y="125" type="line"/>
      <point x="361" y="101"/>
      <point x="322" y="84"/>
      <point x="289" y="84" type="curve"/>
      <point x="188" y="84"/>
      <point x="161" y="158"/>
      <point x="161" y="245" type="curve"/>
    </contour>
    <contour>
      <point x="732" y="700"/>
      <point x="701" y="732"/>
      <point x="664" y="732" type="curve"/>
      <point x="626" y="732"/>
      <point x="596" y="697"/>
      <point x="596" y="664" type="curve"/>
      <point x="596" y="631"/>
      <point x="624" y="600"/>
      <point x="650" y="599" type="curve"/>
      <point x="642" y="558"/>
      <point x="619" y="537"/>
      <point x="584" y="510" type="curve"/>
      <point x="609" y="457" type="line"/>
      <point x="681" y="495"/>
      <point x="732" y="580"/>
      <point x="732" y="651" type="curve"/>
    </contour>
  </outline>
</glyph>
<glyph name="Dcroat" format="1">
  <advance width="707"/>
  <unicode hex="0110"/>
  <outline>
    <contour>
      <point x="95" y="0" type="line"/>
      <point x="335" y="0" type="line"/>
      <point x="535" y="2"/>
      <point x="645" y="137"/>
      <point x="645" y="344" type="curve" smooth="yes"/>
      <point x="645" y="538"/>
      <point x="549" y="680"/>
      <point x="337" y="680" type="curve" smooth="yes"/>
      <point x="95" y="680" type="line"/>
      <point x="95" y="383" type="line"/>
      <point x="18" y="383" type="line"/>
      <point x="29" y="295" type="line"/>
      <point x="95" y="295" type="line"/>
    </contour>
    <contour>
      <point x="290" y="295" type="line"/>
      <point x="281" y="383" type="line"/>
      <point x="209" y="383" type="line"/>
      <point x="209" y="584" type="line"/>
      <point x="341" y="584" type="line" smooth="yes"/>
      <point x="471" y="584"/>
      <point x="529" y="490"/>
      <point x="529" y="343" type="curve" smooth="yes"/>
      <point x="529" y="172"/>
      <point x="452" y="94"/>
      <point x="334" y="94" type="curve" smooth="yes"/>
      <point x="209" y="94" type="line"/>
      <point x="209" y="295" type="line"/>
    </contour>
  </outline>
</glyph>
<glyph name="dcroat" format="1">
  <advance width="579"/>
  <unicode hex="0111"/>
  <outline>
    <contour>
      <point x="563" y="550" type="line"/>
      <point x="553" y="633" type="line"/>
      <point x="507" y="633" type="line"/>
      <point x="507" y="706" type="line"/>
      <point x="393" y="695" type="line"/>
      <point x="393" y="633" type="line"/>
      <point x="295" y="633" type="line"/>
      <point x="305" y="550" type="line"/>
      <point x="393" y="550" type="line"/>
      <point x="393" y="462" type="line"/>
      <point x="354" y="487"/>
      <point x="304" y="502"/>
      <point x="266" y="502" type="curve"/>
      <point x="125" y="502"/>
      <point x="44" y="393"/>
      <point x="44" y="245" type="curve"/>
      <point x="44" y="97"/>
      <point x="119" y="-12"/>
      <point x="261" y="-12" type="curve"/>
      <point x="309" y="-12"/>
      <point x="372" y="9"/>
      <point x="415" y="46" type="curve"/>
      <point x="446" y="0" type="line"/>
      <point x="507" y="0" type="line"/>
      <point x="507" y="550" type="line"/>
    </contour>
    <contour>
      <point x="161" y="325"/>
      <point x="193" y="406"/>
      <point x="289" y="406" type="curve"/>
      <point x="322" y="406"/>
      <point x="361" y="390"/>
      <point x="393" y="365" type="curve"/>
      <point x="393" y="125" type="line"/>
      <point x="361" y="101"/>
      <point x="322" y="84"/>
      <point x="289" y="84" type="curve"/>
      <point x="188" y="84"/>
      <point x="161" y="158"/>
      <point x="161" y="245" type="curve"/>
    </contour>
  </outline>
</glyph>
<glyph name="Edotaccent" format="1">
  <advance width="566"/>
  <unicode hex="0116"/>
  <outline>
    <contour>
      <point x="89" y="0" type="line"/>
      <point x="543" y="0" type="line"/>
      <point x="537" y="29"/>
      <point x="531" y="58"/>
      <point x="526" y="88" type="curve"/>
      <point x="201" y="88" type="line"/>
      <point x="201" y="300" type="line"/>
      <point x="405" y="300" type="line"/>
      <point x="399" y="329"/>
      <point x="393" y="359"/>
      <point x="388" y="389" type="curve"/>
      <point x="201" y="389" type="line"/>
      <point x="201" y="592" type="line"/>
      <point x="500" y="592" type="line"/>
      <point x="483" y="680" type="line"/>
      <point x="89" y="680" type="line"/>
    </contour>
    <contour>
      <point x="356" y="854"/>
      <point x="328" y="884"/>
      <point x="290" y="884" type="curve" smooth="yes"/>
      <point x="252" y="884"/>
      <point x="222" y="854"/>
      <point x="222" y="816" type="curve" smooth="yes"/>
      <point x="222" y="778"/>
      <point x="252" y="750"/>
      <point x="290" y="750" type="curve" smooth="yes"/>
      <point x="328" y="750"/>
      <point x="356" y="778"/>
      <point x="356" y="816" type="curve" smooth="yes"/>
    </contour>
  </outline>
</glyph>
<glyph name="Eogonek" format="1">
  <advance width="566"/>
  <unicode hex="0118"/>
  <outline>
    <contour>
      <point x="89" y="0" type="line"/>
      <point x="372" y="0" type="line"/>
      <point x="352" y="-23"/>
      <point x="334" y="-68"/>
      <point x="334" y="-98" type="curve" smooth="yes"/>
      <point x="334" y="-159"/>
      <point x="379" y="-207"/>
      <point x="447" y="-207" type="curve" smooth="yes"/>
      <point x="484" y="-207"/>
      <point x="515" y="-197"/>
      <point x="543" y="-174" type="curve"/>
      <point x="533" y="-151"/>
      <point x="521" y="-128"/>
      <point x="510" y="-105" type="curve"/>
      <point x="495" y="-117"/>
      <point x="477" y="-123"/>
      <point x="466" y="-123" type="curve" smooth="yes"/>
      <point x="443" y="-123"/>
      <point x="429" y="-110"/>
      <point x="429" y="-89" type="curve" smooth="yes"/>
      <point x="429" y="-61"/>
      <point x="453" y="-21"/>
      <point x="475" y="0" type="curve"/>
      <point x="543" y="0" type="line"/>
      <point x="537" y="29"/>
      <point x="531" y="58"/>
      <point x="526" y="88" type="curve"/>
      <point x="201" y="88" type="line"/>
      <point x="201" y="300" type="line"/>
      <point x="405" y="300" type="line"/>
      <point x="399" y="329"/>
      <point x="393" y="359"/>
      <point x="388" y="389" type="curve"/>
      <point x="201" y="389" type="line"/>
      <point x="201" y="592" type="line"/>
      <point x="500" y="592" type="line"/>
      <point x="483" y="680" type="line"/>
      <point x="89" y="680" type="line"/>
    </contour>
  </outline>
</glyph>
<glyph name="eogonek" format="1">
  <advance width="539"/>
  <unicode hex="0119"/>
  <outline>
    <contour>
      <point x="499" y="212" type="line"/>
      <point x="499" y="364"/>
      <point x="451" y="498"/>
      <point x="282" y="498" type="curve" smooth="yes"/>
      <point x="134" y="498"/>
      <point x="44" y="396"/>
      <point x="44" y="242" type="curve" smooth="yes"/>
      <point x="44" y="95"/>
      <point x="129" y="-1"/>
      <point x="282" y="-10" type="curve"/>
      <point x="265" y="-35"/>
      <point x="253" y="-72"/>
      <point x="253" y="-98" type="curve" smooth="yes"/>
      <point x="253" y="-159"/>
      <point x="299" y="-207"/>
      <point x="366" y="-207" type="curve" smooth="yes"/>
      <point x="403" y="-207"/>
      <point x="434" y="-197"/>
      <point x="462" y="-174" type="curve"/>
      <point x="429" y="-105" type="line"/>
      <point x="414" y="-117"/>
      <point x="397" y="-123"/>
      <point x="385" y="-123" type="curve" smooth="yes"/>
      <point x="361" y="-123"/>
      <point x="349" y="-110"/>
      <point x="349" y="-89" type="curve" smooth="yes"/>
      <point x="349" y="-60"/>
      <point x="373" y="-19"/>
      <point x="396" y="1" type="curve"/>
      <point x="422" y="9"/>
      <point x="448" y="20"/>
      <point x="468" y="34" type="curve"/>
      <point x="457" y="61"/>
      <point x="446" y="89"/>
      <point x="434" y="116" type="curve"/>
      <point x="391" y="96"/>
      <point x="359" y="83"/>
      <point x="308" y="83" type="curve" smooth="yes"/>
      <point x="220" y="83"/>
      <point x="173" y="135"/>
      <point x="163" y="212" type="curve"/>
    </contour>
    <contour>
      <point x="342" y="401"/>
      <point x="378" y="361"/>
      <point x="391" y="288" type="curve"/>
      <point x="165" y="288" type="line"/>
      <point x="175" y="359"/>
      <point x="215" y="401"/>
      <point x="279" y="401" type="curve" smooth="yes"/>
    </contour>
  </outline>
</glyph>
<glyph name="Ecaron" format="1">
  <advance width="566"/>
  <unicode hex="011A"/>
  <outline>
    <contour>
      <point x="89" y="0" type="line"/>
      <point x="543" y="0" type="line"/>
      <point x="537" y="29"/>
      <point x="531" y="58"/>
      <point x="526" y="88" type="curve"/>
      <point x="201" y="88" type="line"/>
      <point x="201" y="300" type="line"/>
      <point x="405" y="300" type="line"/>
      <point x="399" y="329"/>
      <point x="393" y="359"/>
      <point x="388" y="389" type="curve"/>
      <point x="201" y="389" type="line"/>
      <point x="201" y="592" type="line"/>
      <point x="500" y="592" type="line"/>
      <point x="483" y="680" type="line"/>
      <point x="89" y="680" type="line"/>
    </contour>
    <contour>
      <point x="113" y="900" type="line"/>
      <point x="253" y="739" type="line"/>
      <point x="322" y="739" type="line"/>
      <point x="462" y="900" type="line"/>
      <point x="357" y="900" type="line"/>
      <point x="335" y="874"/>
      <point x="312" y="850"/>
      <point x="289" y="824" type="curve"/>
      <point x="267" y="850"/>
      <point x="243" y="874"/>
      <point x="220" y="900" type="curve"/>
    </contour>
  </outline>
</glyph>
<glyph name="ecaron" format="1">
  <advance width="539"/>
  <unicode hex="011B"/>
  <outline>
    <contour>
      <point x="499" y="212" type="line"/>
      <point x="499" y="364"/>
      <point x="449" y="498"/>
      <point x="282" y="498" type="curve" smooth="yes"/>
      <point x="134" y="498"/>
      <point x="44" y="396"/>
      <point x="44" y="242" type="curve" smooth="yes"/>
      <point x="44" y="88"/>
      <point x="140" y="-12"/>
      <point x="306" y="-12" type="curve" smooth="yes"/>
      <point x="348" y="-12"/>
      <point x="424" y="2"/>
      <point x="468" y="34" type="curve"/>
      <point x="457" y="61"/>
      <point x="446" y="89"/>
      <point x="434" y="116" type="curve"/>
      <point x="391" y="96"/>
      <point x="359" y="83"/>
      <point x="308" y="83" type="curve" smooth="yes"/>
      <point x="220" y="83"/>
      <point x="173" y="135"/>
      <point x="163" y="212" type="curve"/>
    </contour>
    <contour>
      <point x="342" y="401"/>
      <point x="378" y="361"/>
      <point x="391" y="288" type="curve"/>
      <point x="165" y="288" type="line"/>
      <point x="175" y="359"/>
      <point x="215" y="401"/>
      <point x="279" y="401" type="curve" smooth="yes"/>
    </contour>
    <contour>
      <point x="108" y="750" type="line"/>
      <point x="249" y="589" type="line"/>
      <point x="316" y="589" type="line"/>
      <point x="457" y="750" type="line"/>
      <point x="353" y="750" type="line"/>
      <point x="285" y="674" type="line"/>
      <point x="262" y="700"/>
      <point x="239" y="724"/>
      <point x="215" y="750" type="curve"/>
    </contour>
  </outline>
</glyph>
<glyph name="gbreve" format="1">
  <advance width="579"/>
  <unicode hex="011F"/>
  <outline>
    <contour>
      <point x="434" y="-209"/>
      <point x="507" y="-125"/>
      <point x="507" y="-12" type="curve" smooth="yes"/>
      <point x="507" y="485" type="line"/>
      <point x="446" y="485" type="line"/>
      <point x="419" y="443" type="line"/>
      <point x="377" y="479"/>
      <point x="313" y="502"/>
      <point x="266" y="502" type="curve" smooth="yes"/>
      <point x="124" y="502"/>
      <point x="44" y="393"/>
      <point x="44" y="244" type="curve" smooth="yes"/>
      <point x="44" y="97"/>
      <point x="119" y="-12"/>
      <point x="261" y="-12" type="curve" smooth="yes"/>
      <point x="302" y="-12"/>
      <point x="353" y="4"/>
      <point x="393" y="30" type="curve"/>
      <point x="393" y="-11" type="line" smooth="yes"/>
      <point x="393" y="-79"/>
      <point x="348" y="-118"/>
      <point x="269" y="-118" type="curve" smooth="yes"/>
      <point x="215" y="-118"/>
      <point x="180" y="-102"/>
      <point x="126" y="-77" type="curve"/>
      <point x="115" y="-104"/>
      <point x="104" y="-131"/>
      <point x="92" y="-158" type="curve"/>
      <point x="141" y="-191"/>
      <point x="231" y="-209"/>
      <point x="272" y="-209" type="curve" smooth="yes"/>
    </contour>
    <contour>
      <point x="322" y="406"/>
      <point x="360" y="389"/>
      <point x="393" y="365" type="curve"/>
      <point x="393" y="125" type="line"/>
      <point x="360" y="101"/>
      <point x="322" y="84"/>
      <point x="289" y="84" type="curve" smooth="yes"/>
      <point x="188" y="84"/>
      <point x="160" y="157"/>
      <point x="160" y="245" type="curve" smooth="yes"/>
      <point x="160" y="325"/>
      <point x="193" y="406"/>
      <point x="289" y="406" type="curve" smooth="yes"/>
    </contour>
    <contour>
      <point x="383" y="594"/>
      <point x="427" y="667"/>
      <point x="427" y="747" type="curve"/>
      <point x="349" y="747" type="line"/>
      <point x="349" y="712"/>
      <point x="330" y="673"/>
      <point x="284" y="673" type="curve" smooth="yes"/>
      <point x="237" y="673"/>
      <point x="219" y="712"/>
      <point x="219" y="747" type="curve"/>
      <point x="141" y="747" type="line"/>
      <point x="141" y="667"/>
      <point x="185" y="594"/>
      <point x="284" y="592" type="curve"/>
    </contour>
  </outline>
</glyph>
<glyph name="Gcedilla" format="1">
  <advance width="656"/>
  <unicode hex="0122"/>
  <outline>
    <contour>
      <point x="346" y="364" type="line"/>
      <point x="337" y="278" type="line"/>
      <point x="482" y="278" type="line"/>
      <point x="482" y="95" type="line"/>
      <point x="456" y="88"/>
      <point x="422" y="81"/>
      <point x="377" y="81" type="curve" smooth="yes"/>
      <point x="249" y="81"/>
      <point x="178" y="179"/>
      <point x="178" y="337" type="curve" smooth="yes"/>
      <point x="178" y="510"/>
      <point x="269" y="598"/>
      <point x="395" y="598" type="curve" smooth="yes"/>
      <point x="457" y="598"/>
      <point x="484" y="588"/>
      <point x="539" y="570" type="curve"/>
      <point x="574" y="651" type="line"/>
      <point x="520" y="682"/>
      <point x="434" y="694"/>
      <point x="393" y="694" type="curve" smooth="yes"/>
      <point x="189" y="694"/>
      <point x="61" y="546"/>
      <point x="61" y="336" type="curve" smooth="yes"/>
      <point x="61" y="154"/>
      <point x="153" y="8"/>
      <point x="334" y="-11" type="curve"/>
      <point x="309" y="-76" type="line"/>
      <point x="361" y="-82"/>
      <point x="396" y="-101"/>
      <point x="396" y="-123" type="curve" smooth="yes"/>
      <point x="396" y="-140"/>
      <point x="375" y="-146"/>
      <point x="357" y="-146" type="curve" smooth="yes"/>
      <point x="340" y="-146"/>
      <point x="310" y="-136"/>
      <point x="293" y="-127" type="curve"/>
      <point x="284" y="-150"/>
      <point x="276" y="-173"/>
      <point x="267" y="-195" type="curve"/>
      <point x="289" y="-210"/>
      <point x="331" y="-221"/>
      <point x="357" y="-221" type="curve" smooth="yes"/>
      <point x="420" y="-221"/>
      <point x="479" y="-190"/>
      <point x="479" y="-121" type="curve" smooth="yes"/>
      <point x="479" y="-86"/>
      <point x="449" y="-48"/>
      <point x="408" y="-35" type="curve"/>
      <point x="417" y="-11" type="line"/>
      <point x="480" y="-6"/>
      <point x="544" y="11"/>
      <point x="585" y="34" type="curve"/>
      <point x="584" y="35" type="line"/>
      <point x="584" y="49"/>
      <point x="585" y="62"/>
      <point x="585" y="77" type="curve" smooth="yes"/>
      <point x="585" y="364" type="line"/>
    </contour>
  </outline>
</glyph>
<glyph name="Imacron" format="1">
  <advance width="291"/>
  <unicode hex="012A"/>
  <outline>
    <contour>
      <point x="89" y="0" type="line"/>
      <point x="201" y="0" type="line"/>
      <point x="201" y="680" type="line"/>
      <point x="89" y="680" type="line"/>
    </contour>
    <contour>
      <point x="14" y="859" type="line"/>
      <point x="14" y="769" type="line"/>
      <point x="271" y="769" type="line"/>
      <point x="271" y="859" type="line"/>
    </contour>
  </outline>
</glyph>
<glyph name="dotlessi" format="1">
  <advance width="250"/>
  <unicode hex="0131"/>
  <outline>
    <contour>
      <point x="67" y="0" type="line"/>
      <point x="181" y="0" type="line"/>
      <point x="181" y="485" type="line"/>
      <point x="67" y="485" type="line"/>
    </contour>
  </outline>
</glyph>
<glyph name="Kcedilla" format="1">
  <advance width="626"/>
  <unicode hex="0136"/>
  <outline>
    <contour>
      <point x="484" y="0" type="line"/>
      <point x="623" y="0" type="line"/>
      <point x="333" y="388" type="line"/>
      <point x="542" y="630" type="line"/>
      <point x="460" y="695" type="line"/>
      <point x="192" y="380" type="line"/>
      <point x="192" y="680" type="line"/>
      <point x="79" y="680" type="line"/>
      <point x="79" y="0" type="line"/>
      <point x="192" y="0" type="line"/>
      <point x="192" y="224" type="line"/>
      <point x="259" y="302" type="line"/>
    </contour>
    <contour>
      <point x="393" y="-53"/>
      <point x="362" y="-21"/>
      <point x="326" y="-21" type="curve" smooth="yes"/>
      <point x="288" y="-21"/>
      <point x="258" y="-54"/>
      <point x="258" y="-88" type="curve" smooth="yes"/>
      <point x="258" y="-122"/>
      <point x="286" y="-153"/>
      <point x="311" y="-154" type="curve"/>
      <point x="303" y="-184"/>
      <point x="278" y="-205"/>
      <point x="257" y="-216" type="curve"/>
      <point x="266" y="-233"/>
      <point x="274" y="-251"/>
      <point x="283" y="-269" type="curve"/>
      <point x="343" y="-239"/>
      <point x="393" y="-173"/>
      <point x="393" y="-102" type="curve" smooth="yes"/>
    </contour>
  </outline>
</glyph>
<glyph name="lacute" format="1">
  <advance width="257"/>
  <unicode hex="013A"/>
  <outline>
    <contour>
      <point x="72" y="0" type="line"/>
      <point x="185" y="0" type="line"/>
      <point x="185" y="685" type="line"/>
      <point x="72" y="673" type="line"/>
    </contour>
    <contour>
      <point x="138" y="835" type="line"/>
      <point x="120" y="793"/>
      <point x="101" y="753"/>
      <point x="83" y="712" type="curve"/>
      <point x="169" y="712" type="line"/>
      <point x="198" y="753"/>
      <point x="228" y="793"/>
      <point x="258" y="835" type="curve"/>
    </contour>
  </outline>
</glyph>
<glyph name="lcedilla" format="1">
  <advance width="257"/>
  <unicode hex="013C"/>
  <outline>
    <contour>
      <point x="72" y="0" type="line"/>
      <point x="185" y="0" type="line"/>
      <point x="185" y="706" type="line"/>
      <point x="72" y="695" type="line"/>
    </contour>
    <contour>
      <point x="200" y="-53"/>
      <point x="170" y="-21"/>
      <point x="133" y="-21" type="curve" smooth="yes"/>
      <point x="95" y="-21"/>
      <point x="65" y="-56"/>
      <point x="65" y="-88" type="curve" smooth="yes"/>
      <point x="65" y="-122"/>
      <point x="93" y="-153"/>
      <point x="118" y="-154" type="curve"/>
      <point x="110" y="-184"/>
      <point x="86" y="-205"/>
      <point x="64" y="-216" type="curve"/>
      <point x="73" y="-233"/>
      <point x="82" y="-251"/>
      <point x="90" y="-269" type="curve"/>
      <point x="150" y="-239"/>
      <point x="200" y="-173"/>
      <point x="200" y="-102" type="curve" smooth="yes"/>
    </contour>
  </outline>
</glyph>
<glyph name="lslash" format="1">
  <advance width="257"/>
  <unicode hex="0142"/>
  <outline>
    <contour>
      <point x="300" y="447" type="line"/>
      <point x="285" y="473"/>
      <point x="270" y="499"/>
      <point x="254" y="524" type="curve"/>
      <point x="185" y="469" type="line"/>
      <point x="185" y="706" type="line"/>
      <point x="72" y="695" type="line"/>
      <point x="72" y="382" type="line"/>
      <point x="33" y="351"/>
      <point x="-4" y="321"/>
      <point x="-43" y="291" type="curve"/>
      <point x="-28" y="265"/>
      <point x="-13" y="239"/>
      <point x="1" y="213" type="curve"/>
      <point x="25" y="232"/>
      <point x="49" y="250"/>
      <point x="72" y="269" type="curve"/>
      <point x="72" y="0" type="line"/>
      <point x="185" y="0" type="line"/>
      <point x="185" y="357" type="line"/>
    </contour>
  </outline>
</glyph>
<glyph name="Ncedilla" format="1">
  <advance width="732"/>
  <unicode hex="0145"/>
  <outline>
    <contour>
      <point x="89" y="0" type="line"/>
      <point x="201" y="0" type="line"/>
      <point x="201" y="481" type="line"/>
      <point x="252" y="405" type="line"/>
      <point x="535" y="0" type="line"/>
      <point x="643" y="0" type="line"/>
      <point x="643" y="680" type="line"/>
      <point x="530" y="680" type="line"/>
      <point x="530" y="201" type="line"/>
      <point x="511" y="229"/>
      <point x="493" y="257"/>
      <point x="474" y="284" type="curve" smooth="yes"/>
      <point x="196" y="680" type="line"/>
      <point x="89" y="680" type="line"/>
    </contour>
    <contour>
      <point x="439" y="-53"/>
      <point x="410" y="-20"/>
      <point x="371" y="-20" type="curve" smooth="yes"/>
      <point x="334" y="-20"/>
      <point x="305" y="-52"/>
      <point x="305" y="-88" type="curve" smooth="yes"/>
      <point x="305" y="-121"/>
      <point x="333" y="-153"/>
      <point x="357" y="-154" type="curve"/>
      <point x="349" y="-184"/>
      <point x="324" y="-205"/>
      <point x="303" y="-215" type="curve"/>
      <point x="311" y="-233"/>
      <point x="320" y="-251"/>
      <point x="329" y="-268" type="curve"/>
      <point x="389" y="-239"/>
      <point x="439" y="-173"/>
      <point x="439" y="-101" type="curve" smooth="yes"/>
    </contour>
  </outline>
</glyph>
<glyph name="ncedilla" format="1">
  <advance width="573"/>
  <unicode hex="0146"/>
  <outline>
    <contour>
      <point x="280" y="502"/>
      <point x="206" y="472"/>
      <point x="163" y="427" type="curve"/>
      <point x="129" y="485" type="line"/>
      <point x="67" y="485" type="line"/>
      <point x="67" y="0" type="line"/>
      <point x="180" y="0" type="line"/>
      <point x="180" y="348" type="line"/>
      <point x="217" y="382"/>
      <point x="268" y="406"/>
      <point x="307" y="406" type="curve"/>
      <point x="367" y="406"/>
      <point x="397" y="368"/>
      <point x="397" y="305" type="curve"/>
      <point x="397" y="0" type="line"/>
      <point x="510" y="0" type="line"/>
      <point x="510" y="312" type="line"/>
      <point x="510" y="420"/>
      <point x="459" y="502"/>
      <point x="334" y="502" type="curve"/>
    </contour>
    <contour>
      <point x="354" y="-53"/>
      <point x="324" y="-21"/>
      <point x="287" y="-21" type="curve"/>
      <point x="249" y="-21"/>
      <point x="220" y="-55"/>
      <point x="220" y="-89" type="curve"/>
      <point x="220" y="-122"/>
      <point x="248" y="-154"/>
      <point x="272" y="-154" type="curve"/>
      <point x="265" y="-184"/>
      <point x="240" y="-206"/>
      <point x="219" y="-216" type="curve"/>
      <point x="244" y="-269" type="line"/>
      <point x="304" y="-240"/>
      <point x="354" y="-173"/>
      <point x="354" y="-102" type="curve"/>
    </contour>
  </outline>
</glyph>
<glyph name="Ncaron" format="1">
  <advance width="732"/>
  <unicode hex="0147"/>
  <outline>
    <contour>
      <point x="89" y="0" type="line"/>
      <point x="201" y="0" type="line"/>
      <point x="201" y="481" type="line"/>
      <point x="252" y="405" type="line"/>
      <point x="535" y="0" type="line"/>
      <point x="643" y="0" type="line"/>
      <point x="643" y="680" type="line"/>
      <point x="530" y="680" type="line"/>
      <point x="530" y="201" type="line"/>
      <point x="511" y="229"/>
      <point x="493" y="257"/>
      <point x="474" y="284" type="curve" smooth="yes"/>
      <point x="196" y="680" type="line"/>
      <point x="89" y="680" type="line"/>
    </contour>
    <contour>
      <point x="198" y="900" type="line"/>
      <point x="339" y="739" type="line"/>
      <point x="407" y="739" type="line"/>
      <point x="547" y="900" type="line"/>
      <point x="443" y="900" type="line"/>
      <point x="420" y="874"/>
      <point x="397" y="850"/>
      <point x="375" y="824" type="curve"/>
      <point x="352" y="850"/>
      <point x="328" y="874"/>
      <point x="306" y="900" type="curve"/>
    </contour>
  </outline>
</glyph>
<glyph name="Ohungarumlaut" format="1">
  <advance width="740"/>
  <unicode hex="0150"/>
  <outline>
    <contour>
      <point x="172" y="692"/>
      <point x="61" y="545"/>
      <point x="61" y="337" type="curve"/>
      <point x="61" y="144"/>
      <point x="157" y="-14"/>
      <point x="369" y="-14" type="curve"/>
      <point x="568" y="-10"/>
      <point x="679" y="138"/>
      <point x="679" y="344" type="curve"/>
      <point x="679" y="538"/>
      <point x="583" y="696"/>
      <point x="370" y="696" type="curve"/>
    </contour>
    <contour>
      <point x="237" y="81"/>
      <point x="179" y="190"/>
      <point x="179" y="338" type="curve"/>
      <point x="179" y="497"/>
      <point x="256" y="599"/>
      <point x="372" y="599" type="curve"/>
      <point x="503" y="599"/>
      <point x="561" y="491"/>
      <point x="561" y="344" type="curve"/>
      <point x="561" y="172"/>
      <point x="486" y="81"/>
      <point x="367" y="81" type="curve"/>
    </contour>
    <contour>
      <point x="299" y="900" type="line"/>
      <point x="239" y="739" type="line"/>
      <point x="315" y="739" type="line"/>
      <point x="408" y="900" type="line"/>
    </contour>
    <contour>
      <point x="470" y="900" type="line"/>
      <point x="410" y="739" type="line"/>
      <point x="487" y="739" type="line"/>
      <point x="580" y="900" type="line"/>
    </contour>
  </outline>
</glyph>
<glyph name="ohungarumlaut" format="1">
  <advance width="574"/>
  <unicode hex="0151"/>
  <outline>
    <contour>
      <point x="44" y="89"/>
      <point x="128" y="-11"/>
      <point x="279" y="-12" type="curve"/>
      <point x="432" y="-12"/>
      <point x="529" y="86"/>
      <point x="530" y="239" type="curve"/>
      <point x="530" y="393"/>
      <point x="444" y="498"/>
      <point x="287" y="498" type="curve"/>
      <point x="134" y="497"/>
      <point x="45" y="397"/>
      <point x="44" y="244" type="curve"/>
    </contour>
    <contour>
      <point x="374" y="401"/>
      <point x="414" y="337"/>
      <point x="414" y="239" type="curve"/>
      <point x="413" y="136"/>
      <point x="364" y="84"/>
      <point x="280" y="84" type="curve"/>
      <point x="196" y="84"/>
      <point x="161" y="143"/>
      <point x="161" y="245" type="curve"/>
      <point x="161" y="346"/>
      <point x="206" y="401"/>
      <point x="290" y="401" type="curve"/>
    </contour>
    <contour>
      <point x="215" y="750" type="line"/>
      <point x="155" y="589" type="line"/>
      <point x="232" y="589" type="line"/>
      <point x="325" y="750" type="line"/>
    </contour>
    <contour>
      <point x="387" y="750" type="line"/>
      <point x="325" y="589" type="line"/>
      <point x="403" y="589" type="line"/>
      <point x="496" y="750" type="line"/>
    </contour>
  </outline>
</glyph>
<glyph name="oe" format="1">
  <advance width="868"/>
  <unicode hex="0153"/>
  <outline>
    <contour>
      <point x="829" y="212" type="line"/>
      <point x="829" y="364"/>
      <point x="780" y="498"/>
      <point x="610" y="498" type="curve" smooth="yes"/>
      <point x="552" y="498"/>
      <point x="503" y="481"/>
      <point x="464" y="453" type="curve"/>
      <point x="419" y="484"/>
      <point x="346" y="497"/>
      <point x="311" y="497" type="curve" smooth="yes"/>
      <point x="145" y="497"/>
      <point x="44" y="395"/>
      <point x="44" y="241" type="curve" smooth="yes"/>
      <point x="44" y="88"/>
      <point x="146" y="-12"/>
      <point x="311" y="-12" type="curve" smooth="yes"/>
      <point x="353" y="-12"/>
      <point x="424" y="2"/>
      <point x="468" y="34" type="curve"/>
      <point x="511" y="4"/>
      <point x="567" y="-12"/>
      <point x="635" y="-12" type="curve" smooth="yes"/>
      <point x="677" y="-12"/>
      <point x="754" y="2"/>
      <point x="798" y="34" type="curve"/>
      <point x="764" y="116" type="line"/>
      <point x="721" y="96"/>
      <point x="689" y="83"/>
      <point x="636" y="83" type="curve" smooth="yes"/>
      <point x="548" y="83"/>
      <point x="502" y="135"/>
      <point x="492" y="212" type="curve"/>
    </contour>
    <contour>
      <point x="213" y="83"/>
      <point x="160" y="150"/>
      <point x="160" y="243" type="curve" smooth="yes"/>
      <point x="160" y="333"/>
      <point x="214" y="402"/>
      <point x="313" y="402" type="curve" smooth="yes"/>
      <point x="352" y="402"/>
      <point x="377" y="393"/>
      <point x="405" y="381" type="curve"/>
      <point x="384" y="343"/>
      <point x="374" y="297"/>
      <point x="374" y="242" type="curve" smooth="yes"/>
      <point x="374" y="188"/>
      <point x="384" y="142"/>
      <point x="407" y="104" type="curve"/>
      <point x="378" y="90"/>
      <point x="353" y="83"/>
      <point x="313" y="83" type="curve" smooth="yes"/>
    </contour>
    <contour>
      <point x="671" y="401"/>
      <point x="708" y="361"/>
      <point x="719" y="288" type="curve"/>
      <point x="494" y="288" type="line"/>
      <point x="505" y="359"/>
      <point x="544" y="401"/>
      <point x="609" y="401" type="curve" smooth="yes"/>
    </contour>
  </outline>
</glyph>
<glyph name="Racute" format="1">
  <advance width="628"/>
  <unicode hex="0154"/>
  <outline>
    <contour>
      <point x="487" y="0" type="line"/>
      <point x="608" y="0" type="line"/>
      <point x="438" y="296" type="line"/>
      <point x="508" y="328"/>
      <point x="556" y="387"/>
      <point x="556" y="475" type="curve"/>
      <point x="556" y="618"/>
      <point x="440" y="680"/>
      <point x="293" y="680" type="curve"/>
      <point x="89" y="680" type="line"/>
      <point x="89" y="0" type="line"/>
      <point x="201" y="0" type="line"/>
      <point x="201" y="265" type="line"/>
      <point x="283" y="265" type="line" smooth="yes"/>
      <point x="302" y="265"/>
      <point x="321" y="265"/>
      <point x="338" y="268" type="curve"/>
    </contour>
    <contour>
      <point x="290" y="586" type="line" smooth="yes"/>
      <point x="381" y="586"/>
      <point x="437" y="557"/>
      <point x="437" y="470" type="curve"/>
      <point x="437" y="387"/>
      <point x="373" y="357"/>
      <point x="289" y="357" type="curve"/>
      <point x="201" y="357" type="line"/>
      <point x="201" y="586" type="line"/>
    </contour>
    <contour>
      <point x="280" y="900" type="line"/>
      <point x="220" y="739" type="line"/>
      <point x="305" y="739" type="line"/>
      <point x="398" y="900" type="line"/>
    </contour>
  </outline>
</glyph>
<glyph name="rcedilla" format="1">
  <advance width="349"/>
  <unicode hex="0157"/>
  <outline>
    <contour>
      <point x="67" y="0" type="line"/>
      <point x="180" y="0" type="line"/>
      <point x="180" y="318" type="line"/>
      <point x="232" y="366"/>
      <point x="294" y="394"/>
      <point x="342" y="394" type="curve"/>
      <point x="319" y="485" type="line"/>
      <point x="267" y="485"/>
      <point x="204" y="448"/>
      <point x="165" y="415" type="curve"/>
      <point x="153" y="438"/>
      <point x="140" y="461"/>
      <point x="128" y="485" type="curve"/>
      <point x="67" y="485" type="line"/>
    </contour>
    <contour>
      <point x="195" y="-53"/>
      <point x="165" y="-21"/>
      <point x="128" y="-21" type="curve" smooth="yes"/>
      <point x="90" y="-21"/>
      <point x="60" y="-56"/>
      <point x="60" y="-88" type="curve" smooth="yes"/>
      <point x="60" y="-122"/>
      <point x="88" y="-153"/>
      <point x="114" y="-154" type="curve"/>
      <point x="106" y="-184"/>
      <point x="81" y="-205"/>
      <point x="60" y="-216" type="curve"/>
      <point x="85" y="-269" type="line"/>
      <point x="146" y="-239"/>
      <point x="195" y="-173"/>
      <point x="195" y="-102" type="curve" smooth="yes"/>
    </contour>
  </outline>
</glyph>
<glyph name="Scedilla" format="1">
  <advance width="547"/>
  <unicode hex="015E"/>
  <outline>
    <contour>
      <point x="191" y="86"/>
      <point x="121" y="111"/>
      <point x="82" y="131" type="curve"/>
      <point x="56" y="41" type="line"/>
      <point x="78" y="21"/>
      <point x="150" y="0"/>
      <point x="208" y="-8" type="curve"/>
      <point x="200" y="-31"/>
      <point x="190" y="-54"/>
      <point x="182" y="-76" type="curve"/>
      <point x="234" y="-82"/>
      <point x="269" y="-101"/>
      <point x="269" y="-123" type="curve" smooth="yes"/>
      <point x="269" y="-140"/>
      <point x="249" y="-146"/>
      <point x="230" y="-146" type="curve" smooth="yes"/>
      <point x="214" y="-146"/>
      <point x="183" y="-136"/>
      <point x="166" y="-127" type="curve"/>
      <point x="157" y="-150"/>
      <point x="149" y="-173"/>
      <point x="140" y="-195" type="curve"/>
      <point x="161" y="-210"/>
      <point x="204" y="-221"/>
      <point x="230" y="-221" type="curve" smooth="yes"/>
      <point x="293" y="-221"/>
      <point x="352" y="-190"/>
      <point x="352" y="-121" type="curve" smooth="yes"/>
      <point x="352" y="-86"/>
      <point x="321" y="-48"/>
      <point x="281" y="-35" type="curve"/>
      <point x="290" y="-11" type="line"/>
      <point x="428" y="0"/>
      <point x="502" y="73"/>
      <point x="502" y="173" type="curve" smooth="yes"/>
      <point x="502" y="373"/>
      <point x="159" y="391"/>
      <point x="159" y="518" type="curve" smooth="yes"/>
      <point x="159" y="570"/>
      <point x="207" y="598"/>
      <point x="275" y="598" type="curve" smooth="yes"/>
      <point x="337" y="598"/>
      <point x="382" y="577"/>
      <point x="421" y="558" type="curve"/>
      <point x="433" y="588"/>
      <point x="447" y="617"/>
      <point x="459" y="648" type="curve"/>
      <point x="410" y="672"/>
      <point x="341" y="696"/>
      <point x="273" y="696" type="curve" smooth="yes"/>
      <point x="127" y="696"/>
      <point x="44" y="617"/>
      <point x="44" y="516" type="curve" smooth="yes"/>
      <point x="44" y="309"/>
      <point x="386" y="294"/>
      <point x="386" y="172" type="curve" smooth="yes"/>
      <point x="386" y="118"/>
      <point x="341" y="86"/>
      <point x="251" y="86" type="curve" smooth="yes"/>
    </contour>
  </outline>
</glyph>
<glyph name="Scaron" format="1">
  <advance width="547"/>
  <unicode hex="0160"/>
  <outline>
    <contour>
      <point x="191" y="86"/>
      <point x="121" y="111"/>
      <point x="82" y="131" type="curve"/>
      <point x="56" y="41" type="line"/>
      <point x="85" y="15"/>
      <point x="194" y="-13"/>
      <point x="252" y="-13" type="curve" smooth="yes"/>
      <point x="414" y="-13"/>
      <point x="502" y="65"/>
      <point x="502" y="173" type="curve" smooth="yes"/>
      <point x="502" y="373"/>
      <point x="159" y="391"/>
      <point x="159" y="518" type="curve" smooth="yes"/>
      <point x="159" y="573"/>
      <point x="212" y="596"/>
      <point x="280" y="596" type="curve" smooth="yes"/>
      <point x="339" y="596"/>
      <point x="385" y="575"/>
      <point x="421" y="558" type="curve"/>
      <point x="433" y="588"/>
      <point x="447" y="617"/>
      <point x="459" y="648" type="curve"/>
      <point x="410" y="672"/>
      <point x="341" y="696"/>
      <point x="273" y="696" type="curve" smooth="yes"/>
      <point x="127" y="696"/>
      <point x="44" y="617"/>
      <point x="44" y="516" type="curve" smooth="yes"/>
      <point x="44" y="309"/>
      <point x="386" y="294"/>
      <point x="386" y="172" type="curve" smooth="yes"/>
      <point x="386" y="118"/>
      <point x="341" y="86"/>
      <point x="251" y="86" type="curve" smooth="yes"/>
    </contour>
    <contour>
      <point x="113" y="900" type="line"/>
      <point x="253" y="739" type="line"/>
      <point x="321" y="739" type="line"/>
      <point x="462" y="900" type="line"/>
      <point x="357" y="900" type="line"/>
      <point x="289" y="824" type="line"/>
      <point x="220" y="900" type="line"/>
    </contour>
  </outline>
</glyph>
<glyph name="Tcaron" format="1">
  <advance width="565"/>
  <unicode hex="0164"/>
  <outline>
    <contour>
      <point x="558" y="591" type="line"/>
      <point x="541" y="680" type="line"/>
      <point x="7" y="680" type="line"/>
      <point x="7" y="591" type="line"/>
      <point x="216" y="591" type="line"/>
      <point x="216" y="0" type="line"/>
      <point x="330" y="0" type="line"/>
      <point x="330" y="591" type="line"/>
    </contour>
    <contour>
      <point x="111" y="900" type="line"/>
      <point x="251" y="739" type="line"/>
      <point x="319" y="739" type="line"/>
      <point x="460" y="900" type="line"/>
      <point x="355" y="900" type="line"/>
      <point x="287" y="824" type="line"/>
      <point x="218" y="900" type="line"/>
    </contour>
  </outline>
</glyph>
<glyph name="Umacron" format="1">
  <advance width="706"/>
  <unicode hex="016A"/>
  <outline>
    <contour>
      <point x="258" y="81"/>
      <point x="195" y="140"/>
      <point x="195" y="254" type="curve" smooth="yes"/>
      <point x="195" y="680" type="line"/>
      <point x="82" y="680" type="line"/>
      <point x="82" y="245" type="line" smooth="yes"/>
      <point x="82" y="97"/>
      <point x="185" y="-11"/>
      <point x="352" y="-11" type="curve" smooth="yes"/>
      <point x="519" y="-11"/>
      <point x="623" y="98"/>
      <point x="623" y="245" type="curve" smooth="yes"/>
      <point x="623" y="680" type="line"/>
      <point x="509" y="680" type="line"/>
      <point x="509" y="254" type="line" smooth="yes"/>
      <point x="509" y="143"/>
      <point x="449" y="81"/>
      <point x="352" y="81" type="curve" smooth="yes"/>
    </contour>
    <contour>
      <point x="224" y="859" type="line"/>
      <point x="224" y="769" type="line"/>
      <point x="481" y="769" type="line"/>
      <point x="481" y="859" type="line"/>
    </contour>
  </outline>
</glyph>
<glyph name="Uring" format="1">
  <advance width="706"/>
  <unicode hex="016E"/>
  <outline>
    <contour>
      <point x="258" y="81"/>
      <point x="195" y="140"/>
      <point x="195" y="254" type="curve" smooth="yes"/>
      <point x="195" y="680" type="line"/>
      <point x="82" y="680" type="line"/>
      <point x="82" y="245" type="line" smooth="yes"/>
      <point x="82" y="97"/>
      <point x="185" y="-11"/>
      <point x="352" y="-11" type="curve" smooth="yes"/>
      <point x="519" y="-11"/>
      <point x="623" y="98"/>
      <point x="623" y="245" type="curve" smooth="yes"/>
      <point x="623" y="680" type="line"/>
      <point x="509" y="680" type="line"/>
      <point x="509" y="254" type="line" smooth="yes"/>
      <point x="509" y="143"/>
      <point x="449" y="81"/>
      <point x="352" y="81" type="curve" smooth="yes"/>
    </contour>
    <contour>
      <point x="392" y="816"/>
      <point x="374" y="797"/>
      <point x="351" y="797" type="curve" smooth="yes"/>
      <point x="329" y="797"/>
      <point x="310" y="816"/>
      <point x="310" y="837" type="curve" smooth="yes"/>
      <point x="310" y="860"/>
      <point x="329" y="878"/>
      <point x="351" y="878" type="curve" smooth="yes"/>
      <point x="374" y="878"/>
      <point x="392" y="860"/>
      <point x="392" y="837" type="curve" smooth="yes"/>
    </contour>
    <contour>
      <point x="454" y="892"/>
      <point x="406" y="934"/>
      <point x="351" y="934" type="curve" smooth="yes"/>
      <point x="296" y="934"/>
      <point x="249" y="892"/>
      <point x="249" y="837" type="curve" smooth="yes"/>
      <point x="249" y="782"/>
      <point x="296" y="744"/>
      <point x="351" y="744" type="curve" smooth="yes"/>
      <point x="406" y="744"/>
      <point x="454" y="782"/>
      <point x="454" y="837" type="curve" smooth="yes"/>
    </contour>
  </outline>
</glyph>
<glyph name="uring" format="1">
  <advance width="564"/>
  <unicode hex="016F"/>
  <outline>
    <contour>
      <point x="290" y="-18"/>
      <point x="358" y="9"/>
      <point x="402" y="50" type="curve"/>
      <point x="434" y="0" type="line"/>
      <point x="496" y="0" type="line"/>
      <point x="496" y="485" type="line"/>
      <point x="383" y="485" type="line"/>
      <point x="383" y="127" type="line"/>
      <point x="347" y="99"/>
      <point x="301" y="78"/>
      <point x="266" y="78" type="curve"/>
      <point x="206" y="78"/>
      <point x="176" y="117"/>
      <point x="176" y="179" type="curve"/>
      <point x="176" y="485" type="line"/>
      <point x="62" y="485" type="line"/>
      <point x="62" y="172" type="line"/>
      <point x="62" y="65"/>
      <point x="112" y="-18"/>
      <point x="238" y="-18" type="curve"/>
    </contour>
    <contour>
      <point x="323" y="666"/>
      <point x="306" y="647"/>
      <point x="284" y="647" type="curve"/>
      <point x="261" y="647"/>
      <point x="243" y="666"/>
      <point x="243" y="688" type="curve"/>
      <point x="243" y="710"/>
      <point x="261" y="728"/>
      <point x="284" y="728" type="curve"/>
      <point x="306" y="728"/>
      <point x="323" y="710"/>
      <point x="323" y="688" type="curve"/>
    </contour>
    <contour>
      <point x="386" y="742"/>
      <point x="338" y="784"/>
      <point x="284" y="784" type="curve"/>
      <point x="227" y="784"/>
      <point x="180" y="742"/>
      <point x="180" y="688" type="curve"/>
      <point x="180" y="632"/>
      <point x="227" y="594"/>
      <point x="284" y="594" type="curve"/>
      <point x="338" y="594"/>
      <point x="386" y="632"/>
      <point x="386" y="688" type="curve"/>
    </contour>
  </outline>
</glyph>
<glyph name="uogonek" format="1">
  <advance width="564"/>
  <unicode hex="0173"/>
  <outline>
    <contour>
      <point x="290" y="-18"/>
      <point x="358" y="9"/>
      <point x="402" y="50" type="curve"/>
      <point x="415" y="28" type="line"/>
      <point x="385" y="0"/>
      <point x="353" y="-46"/>
      <point x="353" y="-98" type="curve"/>
      <point x="353" y="-159"/>
      <point x="399" y="-207"/>
      <point x="466" y="-207" type="curve"/>
      <point x="503" y="-207"/>
      <point x="535" y="-197"/>
      <point x="563" y="-175" type="curve"/>
      <point x="529" y="-105" type="line"/>
      <point x="514" y="-117"/>
      <point x="497" y="-123"/>
      <point x="486" y="-123" type="curve"/>
      <point x="462" y="-123"/>
      <point x="449" y="-110"/>
      <point x="449" y="-89" type="curve"/>
      <point x="449" y="-57"/>
      <point x="474" y="-21"/>
      <point x="496" y="0" type="curve"/>
      <point x="496" y="485" type="line"/>
      <point x="383" y="485" type="line"/>
      <point x="383" y="127" type="line"/>
      <point x="347" y="99"/>
      <point x="301" y="78"/>
      <point x="266" y="78" type="curve"/>
      <point x="206" y="78"/>
      <point x="176" y="117"/>
      <point x="176" y="179" type="curve"/>
      <point x="176" y="485" type="line"/>
      <point x="62" y="485" type="line"/>
      <point x="62" y="172" type="line"/>
      <point x="62" y="65"/>
      <point x="112" y="-18"/>
      <point x="238" y="-18" type="curve"/>
    </contour>
  </outline>
</glyph>
<glyph name="zacute" format="1">
  <advance width="455"/>
  <unicode hex="017A"/>
  <outline>
    <contour>
      <point x="424" y="430" type="line"/>
      <point x="418" y="493" type="line"/>
      <point x="39" y="493" type="line"/>
      <point x="61" y="401" type="line"/>
      <point x="271" y="401" type="line"/>
      <point x="22" y="59" type="line"/>
      <point x="37" y="0" type="line"/>
      <point x="430" y="0" type="line"/>
      <point x="420" y="91" type="line"/>
      <point x="172" y="91" type="line"/>
    </contour>
    <contour>
      <point x="244" y="750" type="line"/>
      <point x="183" y="589" type="line"/>
      <point x="269" y="589" type="line"/>
      <point x="362" y="750" type="line"/>
    </contour>
  </outline>
</glyph>
<glyph name="Zdotaccent" format="1">
  <advance width="576"/>
  <unicode hex="017B"/>
  <outline>
    <contour>
      <point x="552" y="0" type="line"/>
      <point x="547" y="29"/>
      <point x="543" y="58"/>
      <point x="539" y="88" type="curve"/>
      <point x="140" y="88" type="line"/>
      <point x="549" y="591" type="line"/>
      <point x="537" y="680" type="line"/>
      <point x="46" y="680" type="line"/>
      <point x="51" y="650"/>
      <point x="56" y="620"/>
      <point x="60" y="591" type="curve"/>
      <point x="419" y="591" type="line"/>
      <point x="286" y="423"/>
      <point x="151" y="256"/>
      <point x="18" y="88" type="curve"/>
      <point x="22" y="58"/>
      <point x="26" y="29"/>
      <point x="31" y="0" type="curve"/>
    </contour>
    <contour>
      <point x="355" y="854"/>
      <point x="328" y="884"/>
      <point x="290" y="884" type="curve" smooth="yes"/>
      <point x="252" y="884"/>
      <point x="222" y="854"/>
      <point x="222" y="816" type="curve" smooth="yes"/>
      <point x="222" y="778"/>
      <point x="252" y="750"/>
      <point x="290" y="750" type="curve" smooth="yes"/>
      <point x="328" y="750"/>
      <point x="355" y="778"/>
      <point x="355" y="816" type="curve" smooth="yes"/>
    </contour>
  </outline>
</glyph>
<glyph name="zdotaccent" format="1">
  <advance width="455"/>
  <unicode hex="017C"/>
  <outline>
    <contour>
      <point x="424" y="430" type="line"/>
      <point x="418" y="493" type="line"/>
      <point x="39" y="493" type="line"/>
      <point x="61" y="401" type="line"/>
      <point x="271" y="401" type="line"/>
      <point x="22" y="59" type="line"/>
      <point x="37" y="0" type="line"/>
      <point x="430" y="0" type="line"/>
      <point x="420" y="91" type="line"/>
      <point x="172" y="91" type="line"/>
    </contour>
    <contour>
      <point x="318" y="704"/>
      <point x="288" y="734"/>
      <point x="250" y="734" type="curve"/>
      <point x="213" y="734"/>
      <point x="183" y="704"/>
      <point x="183" y="667" type="curve"/>
      <point x="183" y="628"/>
      <point x="213" y="600"/>
      <point x="250" y="600" type="curve"/>
      <point x="288" y="600"/>
      <point x="318" y="628"/>
      <point x="318" y="667" type="curve"/>
    </contour>
  </outline>
</glyph>
<glyph name="florin" format="1">
  <advance width="351"/>
  <unicode hex="0192"/>
  <outline>
    <contour>
      <point x="134" y="-109"/>
      <point x="197" y="-44"/>
      <point x="197" y="60" type="curve"/>
      <point x="197" y="387" type="line"/>
      <point x="324" y="387" type="line"/>
      <point x="288" y="475" type="line"/>
      <point x="197" y="475" type="line"/>
      <point x="197" y="518" type="line" smooth="yes"/>
      <point x="197" y="568"/>
      <point x="216" y="604"/>
      <point x="263" y="604" type="curve"/>
      <point x="279" y="604"/>
      <point x="297" y="599"/>
      <point x="314" y="592" type="curve"/>
      <point x="345" y="675" type="line"/>
      <point x="326" y="689"/>
      <point x="285" y="702"/>
      <point x="255" y="702" type="curve"/>
      <point x="147" y="702"/>
      <point x="84" y="637"/>
      <point x="84" y="531" type="curve"/>
      <point x="84" y="475" type="line"/>
      <point x="10" y="475" type="line"/>
      <point x="10" y="387" type="line"/>
      <point x="84" y="387" type="line"/>
      <point x="84" y="73" type="line"/>
      <point x="84" y="23"/>
      <point x="65" y="-12"/>
      <point x="18" y="-12" type="curve"/>
      <point x="1" y="-12"/>
      <point x="-17" y="-7"/>
      <point x="-33" y="0" type="curve"/>
      <point x="-64" y="-83" type="line"/>
      <point x="-45" y="-98"/>
      <point x="-4" y="-109"/>
      <point x="26" y="-109" type="curve"/>
    </contour>
  </outline>
</glyph>
<glyph name="scommaaccent" format="1">
  <advance width="437"/>
  <unicode hex="0219"/>
  <outline>
    <contour>
      <point x="269" y="402"/>
      <point x="307" y="388"/>
      <point x="349" y="368" type="curve"/>
      <point x="383" y="450" type="line"/>
      <point x="338" y="481"/>
      <point x="264" y="498"/>
      <point x="222" y="498" type="curve"/>
      <point x="107" y="498"/>
      <point x="36" y="444"/>
      <point x="36" y="353" type="curve"/>
      <point x="36" y="274"/>
      <point x="119" y="231"/>
      <point x="196" y="206" type="curve"/>
      <point x="255" y="187"/>
      <point x="287" y="163"/>
      <point x="287" y="131" type="curve"/>
      <point x="287" y="101"/>
      <point x="256" y="84"/>
      <point x="200" y="84" type="curve"/>
      <point x="160" y="84"/>
      <point x="115" y="96"/>
      <point x="71" y="117" type="curve"/>
      <point x="37" y="35" type="line"/>
      <point x="81" y="2"/>
      <point x="159" y="-12"/>
      <point x="201" y="-12" type="curve"/>
      <point x="332" y="-12"/>
      <point x="400" y="42"/>
      <point x="400" y="136" type="curve"/>
      <point x="400" y="219"/>
      <point x="317" y="268"/>
      <point x="236" y="296" type="curve"/>
      <point x="182" y="316"/>
      <point x="153" y="332"/>
      <point x="153" y="355" type="curve"/>
      <point x="153" y="384"/>
      <point x="179" y="402"/>
      <point x="220" y="402" type="curve"/>
    </contour>
    <contour>
      <point x="280" y="-53"/>
      <point x="249" y="-21"/>
      <point x="211" y="-21" type="curve"/>
      <point x="174" y="-21"/>
      <point x="144" y="-55"/>
      <point x="144" y="-89" type="curve"/>
      <point x="144" y="-122"/>
      <point x="173" y="-154"/>
      <point x="197" y="-154" type="curve"/>
      <point x="190" y="-184"/>
      <point x="165" y="-206"/>
      <point x="144" y="-216" type="curve"/>
      <point x="170" y="-269" type="line"/>
      <point x="230" y="-240"/>
      <point x="280" y="-173"/>
      <point x="280" y="-102" type="curve"/>
    </contour>
  </outline>
</glyph>
<glyph name="uni021B" format="1">
  <advance width="356"/>
  <unicode hex="021B"/>
  <outline>
    <contour>
      <point x="281" y="-18"/>
      <point x="321" y="-7"/>
      <point x="341" y="7" type="curve"/>
      <point x="309" y="90" type="line"/>
      <point x="293" y="83"/>
      <point x="276" y="78"/>
      <point x="259" y="78" type="curve"/>
      <point x="211" y="78"/>
      <point x="189" y="114"/>
      <point x="189" y="164" type="curve"/>
      <point x="189" y="395" type="line"/>
      <point x="312" y="395" type="line"/>
      <point x="277" y="482" type="line"/>
      <point x="189" y="482" type="line"/>
      <point x="189" y="622" type="line"/>
      <point x="76" y="599" type="line"/>
      <point x="76" y="482" type="line"/>
      <point x="10" y="482" type="line"/>
      <point x="10" y="395" type="line"/>
      <point x="76" y="395" type="line"/>
      <point x="76" y="145" type="line"/>
      <point x="76" y="39"/>
      <point x="143" y="-18"/>
      <point x="251" y="-18" type="curve"/>
    </contour>
    <contour>
      <point x="294" y="-53"/>
      <point x="263" y="-21"/>
      <point x="226" y="-21" type="curve"/>
      <point x="188" y="-21"/>
      <point x="159" y="-55"/>
      <point x="159" y="-89" type="curve"/>
      <point x="159" y="-122"/>
      <point x="188" y="-154"/>
      <point x="212" y="-154" type="curve"/>
      <point x="204" y="-184"/>
      <point x="180" y="-206"/>
      <point x="158" y="-216" type="curve"/>
      <point x="184" y="-269" type="line"/>
      <point x="244" y="-240"/>
      <point x="294" y="-173"/>
      <point x="294" y="-102" type="curve"/>
    </contour>
  </outline>
</glyph>
<glyph name="breve" format="1">
  <advance width="317"/>
  <unicode hex="02D8"/>
  <outline>
    <contour>
      <point x="258" y="594"/>
      <point x="301" y="667"/>
      <point x="301" y="747" type="curve"/>
      <point x="224" y="747" type="line"/>
      <point x="224" y="712"/>
      <point x="204" y="674"/>
      <point x="159" y="674" type="curve"/>
      <point x="112" y="674"/>
      <point x="94" y="712"/>
      <point x="94" y="747" type="curve"/>
      <point x="16" y="747" type="line"/>
      <point x="16" y="667"/>
      <point x="60" y="594"/>
      <point x="159" y="592" type="curve"/>
    </contour>
  </outline>
</glyph>
<glyph name="ring" format="1">
  <advance width="237"/>
  <unicode hex="02DA"/>
  <outline>
    <contour>
      <point x="159" y="666"/>
      <point x="141" y="647"/>
      <point x="118" y="647" type="curve"/>
      <point x="96" y="647"/>
      <point x="77" y="666"/>
      <point x="77" y="688" type="curve"/>
      <point x="77" y="710"/>
      <point x="96" y="728"/>
      <point x="118" y="728" type="curve"/>
      <point x="141" y="728"/>
      <point x="159" y="710"/>
      <point x="159" y="688" type="curve"/>
    </contour>
    <contour>
      <point x="221" y="742"/>
      <point x="173" y="784"/>
      <point x="118" y="784" type="curve"/>
      <point x="63" y="784"/>
      <point x="16" y="742"/>
      <point x="16" y="688" type="curve"/>
      <point x="16" y="632"/>
      <point x="63" y="594"/>
      <point x="118" y="594" type="curve"/>
      <point x="173" y="594"/>
      <point x="221" y="632"/>
      <point x="221" y="688" type="curve"/>
    </contour>
  </outline>
</glyph>
<glyph name="ogonek" format="1">
  <advance width="241"/>
  <unicode hex="02DB"/>
  <outline>
    <contour>
      <point x="59" y="5" type="line"/>
      <point x="36" y="-17"/>
      <point x="16" y="-67"/>
      <point x="16" y="-98" type="curve"/>
      <point x="16" y="-159"/>
      <point x="61" y="-207"/>
      <point x="129" y="-207" type="curve"/>
      <point x="166" y="-207"/>
      <point x="197" y="-197"/>
      <point x="225" y="-175" type="curve"/>
      <point x="192" y="-105" type="line"/>
      <point x="177" y="-117"/>
      <point x="159" y="-123"/>
      <point x="148" y="-123" type="curve"/>
      <point x="125" y="-123"/>
      <point x="111" y="-110"/>
      <point x="111" y="-89" type="curve"/>
      <point x="111" y="-60"/>
      <point x="139" y="-15"/>
      <point x="163" y="5" type="curve"/>
    </contour>
  </outline>
</glyph>
<glyph name="tilde" format="1">
  <advance width="348"/>
  <unicode hex="02DC"/>
  <outline>
    <contour>
      <point x="260" y="711" type="line"/>
      <point x="259" y="693"/>
      <point x="246" y="677"/>
      <point x="230" y="677" type="curve" smooth="yes"/>
      <point x="193" y="677"/>
      <point x="168" y="715"/>
      <point x="118" y="715" type="curve" smooth="yes"/>
      <point x="65" y="715"/>
      <point x="17" y="688"/>
      <point x="17" y="603" type="curve"/>
      <point x="92" y="603" type="line"/>
      <point x="93" y="619"/>
      <point x="107" y="637"/>
      <point x="123" y="637" type="curve" smooth="yes"/>
      <point x="159" y="637"/>
      <point x="182" y="598"/>
      <point x="231" y="598" type="curve" smooth="yes"/>
      <point x="283" y="598"/>
      <point x="332" y="626"/>
      <point x="332" y="711" type="curve"/>
    </contour>
  </outline>
</glyph>
<glyph name="pi" format="1">
  <advance width="686"/>
  <unicode hex="03C0"/>
  <outline>
    <contour>
      <point x="127" y="0" type="line"/>
      <point x="240" y="0" type="line"/>
      <point x="240" y="396" type="line"/>
      <point x="445" y="396" type="line"/>
      <point x="445" y="0" type="line"/>
      <point x="558" y="0" type="line"/>
      <point x="558" y="396" type="line"/>
      <point x="655" y="396" type="line"/>
      <point x="655" y="485" type="line"/>
      <point x="31" y="485" type="line"/>
      <point x="31" y="396" type="line"/>
      <point x="127" y="396" type="line"/>
    </contour>
  </outline>
</glyph>
<glyph name="dv_Anusvara" format="1">
  <advance width="0"/>
  <unicode hex="0902"/>
  <outline>
    <contour>
      <point x="17" y="797"/>
      <point x="48" y="765"/>
      <point x="88" y="765" type="curve"/>
      <point x="129" y="765"/>
      <point x="160" y="797"/>
      <point x="160" y="837" type="curve"/>
      <point x="160" y="877"/>
      <point x="129" y="909"/>
      <point x="88" y="909" type="curve"/>
      <point x="48" y="909"/>
      <point x="17" y="877"/>
      <point x="17" y="837" type="curve"/>
    </contour>
  </outline>
</glyph>
<glyph name="dv_Ii" format="1">
  <advance width="556"/>
  <unicode hex="0908"/>
  <outline>
    <contour>
      <point x="258" y="84"/>
      <point x="239" y="86"/>
      <point x="221" y="89" type="curve"/>
      <point x="205" y="132"/>
      <point x="161" y="168"/>
      <point x="110" y="168" type="curve" smooth="yes"/>
      <point x="75" y="168"/>
      <point x="51" y="145"/>
      <point x="51" y="112" type="curve" smooth="yes"/>
      <point x="51" y="56"/>
      <point x="99" y="17"/>
      <point x="139" y="-2" type="curve"/>
      <point x="265" y="-169" type="line"/>
      <point x="292" y="-149"/>
      <point x="319" y="-130"/>
      <point x="346" y="-111" type="curve"/>
      <point x="283" y="-33" type="line" smooth="yes"/>
      <point x="280" y="-29"/>
      <point x="269" y="-19"/>
      <point x="269" y="-14" type="curve"/>
      <point x="420" y="-14"/>
      <point x="511" y="60"/>
      <point x="511" y="157" type="curve" smooth="yes"/>
      <point x="511" y="273"/>
      <point x="425" y="324"/>
      <point x="304" y="324" type="curve" smooth="yes"/>
      <point x="223" y="324" type="line" smooth="yes"/>
      <point x="190" y="324"/>
      <point x="166" y="346"/>
      <point x="166" y="372" type="curve" smooth="yes"/>
      <point x="166" y="397"/>
      <point x="189" y="419"/>
      <point x="221" y="419" type="curve" smooth="yes"/>
      <point x="452" y="419" type="line"/>
      <point x="452" y="583" type="line"/>
      <point x="567" y="583" type="line"/>
      <point x="562" y="615"/>
      <point x="559" y="647"/>
      <point x="555" y="680" type="curve"/>
      <point x="428" y="680" type="line"/>
      <point x="404" y="705"/>
      <point x="379" y="746"/>
      <point x="379" y="789" type="curve" smooth="yes"/>
      <point x="379" y="823"/>
      <point x="400" y="857"/>
      <point x="438" y="857" type="curve" smooth="yes"/>
      <point x="466" y="857"/>
      <point x="484" y="843"/>
      <point x="502" y="828" type="curve"/>
      <point x="549" y="908" type="line"/>
      <point x="528" y="930"/>
      <point x="479" y="958"/>
      <point x="421" y="958" type="curve" smooth="yes"/>
      <point x="328" y="958"/>
      <point x="268" y="882"/>
      <point x="268" y="803" type="curve" smooth="yes"/>
      <point x="268" y="763"/>
      <point x="286" y="710"/>
      <point x="312" y="680" type="curve"/>
      <point x="-11" y="680" type="line"/>
      <point x="-6" y="647"/>
      <point x="-3" y="615"/>
      <point x="0" y="583" type="curve"/>
      <point x="331" y="583" type="line"/>
      <point x="331" y="521" type="line"/>
      <point x="218" y="521" type="line" smooth="yes"/>
      <point x="123" y="521"/>
      <point x="50" y="468"/>
      <point x="50" y="372" type="curve" smooth="yes"/>
      <point x="50" y="281"/>
      <point x="135" y="223"/>
      <point x="219" y="223" type="curve" smooth="yes"/>
      <point x="312" y="223" type="line" smooth="yes"/>
      <point x="362" y="223"/>
      <point x="389" y="190"/>
      <point x="389" y="157" type="curve" smooth="yes"/>
      <point x="389" y="120"/>
      <point x="353" y="85"/>
      <point x="279" y="84" type="curve" smooth="yes"/>
    </contour>
  </outline>
</glyph>
<glyph name="dv_U" format="1">
  <advance width="596"/>
  <unicode hex="0909"/>
  <outline>
    <contour>
      <point x="429" y="-15"/>
      <point x="525" y="73"/>
      <point x="525" y="191" type="curve" smooth="yes"/>
      <point x="525" y="259"/>
      <point x="484" y="330"/>
      <point x="403" y="348" type="curve"/>
      <point x="478" y="372"/>
      <point x="512" y="447"/>
      <point x="512" y="507" type="curve" smooth="yes"/>
      <point x="512" y="534"/>
      <point x="505" y="561"/>
      <point x="492" y="583" type="curve"/>
      <point x="607" y="583" type="line"/>
      <point x="590" y="680" type="line"/>
      <point x="-11" y="680" type="line"/>
      <point x="-5" y="647"/>
      <point x="0" y="615"/>
      <point x="5" y="583" type="curve"/>
      <point x="338" y="583" type="line"/>
      <point x="370" y="567"/>
      <point x="387" y="538"/>
      <point x="387" y="505" type="curve" smooth="yes"/>
      <point x="387" y="444"/>
      <point x="341" y="395"/>
      <point x="244" y="395" type="curve" smooth="yes"/>
      <point x="134" y="395" type="line"/>
      <point x="140" y="366"/>
      <point x="145" y="336"/>
      <point x="150" y="307" type="curve"/>
      <point x="237" y="307" type="line" smooth="yes"/>
      <point x="360" y="307"/>
      <point x="400" y="261"/>
      <point x="400" y="189" type="curve" smooth="yes"/>
      <point x="400" y="119"/>
      <point x="339" y="85"/>
      <point x="268" y="85" type="curve" smooth="yes"/>
      <point x="201" y="85"/>
      <point x="143" y="103"/>
      <point x="81" y="141" type="curve"/>
      <point x="59" y="41" type="line"/>
      <point x="114" y="9"/>
      <point x="194" y="-15"/>
      <point x="274" y="-15" type="curve" smooth="yes"/>
    </contour>
  </outline>
</glyph>
<glyph name="dv_Uu" format="1">
  <advance width="880"/>
  <unicode hex="090A"/>
  <outline>
    <contour>
      <point x="512" y="534"/>
      <point x="504" y="561"/>
      <point x="492" y="583" type="curve"/>
      <point x="891" y="583" type="line"/>
      <point x="875" y="680" type="line"/>
      <point x="-11" y="680" type="line"/>
      <point x="5" y="583" type="line"/>
      <point x="338" y="583" type="line"/>
      <point x="369" y="567"/>
      <point x="387" y="538"/>
      <point x="387" y="506" type="curve"/>
      <point x="387" y="444"/>
      <point x="340" y="396"/>
      <point x="244" y="396" type="curve"/>
      <point x="134" y="396" type="line"/>
      <point x="150" y="307" type="line"/>
      <point x="237" y="307" type="line" smooth="yes"/>
      <point x="362" y="307"/>
      <point x="400" y="262"/>
      <point x="400" y="189" type="curve"/>
      <point x="400" y="121"/>
      <point x="338" y="85"/>
      <point x="268" y="85" type="curve"/>
      <point x="201" y="85"/>
      <point x="142" y="103"/>
      <point x="81" y="142" type="curve"/>
      <point x="58" y="42" type="line"/>
      <point x="115" y="9"/>
      <point x="195" y="-15"/>
      <point x="274" y="-15" type="curve"/>
      <point x="429" y="-15"/>
      <point x="525" y="73"/>
      <point x="525" y="191" type="curve"/>
      <point x="525" y="205"/>
      <point x="523" y="220"/>
      <point x="518" y="234" type="curve"/>
      <point x="541" y="261"/>
      <point x="573" y="287"/>
      <point x="629" y="287" type="curve"/>
      <point x="688" y="287"/>
      <point x="728" y="245"/>
      <point x="728" y="185" type="curve"/>
      <point x="728" y="122"/>
      <point x="680" y="80"/>
      <point x="601" y="80" type="curve"/>
      <point x="623" y="-20" type="line"/>
      <point x="745" y="-20"/>
      <point x="846" y="55"/>
      <point x="846" y="180" type="curve"/>
      <point x="846" y="302"/>
      <point x="770" y="388"/>
      <point x="631" y="388" type="curve"/>
      <point x="557" y="388"/>
      <point x="497" y="353"/>
      <point x="463" y="320" type="curve"/>
      <point x="447" y="333"/>
      <point x="426" y="343"/>
      <point x="403" y="348" type="curve"/>
      <point x="477" y="373"/>
      <point x="512" y="447"/>
      <point x="512" y="507" type="curve"/>
    </contour>
  </outline>
</glyph>
<glyph name="dv_VocalicR" format="1">
  <advance width="906"/>
  <unicode hex="090B"/>
  <outline>
    <contour>
      <point x="651" y="136"/>
      <point x="642" y="136"/>
      <point x="598" y="150" type="curve"/>
      <point x="571" y="54" type="line"/>
      <point x="604" y="41"/>
      <point x="644" y="36"/>
      <point x="685" y="36" type="curve" smooth="yes"/>
      <point x="785" y="36"/>
      <point x="855" y="95"/>
      <point x="855" y="200" type="curve" smooth="yes"/>
      <point x="855" y="249"/>
      <point x="830" y="327"/>
      <point x="773" y="393" type="curve"/>
      <point x="787" y="408"/>
      <point x="791" y="423"/>
      <point x="791" y="440" type="curve" smooth="yes"/>
      <point x="791" y="494"/>
      <point x="731" y="525"/>
      <point x="684" y="525" type="curve" smooth="yes"/>
      <point x="650" y="525"/>
      <point x="621" y="507"/>
      <point x="621" y="466" type="curve" smooth="yes"/>
      <point x="621" y="439"/>
      <point x="630" y="419"/>
      <point x="640" y="404" type="curve"/>
      <point x="623" y="385"/>
      <point x="560" y="355"/>
      <point x="489" y="355" type="curve"/>
      <point x="489" y="583" type="line"/>
      <point x="917" y="583" type="line"/>
      <point x="901" y="680" type="line"/>
      <point x="-11" y="680" type="line"/>
      <point x="-5" y="647"/>
      <point x="0" y="615"/>
      <point x="5" y="583" type="curve"/>
      <point x="366" y="583" type="line"/>
      <point x="366" y="422" type="line"/>
      <point x="296" y="482"/>
      <point x="236" y="485"/>
      <point x="182" y="485" type="curve" smooth="yes"/>
      <point x="157" y="485"/>
      <point x="76" y="466"/>
      <point x="35" y="446" type="curve"/>
      <point x="82" y="343" type="line"/>
      <point x="126" y="364"/>
      <point x="170" y="377"/>
      <point x="194" y="377" type="curve" smooth="yes"/>
      <point x="235" y="377"/>
      <point x="277" y="363"/>
      <point x="336" y="305" type="curve"/>
      <point x="83" y="155" type="line"/>
      <point x="106" y="125"/>
      <point x="127" y="94"/>
      <point x="150" y="64" type="curve"/>
      <point x="366" y="193" type="line"/>
      <point x="366" y="0" type="line"/>
      <point x="489" y="-16" type="line"/>
      <point x="489" y="256" type="line"/>
      <point x="566" y="256"/>
      <point x="666" y="288"/>
      <point x="700" y="324" type="curve"/>
      <point x="732" y="279"/>
      <point x="747" y="237"/>
      <point x="747" y="204" type="curve" smooth="yes"/>
      <point x="747" y="158"/>
      <point x="717" y="136"/>
      <point x="680" y="136" type="curve" smooth="yes"/>
    </contour>
  </outline>
</glyph>
<glyph name="dv_E" format="1">
  <advance width="721"/>
  <unicode hex="090F"/>
  <outline>
    <contour>
      <point x="495" y="274" type="line"/>
      <point x="496" y="207"/>
      <point x="464" y="184"/>
      <point x="387" y="157" type="curve"/>
      <point x="439" y="65" type="line"/>
      <point x="562" y="105"/>
      <point x="618" y="156"/>
      <point x="618" y="253" type="curve"/>
      <point x="618" y="583" type="line"/>
      <point x="733" y="583" type="line"/>
      <point x="717" y="680" type="line"/>
      <point x="-11" y="680" type="line"/>
      <point x="5" y="583" type="line"/>
      <point x="105" y="583" type="line"/>
      <point x="105" y="151" type="line" smooth="yes"/>
      <point x="105" y="61"/>
      <point x="139" y="10"/>
      <point x="208" y="-29" type="curve"/>
      <point x="465" y="-181" type="line"/>
      <point x="525" y="-89" type="line"/>
      <point x="272" y="69" type="line" smooth="yes"/>
      <point x="236" y="92"/>
      <point x="228" y="127"/>
      <point x="228" y="161" type="curve"/>
      <point x="228" y="583" type="line"/>
      <point x="495" y="583" type="line"/>
    </contour>
  </outline>
</glyph>
<glyph name="dv_CandraO" format="1">
  <advance width="1261"/>
  <unicode hex="0911"/>
  <outline>
    <contour>
      <point x="1085" y="951" type="line"/>
      <point x="1046" y="879"/>
      <point x="984" y="854"/>
      <point x="938" y="854" type="curve" smooth="yes"/>
      <point x="887" y="854"/>
      <point x="823" y="883"/>
      <point x="789" y="951" type="curve"/>
      <point x="761" y="934"/>
      <point x="733" y="917"/>
      <point x="705" y="899" type="curve"/>
      <point x="758" y="794"/>
      <point x="845" y="760"/>
      <point x="938" y="760" type="curve" smooth="yes"/>
      <point x="1030" y="760"/>
      <point x="1116" y="793"/>
      <point x="1170" y="899" type="curve"/>
    </contour>
    <contour>
      <point x="435" y="-15"/>
      <point x="530" y="73"/>
      <point x="530" y="191" type="curve" smooth="yes"/>
      <point x="530" y="236"/>
      <point x="510" y="280"/>
      <point x="472" y="305" type="curve"/>
      <point x="714" y="305" type="line"/>
      <point x="714" y="0" type="line"/>
      <point x="836" y="-16" type="line"/>
      <point x="836" y="583" type="line"/>
      <point x="1032" y="583" type="line"/>
      <point x="1032" y="0" type="line"/>
      <point x="1156" y="-16" type="line"/>
      <point x="1156" y="583" type="line"/>
      <point x="1272" y="583" type="line"/>
      <point x="1255" y="680" type="line"/>
      <point x="598" y="680" type="line"/>
      <point x="615" y="583" type="line"/>
      <point x="714" y="583" type="line"/>
      <point x="714" y="396" type="line"/>
      <point x="458" y="396" type="line"/>
      <point x="492" y="423"/>
      <point x="516" y="466"/>
      <point x="516" y="507" type="curve" smooth="yes"/>
      <point x="516" y="607"/>
      <point x="446" y="697"/>
      <point x="294" y="697" type="curve" smooth="yes"/>
      <point x="210" y="697"/>
      <point x="136" y="673"/>
      <point x="75" y="632" type="curve"/>
      <point x="81" y="598"/>
      <point x="87" y="564"/>
      <point x="92" y="530" type="curve"/>
      <point x="159" y="577"/>
      <point x="217" y="597"/>
      <point x="283" y="597" type="curve" smooth="yes"/>
      <point x="353" y="597"/>
      <point x="391" y="554"/>
      <point x="391" y="505" type="curve" smooth="yes"/>
      <point x="391" y="444"/>
      <point x="346" y="395"/>
      <point x="249" y="395" type="curve" smooth="yes"/>
      <point x="139" y="395" type="line"/>
      <point x="155" y="307" type="line"/>
      <point x="242" y="307" type="line" smooth="yes"/>
      <point x="367" y="307"/>
      <point x="406" y="261"/>
      <point x="406" y="189" type="curve" smooth="yes"/>
      <point x="406" y="119"/>
      <point x="343" y="85"/>
      <point x="273" y="85" type="curve" smooth="yes"/>
      <point x="206" y="85"/>
      <point x="147" y="103"/>
      <point x="85" y="141" type="curve"/>
      <point x="63" y="41" type="line"/>
      <point x="119" y="9"/>
      <point x="199" y="-15"/>
      <point x="279" y="-15" type="curve" smooth="yes"/>
    </contour>
  </outline>
</glyph>
<glyph name="dv_O" format="1">
  <advance width="1261"/>
  <unicode hex="0913"/>
  <outline>
    <contour>
      <point x="598" y="680" type="line"/>
      <point x="615" y="583" type="line"/>
      <point x="714" y="583" type="line"/>
      <point x="714" y="396" type="line"/>
      <point x="458" y="396" type="line"/>
      <point x="492" y="424"/>
      <point x="514" y="467"/>
      <point x="514" y="507" type="curve" smooth="yes"/>
      <point x="514" y="607"/>
      <point x="445" y="697"/>
      <point x="294" y="697" type="curve" smooth="yes"/>
      <point x="210" y="697"/>
      <point x="136" y="673"/>
      <point x="75" y="632" type="curve"/>
      <point x="81" y="598"/>
      <point x="87" y="564"/>
      <point x="92" y="530" type="curve"/>
      <point x="159" y="577"/>
      <point x="217" y="597"/>
      <point x="283" y="597" type="curve" smooth="yes"/>
      <point x="355" y="597"/>
      <point x="389" y="554"/>
      <point x="389" y="508" type="curve" smooth="yes"/>
      <point x="389" y="446"/>
      <point x="346" y="395"/>
      <point x="249" y="395" type="curve" smooth="yes"/>
      <point x="139" y="395" type="line"/>
      <point x="155" y="307" type="line"/>
      <point x="242" y="307" type="line" smooth="yes"/>
      <point x="367" y="307"/>
      <point x="406" y="261"/>
      <point x="406" y="189" type="curve" smooth="yes"/>
      <point x="406" y="119"/>
      <point x="343" y="85"/>
      <point x="273" y="85" type="curve" smooth="yes"/>
      <point x="206" y="85"/>
      <point x="147" y="103"/>
      <point x="85" y="141" type="curve"/>
      <point x="63" y="41" type="line"/>
      <point x="119" y="9"/>
      <point x="199" y="-15"/>
      <point x="279" y="-15" type="curve" smooth="yes"/>
      <point x="435" y="-15"/>
      <point x="530" y="73"/>
      <point x="530" y="191" type="curve" smooth="yes"/>
      <point x="530" y="236"/>
      <point x="510" y="280"/>
      <point x="472" y="305" type="curve"/>
      <point x="714" y="305" type="line"/>
      <point x="714" y="0" type="line"/>
      <point x="836" y="-16" type="line"/>
      <point x="836" y="583" type="line"/>
      <point x="1032" y="583" type="line"/>
      <point x="1032" y="0" type="line"/>
      <point x="1156" y="-16" type="line"/>
      <point x="1156" y="583" type="line"/>
      <point x="1272" y="583" type="line"/>
      <point x="1255" y="680" type="line"/>
      <point x="1137" y="680" type="line"/>
      <point x="855" y="959" type="line"/>
      <point x="764" y="889" type="line"/>
      <point x="840" y="819"/>
      <point x="915" y="749"/>
      <point x="991" y="680" type="curve"/>
    </contour>
  </outline>
</glyph>
<glyph name="dv_Ka" format="1">
  <advance width="905"/>
  <unicode hex="0915"/>
  <outline>
    <contour>
      <point x="218" y="171"/>
      <point x="162" y="218"/>
      <point x="162" y="284" type="curve"/>
      <point x="163" y="352"/>
      <point x="219" y="398"/>
      <point x="278" y="398" type="curve"/>
      <point x="336" y="398"/>
      <point x="373" y="365"/>
      <point x="394" y="334" type="curve"/>
      <point x="394" y="235" type="line"/>
      <point x="373" y="205"/>
      <point x="336" y="171"/>
      <point x="278" y="171" type="curve"/>
    </contour>
    <contour>
      <point x="44" y="160"/>
      <point x="138" y="70"/>
      <point x="274" y="70" type="curve"/>
      <point x="317" y="70"/>
      <point x="372" y="91"/>
      <point x="394" y="115" type="curve"/>
      <point x="394" y="0" type="line"/>
      <point x="517" y="-16" type="line"/>
      <point x="517" y="331" type="line"/>
      <point x="537" y="361"/>
      <point x="570" y="399"/>
      <point x="639" y="399" type="curve"/>
      <point x="698" y="399"/>
      <point x="748" y="352"/>
      <point x="748" y="286" type="curve"/>
      <point x="748" y="218"/>
      <point x="690" y="171"/>
      <point x="611" y="171" type="curve"/>
      <point x="631" y="70" type="line"/>
      <point x="753" y="70"/>
      <point x="868" y="150"/>
      <point x="868" y="285" type="curve"/>
      <point x="868" y="407"/>
      <point x="776" y="501"/>
      <point x="637" y="501" type="curve"/>
      <point x="591" y="501"/>
      <point x="539" y="478"/>
      <point x="517" y="456" type="curve"/>
      <point x="517" y="583" type="line"/>
      <point x="916" y="583" type="line"/>
      <point x="901" y="680" type="line"/>
      <point x="-11" y="680" type="line"/>
      <point x="5" y="583" type="line"/>
      <point x="394" y="583" type="line"/>
      <point x="394" y="455" type="line"/>
      <point x="372" y="479"/>
      <point x="317" y="500"/>
      <point x="274" y="500" type="curve"/>
      <point x="135" y="500"/>
      <point x="44" y="407"/>
      <point x="44" y="285" type="curve"/>
    </contour>
  </outline>
</glyph>
<glyph name="dv_Gha" format="1">
  <advance width="711"/>
  <unicode hex="0918"/>
  <outline>
    <contour>
      <point x="483" y="0" type="line"/>
      <point x="606" y="-16" type="line"/>
      <point x="606" y="583" type="line"/>
      <point x="722" y="583" type="line"/>
      <point x="705" y="680" type="line"/>
      <point x="-11" y="680" type="line"/>
      <point x="5" y="583" type="line"/>
      <point x="91" y="583" type="line"/>
      <point x="83" y="566"/>
      <point x="77" y="544"/>
      <point x="77" y="529" type="curve"/>
      <point x="77" y="479"/>
      <point x="99" y="430"/>
      <point x="134" y="403" type="curve"/>
      <point x="90" y="376"/>
      <point x="66" y="324"/>
      <point x="66" y="264" type="curve"/>
      <point x="66" y="151"/>
      <point x="151" y="73"/>
      <point x="286" y="73" type="curve"/>
      <point x="370" y="73"/>
      <point x="440" y="112"/>
      <point x="483" y="154" type="curve"/>
    </contour>
    <contour>
      <point x="232" y="181"/>
      <point x="188" y="212"/>
      <point x="188" y="262" type="curve"/>
      <point x="188" y="312"/>
      <point x="223" y="353"/>
      <point x="302" y="353" type="curve"/>
      <point x="361" y="353" type="line"/>
      <point x="341" y="447" type="line"/>
      <point x="295" y="447" type="line" smooth="yes"/>
      <point x="230" y="447"/>
      <point x="194" y="482"/>
      <point x="194" y="527" type="curve"/>
      <point x="194" y="550"/>
      <point x="204" y="573"/>
      <point x="224" y="583" type="curve"/>
      <point x="483" y="583" type="line"/>
      <point x="483" y="382" type="line"/>
      <point x="470" y="249"/>
      <point x="388" y="181"/>
      <point x="289" y="181" type="curve"/>
    </contour>
  </outline>
</glyph>
<glyph name="dv_Ca" format="1">
  <advance width="720"/>
  <unicode hex="091A"/>
  <outline>
    <contour>
      <point x="493" y="0" type="line"/>
      <point x="615" y="-16" type="line"/>
      <point x="615" y="583" type="line"/>
      <point x="731" y="583" type="line"/>
      <point x="715" y="680" type="line"/>
      <point x="-11" y="680" type="line"/>
      <point x="5" y="583" type="line"/>
      <point x="493" y="583" type="line"/>
      <point x="493" y="261" type="line"/>
      <point x="480" y="211"/>
      <point x="422" y="178"/>
      <point x="364" y="178" type="curve"/>
      <point x="296" y="178"/>
      <point x="243" y="215"/>
      <point x="243" y="276" type="curve"/>
      <point x="243" y="336"/>
      <point x="284" y="372"/>
      <point x="371" y="374" type="curve"/>
      <point x="408" y="374" type="line"/>
      <point x="392" y="471" type="line"/>
      <point x="36" y="471" type="line"/>
      <point x="51" y="374" type="line"/>
      <point x="159" y="374" type="line"/>
      <point x="141" y="347"/>
      <point x="130" y="315"/>
      <point x="130" y="276" type="curve"/>
      <point x="130" y="145"/>
      <point x="236" y="76"/>
      <point x="364" y="76" type="curve"/>
      <point x="408" y="76"/>
      <point x="460" y="88"/>
      <point x="493" y="105" type="curve"/>
    </contour>
  </outline>
</glyph>
<glyph name="dv_Cha" format="1">
  <advance width="823"/>
  <unicode hex="091B"/>
  <outline>
    <contour>
      <point x="625" y="-15"/>
      <point x="773" y="218"/>
      <point x="773" y="382" type="curve" smooth="yes"/>
      <point x="773" y="444"/>
      <point x="740" y="506"/>
      <point x="676" y="533" type="curve"/>
      <point x="676" y="583" type="line"/>
      <point x="834" y="583" type="line"/>
      <point x="818" y="680" type="line"/>
      <point x="-11" y="680" type="line"/>
      <point x="-5" y="647"/>
      <point x="0" y="615"/>
      <point x="5" y="583" type="curve"/>
      <point x="105" y="583" type="line"/>
      <point x="93" y="561"/>
      <point x="86" y="535"/>
      <point x="86" y="507" type="curve" smooth="yes"/>
      <point x="86" y="448"/>
      <point x="120" y="374"/>
      <point x="194" y="349" type="curve"/>
      <point x="115" y="332"/>
      <point x="72" y="259"/>
      <point x="72" y="191" type="curve" smooth="yes"/>
      <point x="72" y="62"/>
      <point x="184" y="-15"/>
      <point x="353" y="-15" type="curve" smooth="yes"/>
    </contour>
    <contour>
      <point x="272" y="85"/>
      <point x="197" y="124"/>
      <point x="197" y="195" type="curve" smooth="yes"/>
      <point x="197" y="267"/>
      <point x="248" y="308"/>
      <point x="361" y="308" type="curve" smooth="yes"/>
      <point x="391" y="308" type="line"/>
      <point x="386" y="338"/>
      <point x="381" y="368"/>
      <point x="375" y="397" type="curve"/>
      <point x="353" y="397" type="line" smooth="yes"/>
      <point x="257" y="397"/>
      <point x="211" y="445"/>
      <point x="211" y="506" type="curve" smooth="yes"/>
      <point x="211" y="539"/>
      <point x="228" y="567"/>
      <point x="259" y="583" type="curve"/>
      <point x="574" y="583" type="line"/>
      <point x="574" y="541" type="line"/>
      <point x="503" y="526"/>
      <point x="455" y="461"/>
      <point x="455" y="382" type="curve" smooth="yes"/>
      <point x="455" y="296"/>
      <point x="521" y="233"/>
      <point x="598" y="218" type="curve"/>
      <point x="561" y="148"/>
      <point x="474" y="85"/>
      <point x="360" y="85" type="curve" smooth="yes"/>
    </contour>
    <contour>
      <point x="669" y="348"/>
      <point x="661" y="320"/>
      <point x="649" y="300" type="curve"/>
      <point x="604" y="302"/>
      <point x="557" y="334"/>
      <point x="557" y="382" type="curve" smooth="yes"/>
      <point x="557" y="419"/>
      <point x="578" y="449"/>
      <point x="611" y="449" type="curve" smooth="yes"/>
      <point x="654" y="449"/>
      <point x="669" y="414"/>
      <point x="669" y="376" type="curve" smooth="yes"/>
    </contour>
  </outline>
</glyph>
<glyph name="dv_Jha" format="1">
  <advance width="881"/>
  <unicode hex="091D"/>
  <outline>
    <contour>
      <point x="258" y="84"/>
      <point x="239" y="86"/>
      <point x="221" y="89" type="curve"/>
      <point x="205" y="132"/>
      <point x="161" y="168"/>
      <point x="110" y="168" type="curve" smooth="yes"/>
      <point x="75" y="168"/>
      <point x="49" y="145"/>
      <point x="49" y="111" type="curve" smooth="yes"/>
      <point x="49" y="56"/>
      <point x="99" y="17"/>
      <point x="139" y="-2" type="curve"/>
      <point x="265" y="-169" type="line"/>
      <point x="292" y="-149"/>
      <point x="319" y="-130"/>
      <point x="346" y="-111" type="curve"/>
      <point x="269" y="-15" type="line"/>
      <point x="292" y="-13"/>
      <point x="315" y="-13"/>
      <point x="336" y="-10" type="curve" smooth="yes"/>
      <point x="447" y="7"/>
      <point x="511" y="78"/>
      <point x="511" y="157" type="curve" smooth="yes"/>
      <point x="511" y="164"/>
      <point x="509" y="171"/>
      <point x="508" y="178" type="curve"/>
      <point x="653" y="178" type="line"/>
      <point x="653" y="0" type="line"/>
      <point x="776" y="-16" type="line"/>
      <point x="776" y="583" type="line"/>
      <point x="893" y="583" type="line"/>
      <point x="876" y="680" type="line"/>
      <point x="-11" y="680" type="line"/>
      <point x="-5" y="647"/>
      <point x="0" y="615"/>
      <point x="5" y="583" type="curve"/>
      <point x="331" y="583" type="line"/>
      <point x="331" y="521" type="line"/>
      <point x="218" y="521" type="line" smooth="yes"/>
      <point x="123" y="521"/>
      <point x="50" y="468"/>
      <point x="50" y="372" type="curve" smooth="yes"/>
      <point x="50" y="281"/>
      <point x="135" y="223"/>
      <point x="219" y="223" type="curve" smooth="yes"/>
      <point x="312" y="223" type="line" smooth="yes"/>
      <point x="362" y="223"/>
      <point x="386" y="194"/>
      <point x="386" y="157" type="curve" smooth="yes"/>
      <point x="386" y="119"/>
      <point x="350" y="84"/>
      <point x="279" y="84" type="curve" smooth="yes"/>
    </contour>
    <contour>
      <point x="653" y="583" type="line"/>
      <point x="653" y="269" type="line"/>
      <point x="471" y="269" type="line"/>
      <point x="434" y="307"/>
      <point x="376" y="324"/>
      <point x="304" y="324" type="curve" smooth="yes"/>
      <point x="223" y="324" type="line" smooth="yes"/>
      <point x="190" y="324"/>
      <point x="166" y="346"/>
      <point x="166" y="372" type="curve" smooth="yes"/>
      <point x="166" y="398"/>
      <point x="187" y="419"/>
      <point x="221" y="419" type="curve" smooth="yes"/>
      <point x="452" y="419" type="line"/>
      <point x="452" y="583" type="line"/>
    </contour>
  </outline>
</glyph>
<glyph name="dv_Tta" format="1">
  <advance width="644"/>
  <unicode hex="091F"/>
  <outline>
    <contour>
      <point x="268" y="86"/>
      <point x="170" y="120"/>
      <point x="170" y="237" type="curve" smooth="yes"/>
      <point x="170" y="332"/>
      <point x="260" y="391"/>
      <point x="376" y="391" type="curve" smooth="yes"/>
      <point x="515" y="391" type="line"/>
      <point x="515" y="583" type="line"/>
      <point x="654" y="583" type="line"/>
      <point x="639" y="680" type="line"/>
      <point x="-11" y="680" type="line"/>
      <point x="-5" y="647"/>
      <point x="0" y="615"/>
      <point x="5" y="583" type="curve"/>
      <point x="392" y="583" type="line"/>
      <point x="392" y="493" type="line"/>
      <point x="376" y="493" type="line" smooth="yes"/>
      <point x="203" y="493"/>
      <point x="56" y="407"/>
      <point x="56" y="237" type="curve" smooth="yes"/>
      <point x="56" y="50"/>
      <point x="208" y="-18"/>
      <point x="365" y="-18" type="curve" smooth="yes"/>
      <point x="444" y="-18"/>
      <point x="527" y="1"/>
      <point x="585" y="39" type="curve"/>
      <point x="569" y="151" type="line"/>
      <point x="496" y="97"/>
      <point x="428" y="86"/>
      <point x="365" y="86" type="curve" smooth="yes"/>
    </contour>
  </outline>
</glyph>
<glyph name="dv_Ttha" format="1">
  <advance width="716"/>
  <unicode hex="0920"/>
  <outline>
    <contour>
      <point x="56" y="49"/>
      <point x="204" y="-17"/>
      <point x="360" y="-18" type="curve"/>
      <point x="528" y="-17"/>
      <point x="666" y="67"/>
      <point x="666" y="238" type="curve"/>
      <point x="666" y="400"/>
      <point x="554" y="469"/>
      <point x="422" y="486" type="curve"/>
      <point x="422" y="583" type="line"/>
      <point x="728" y="583" type="line"/>
      <point x="711" y="680" type="line"/>
      <point x="-11" y="680" type="line"/>
      <point x="5" y="583" type="line"/>
      <point x="299" y="583" type="line"/>
      <point x="299" y="487" type="line"/>
      <point x="160" y="467"/>
      <point x="56" y="384"/>
      <point x="56" y="236" type="curve"/>
    </contour>
    <contour>
      <point x="458" y="387"/>
      <point x="551" y="354"/>
      <point x="551" y="238" type="curve"/>
      <point x="551" y="141"/>
      <point x="473" y="86"/>
      <point x="360" y="86" type="curve"/>
      <point x="264" y="86"/>
      <point x="170" y="119"/>
      <point x="170" y="236" type="curve"/>
      <point x="170" y="332"/>
      <point x="249" y="387"/>
      <point x="360" y="387" type="curve"/>
    </contour>
  </outline>
</glyph>
<glyph name="dv_Nna" format="1">
  <advance width="927"/>
  <unicode hex="0923"/>
  <outline>
    <contour>
      <point x="214" y="583" type="line"/>
      <point x="400" y="583" type="line"/>
      <point x="400" y="361" type="line" smooth="yes"/>
      <point x="400" y="291"/>
      <point x="367" y="248"/>
      <point x="308" y="248" type="curve" smooth="yes"/>
      <point x="246" y="248"/>
      <point x="214" y="291"/>
      <point x="214" y="361" type="curve"/>
    </contour>
    <contour>
      <point x="431" y="145"/>
      <point x="523" y="223"/>
      <point x="523" y="361" type="curve" smooth="yes"/>
      <point x="523" y="583" type="line"/>
      <point x="698" y="583" type="line"/>
      <point x="698" y="0" type="line"/>
      <point x="821" y="-16" type="line"/>
      <point x="821" y="583" type="line"/>
      <point x="938" y="583" type="line"/>
      <point x="933" y="615"/>
      <point x="928" y="647"/>
      <point x="922" y="680" type="curve"/>
      <point x="-11" y="680" type="line"/>
      <point x="-5" y="647"/>
      <point x="0" y="615"/>
      <point x="5" y="583" type="curve"/>
      <point x="91" y="583" type="line"/>
      <point x="91" y="361" type="line" smooth="yes"/>
      <point x="91" y="223"/>
      <point x="184" y="146"/>
      <point x="307" y="145" type="curve"/>
    </contour>
  </outline>
</glyph>
<glyph name="dv_Na" format="1">
  <advance width="648"/>
  <unicode hex="0928"/>
  <outline>
    <contour>
      <point x="420" y="285" type="line"/>
      <point x="420" y="0" type="line"/>
      <point x="543" y="-16" type="line"/>
      <point x="543" y="583" type="line"/>
      <point x="659" y="583" type="line"/>
      <point x="644" y="680" type="line"/>
      <point x="-11" y="680" type="line"/>
      <point x="-5" y="647"/>
      <point x="0" y="615"/>
      <point x="5" y="583" type="curve"/>
      <point x="420" y="583" type="line"/>
      <point x="420" y="381" type="line"/>
      <point x="95" y="381" type="line" smooth="yes"/>
      <point x="56" y="381"/>
      <point x="32" y="363"/>
      <point x="32" y="329" type="curve" smooth="yes"/>
      <point x="32" y="263"/>
      <point x="108" y="207"/>
      <point x="166" y="207" type="curve" smooth="yes"/>
      <point x="192" y="207"/>
      <point x="211" y="245"/>
      <point x="211" y="285" type="curve"/>
    </contour>
  </outline>
</glyph>
<glyph name="dv_Nnna" format="1">
  <advance width="648"/>
  <unicode hex="0929"/>
  <outline>
    <contour>
      <point x="104" y="-31"/>
      <point x="135" y="-63"/>
      <point x="175" y="-63" type="curve" smooth="yes"/>
      <point x="215" y="-63"/>
      <point x="247" y="-31"/>
      <point x="247" y="8" type="curve" smooth="yes"/>
      <point x="247" y="47"/>
      <point x="215" y="79"/>
      <point x="175" y="79" type="curve" smooth="yes"/>
      <point x="135" y="79"/>
      <point x="104" y="47"/>
      <point x="104" y="8" type="curve" smooth="yes"/>
    </contour>
    <contour>
      <point x="420" y="285" type="line"/>
      <point x="420" y="0" type="line"/>
      <point x="543" y="-16" type="line"/>
      <point x="543" y="583" type="line"/>
      <point x="659" y="583" type="line"/>
      <point x="644" y="680" type="line"/>
      <point x="-11" y="680" type="line"/>
      <point x="-5" y="647"/>
      <point x="0" y="615"/>
      <point x="5" y="583" type="curve"/>
      <point x="420" y="583" type="line"/>
      <point x="420" y="381" type="line"/>
      <point x="95" y="381" type="line" smooth="yes"/>
      <point x="56" y="381"/>
      <point x="32" y="363"/>
      <point x="32" y="329" type="curve" smooth="yes"/>
      <point x="32" y="263"/>
      <point x="108" y="207"/>
      <point x="166" y="207" type="curve" smooth="yes"/>
      <point x="192" y="207"/>
      <point x="211" y="245"/>
      <point x="211" y="285" type="curve"/>
    </contour>
  </outline>
</glyph>
<glyph name="dv_Pa" format="1">
  <advance width="672"/>
  <unicode hex="092A"/>
  <outline>
    <contour>
      <point x="444" y="0" type="line"/>
      <point x="567" y="-16" type="line"/>
      <point x="567" y="583" type="line"/>
      <point x="683" y="583" type="line"/>
      <point x="667" y="680" type="line"/>
      <point x="-11" y="680" type="line"/>
      <point x="5" y="583" type="line"/>
      <point x="81" y="583" type="line"/>
      <point x="81" y="377" type="line" smooth="yes"/>
      <point x="81" y="239"/>
      <point x="184" y="158"/>
      <point x="316" y="158" type="curve"/>
      <point x="360" y="158"/>
      <point x="413" y="172"/>
      <point x="444" y="192" type="curve"/>
    </contour>
    <contour>
      <point x="245" y="261"/>
      <point x="205" y="305"/>
      <point x="205" y="377" type="curve"/>
      <point x="205" y="583" type="line"/>
      <point x="444" y="583" type="line"/>
      <point x="444" y="364" type="line"/>
      <point x="437" y="299"/>
      <point x="387" y="261"/>
      <point x="321" y="261" type="curve"/>
    </contour>
  </outline>
</glyph>
<glyph name="dv_Ya" format="1">
  <advance width="654"/>
  <unicode hex="092F"/>
  <outline>
    <contour>
      <point x="141" y="411"/>
      <point x="77" y="386"/>
      <point x="54" y="360" type="curve"/>
      <point x="54" y="253"/>
      <point x="171" y="157"/>
      <point x="293" y="157" type="curve" smooth="yes"/>
      <point x="356" y="157"/>
      <point x="395" y="172"/>
      <point x="426" y="191" type="curve"/>
      <point x="426" y="0" type="line"/>
      <point x="549" y="-16" type="line"/>
      <point x="549" y="583" type="line"/>
      <point x="665" y="583" type="line"/>
      <point x="650" y="680" type="line"/>
      <point x="-11" y="680" type="line"/>
      <point x="-5" y="647"/>
      <point x="0" y="615"/>
      <point x="5" y="583" type="curve"/>
      <point x="85" y="583" type="line"/>
      <point x="117" y="571"/>
      <point x="141" y="538"/>
      <point x="141" y="498" type="curve" smooth="yes"/>
    </contour>
    <contour>
      <point x="426" y="583" type="line"/>
      <point x="426" y="365" type="line"/>
      <point x="419" y="300"/>
      <point x="364" y="260"/>
      <point x="297" y="260" type="curve" smooth="yes"/>
      <point x="227" y="260"/>
      <point x="187" y="303"/>
      <point x="171" y="336" type="curve"/>
      <point x="226" y="373"/>
      <point x="251" y="431"/>
      <point x="251" y="492" type="curve" smooth="yes"/>
      <point x="251" y="527"/>
      <point x="240" y="562"/>
      <point x="227" y="583" type="curve"/>
    </contour>
  </outline>
</glyph>
<glyph name="dv_La" format="1">
  <advance width="861"/>
  <unicode hex="0932"/>
  <outline>
    <contour>
      <point x="632" y="0" type="line"/>
      <point x="755" y="-16" type="line"/>
      <point x="755" y="583" type="line"/>
      <point x="872" y="583" type="line"/>
      <point x="855" y="680" type="line"/>
      <point x="-11" y="680" type="line"/>
      <point x="5" y="583" type="line"/>
      <point x="632" y="583" type="line"/>
      <point x="632" y="475" type="line"/>
      <point x="610" y="489"/>
      <point x="578" y="497"/>
      <point x="550" y="497" type="curve"/>
      <point x="494" y="497"/>
      <point x="442" y="477"/>
      <point x="408" y="438" type="curve"/>
      <point x="373" y="476"/>
      <point x="319" y="496"/>
      <point x="260" y="497" type="curve"/>
      <point x="152" y="496"/>
      <point x="61" y="412"/>
      <point x="61" y="317" type="curve"/>
      <point x="61" y="212"/>
      <point x="106" y="125"/>
      <point x="183" y="-23" type="curve"/>
      <point x="281" y="11" type="line"/>
      <point x="202" y="171"/>
      <point x="171" y="237"/>
      <point x="171" y="310" type="curve"/>
      <point x="171" y="354"/>
      <point x="208" y="393"/>
      <point x="260" y="393" type="curve"/>
      <point x="328" y="393"/>
      <point x="354" y="347"/>
      <point x="354" y="278" type="curve"/>
      <point x="355" y="153" type="line"/>
      <point x="466" y="138" type="line"/>
      <point x="466" y="278" type="line" smooth="yes"/>
      <point x="466" y="347"/>
      <point x="498" y="396"/>
      <point x="549" y="396" type="curve"/>
      <point x="596" y="396"/>
      <point x="626" y="359"/>
      <point x="632" y="302" type="curve"/>
    </contour>
  </outline>
</glyph>
<glyph name="dv_MatraOoe" format="1">
  <advance width="332"/>
  <unicode hex="093B"/>
  <outline>
    <contour>
      <point x="224" y="886" type="line"/>
      <point x="106" y="902" type="line"/>
      <point x="106" y="680" type="line"/>
      <point x="-11" y="680" type="line"/>
      <point x="-5" y="647"/>
      <point x="0" y="615"/>
      <point x="5" y="583" type="curve"/>
      <point x="103" y="583" type="line"/>
      <point x="103" y="0" type="line"/>
      <point x="227" y="-16" type="line"/>
      <point x="227" y="583" type="line"/>
      <point x="343" y="583" type="line"/>
      <point x="338" y="615"/>
      <point x="332" y="647"/>
      <point x="326" y="680" type="curve"/>
      <point x="224" y="680" type="line"/>
    </contour>
  </outline>
</glyph>
<glyph name="dv_Nukta" format="1">
  <advance width="0"/>
  <unicode hex="093C"/>
  <outline>
    <contour>
      <point x="17" y="-164"/>
      <point x="48" y="-195"/>
      <point x="88" y="-195" type="curve"/>
      <point x="129" y="-195"/>
      <point x="160" y="-164"/>
      <point x="160" y="-124" type="curve"/>
      <point x="160" y="-84"/>
      <point x="129" y="-52"/>
      <point x="88" y="-52" type="curve"/>
      <point x="48" y="-52"/>
      <point x="17" y="-84"/>
      <point x="17" y="-124" type="curve"/>
    </contour>
  </outline>
</glyph>
<glyph name="dv_MatraIi" format="1">
  <advance width="332"/>
  <unicode hex="0940"/>
  <outline>
    <contour>
      <point x="-153" y="728"/>
      <point x="-115" y="737"/>
      <point x="-77" y="746" type="curve"/>
      <point x="-90" y="765"/>
      <point x="-99" y="781"/>
      <point x="-99" y="803" type="curve" smooth="yes"/>
      <point x="-99" y="823"/>
      <point x="-85" y="847"/>
      <point x="-56" y="847" type="curve" smooth="yes"/>
      <point x="16" y="847"/>
      <point x="65" y="743"/>
      <point x="86" y="680" type="curve"/>
      <point x="-12" y="680" type="line"/>
      <point x="-6" y="647"/>
      <point x="-1" y="615"/>
      <point x="4" y="583" type="curve"/>
      <point x="102" y="583" type="line"/>
      <point x="102" y="0" type="line"/>
      <point x="226" y="-16" type="line"/>
      <point x="226" y="583" type="line"/>
      <point x="342" y="583" type="line"/>
      <point x="337" y="615"/>
      <point x="331" y="647"/>
      <point x="325" y="680" type="curve"/>
      <point x="210" y="680" type="line"/>
      <point x="169" y="794"/>
      <point x="77" y="948"/>
      <point x="-60" y="948" type="curve" smooth="yes"/>
      <point x="-152" y="948"/>
      <point x="-217" y="888"/>
      <point x="-217" y="811" type="curve" smooth="yes"/>
      <point x="-217" y="771"/>
      <point x="-206" y="741"/>
      <point x="-190" y="720" type="curve"/>
    </contour>
  </outline>
</glyph>
<glyph name="dv_MatraU" format="1">
  <advance width="0"/>
  <unicode hex="0941"/>
  <outline>
    <contour>
      <point x="-224" y="-230"/>
      <point x="-274" y="-178"/>
      <point x="-344" y="-95" type="curve"/>
      <point x="-418" y="-145" type="line"/>
      <point x="-347" y="-258"/>
      <point x="-255" y="-327"/>
      <point x="-160" y="-327" type="curve"/>
      <point x="-67" y="-327"/>
      <point x="9" y="-269"/>
      <point x="9" y="-173" type="curve"/>
      <point x="9" y="-75"/>
      <point x="-70" y="-18"/>
      <point x="-149" y="-18" type="curve"/>
      <point x="-227" y="-18" type="line"/>
      <point x="-227" y="-115" type="line"/>
      <point x="-158" y="-115" type="line" smooth="yes"/>
      <point x="-119" y="-115"/>
      <point x="-94" y="-140"/>
      <point x="-94" y="-173" type="curve"/>
      <point x="-94" y="-207"/>
      <point x="-116" y="-230"/>
      <point x="-158" y="-230" type="curve"/>
    </contour>
  </outline>
</glyph>
<glyph name="dv_MatraUu" format="1">
  <advance width="0"/>
  <unicode hex="0942"/>
  <outline>
    <contour>
      <point x="-103" y="-115"/>
      <point x="-54" y="-167"/>
      <point x="17" y="-251" type="curve"/>
      <point x="91" y="-200" type="line"/>
      <point x="21" y="-87"/>
      <point x="-72" y="-18"/>
      <point x="-167" y="-18" type="curve"/>
      <point x="-260" y="-18"/>
      <point x="-336" y="-76"/>
      <point x="-336" y="-172" type="curve"/>
      <point x="-336" y="-269"/>
      <point x="-257" y="-327"/>
      <point x="-178" y="-327" type="curve"/>
      <point x="-100" y="-327" type="line"/>
      <point x="-100" y="-230" type="line"/>
      <point x="-169" y="-230" type="line" smooth="yes"/>
      <point x="-208" y="-230"/>
      <point x="-232" y="-206"/>
      <point x="-232" y="-172" type="curve"/>
      <point x="-232" y="-139"/>
      <point x="-211" y="-115"/>
      <point x="-169" y="-115" type="curve"/>
    </contour>
  </outline>
</glyph>
<glyph name="dv_MatraCandraE" format="1">
  <advance width="0"/>
  <unicode hex="0945"/>
  <outline>
    <contour>
      <point x="397" y="952" type="line"/>
      <point x="358" y="880"/>
      <point x="301" y="854"/>
      <point x="249" y="854" type="curve"/>
      <point x="198" y="854"/>
      <point x="134" y="883"/>
      <point x="102" y="952" type="curve"/>
      <point x="17" y="900" type="line"/>
      <point x="70" y="794"/>
      <point x="157" y="760"/>
      <point x="249" y="760" type="curve"/>
      <point x="341" y="760"/>
      <point x="428" y="793"/>
      <point x="482" y="900" type="curve"/>
    </contour>
  </outline>
</glyph>
<glyph name="dv_MatraShortE" format="1">
  <advance width="0"/>
  <unicode hex="0946"/>
  <outline>
    <contour>
      <point x="-348" y="855"/>
      <point x="-397" y="860"/>
      <point x="-397" y="915" type="curve"/>
      <point x="-507" y="932" type="line"/>
      <point x="-507" y="911" type="line" smooth="yes"/>
      <point x="-507" y="821"/>
      <point x="-447" y="756"/>
      <point x="-321" y="756" type="curve" smooth="yes"/>
      <point x="-254" y="756"/>
      <point x="-217" y="745"/>
      <point x="-217" y="685" type="curve" smooth="yes"/>
      <point x="-217" y="627" type="line"/>
      <point x="-102" y="627" type="line"/>
      <point x="-103" y="727" type="line" smooth="yes"/>
      <point x="-104" y="800"/>
      <point x="-193" y="854"/>
      <point x="-287" y="855" type="curve" smooth="yes"/>
    </contour>
  </outline>
</glyph>
<glyph name="dv_MatraE" format="1">
  <advance width="0"/>
  <unicode hex="0947"/>
  <outline>
    <contour>
      <point x="-52" y="620" type="line"/>
      <point x="-394" y="959" type="line"/>
      <point x="-484" y="889" type="line"/>
      <point x="-193" y="620" type="line"/>
    </contour>
  </outline>
</glyph>
<glyph name="dv_MatraShortO" format="1">
  <advance width="332"/>
  <unicode hex="094A"/>
  <outline>
    <contour>
      <point x="-52" y="855"/>
      <point x="-82" y="872"/>
      <point x="-82" y="915" type="curve"/>
      <point x="-191" y="932" type="line"/>
      <point x="-191" y="896" type="line" smooth="yes"/>
      <point x="-191" y="814"/>
      <point x="-117" y="756"/>
      <point x="-5" y="756" type="curve" smooth="yes"/>
      <point x="68" y="756"/>
      <point x="108" y="746"/>
      <point x="108" y="685" type="curve" smooth="yes"/>
      <point x="108" y="680" type="line"/>
      <point x="-11" y="680" type="line"/>
      <point x="-5" y="647"/>
      <point x="0" y="615"/>
      <point x="5" y="583" type="curve"/>
      <point x="103" y="583" type="line"/>
      <point x="103" y="0" type="line"/>
      <point x="227" y="-16" type="line"/>
      <point x="227" y="583" type="line"/>
      <point x="343" y="583" type="line"/>
      <point x="338" y="615"/>
      <point x="332" y="647"/>
      <point x="326" y="680" type="curve"/>
      <point x="223" y="680" type="line"/>
      <point x="223" y="713" type="line" smooth="yes"/>
      <point x="223" y="789"/>
      <point x="146" y="848"/>
      <point x="52" y="853" type="curve" smooth="yes"/>
      <point x="32" y="854"/>
      <point x="13" y="855"/>
      <point x="-7" y="855" type="curve" smooth="yes"/>
    </contour>
  </outline>
</glyph>
<glyph name="dv_MatraO" format="1">
  <advance width="332"/>
  <unicode hex="094B"/>
  <outline>
    <contour>
      <point x="-11" y="680" type="line"/>
      <point x="-5" y="647"/>
      <point x="0" y="615"/>
      <point x="5" y="583" type="curve"/>
      <point x="103" y="583" type="line"/>
      <point x="103" y="0" type="line"/>
      <point x="227" y="-16" type="line"/>
      <point x="227" y="583" type="line"/>
      <point x="343" y="583" type="line"/>
      <point x="338" y="615"/>
      <point x="332" y="647"/>
      <point x="326" y="680" type="curve"/>
      <point x="215" y="680" type="line"/>
      <point x="-66" y="959" type="line"/>
      <point x="-96" y="935"/>
      <point x="-126" y="912"/>
      <point x="-157" y="889" type="curve"/>
      <point x="69" y="680" type="line"/>
    </contour>
  </outline>
</glyph>
<glyph name="dv_Halant" format="1">
  <advance width="0"/>
  <unicode hex="094D"/>
  <outline>
    <contour>
      <point x="-76" y="-348" type="line"/>
      <point x="-3" y="-284" type="line"/>
      <point x="-217" y="-67" type="line"/>
      <point x="-303" y="-145" type="line"/>
    </contour>
  </outline>
</glyph>
<glyph name="dv_PrishtaMatraE" format="1">
  <advance width="330"/>
  <unicode hex="094E"/>
  <outline>
    <contour>
      <point x="103" y="0" type="line"/>
      <point x="225" y="-16" type="line"/>
      <point x="225" y="583" type="line"/>
      <point x="342" y="583" type="line"/>
      <point x="325" y="680" type="line"/>
      <point x="103" y="680" type="line"/>
    </contour>
  </outline>
</glyph>
<glyph name="dv_MatraAw" format="1">
  <advance width="332"/>
  <unicode hex="094F"/>
  <outline>
    <contour>
      <point x="-34" y="803" type="line" smooth="yes"/>
      <point x="-83" y="803"/>
      <point x="-113" y="830"/>
      <point x="-113" y="876" type="curve"/>
      <point x="-210" y="894" type="line"/>
      <point x="-210" y="864" type="line" smooth="yes"/>
      <point x="-210" y="776"/>
      <point x="-138" y="715"/>
      <point x="-29" y="715" type="curve" smooth="yes"/>
      <point x="69" y="715" type="line" smooth="yes"/>
      <point x="98" y="715"/>
      <point x="109" y="705"/>
      <point x="114" y="680" type="curve"/>
      <point x="-11" y="680" type="line"/>
      <point x="5" y="583" type="line"/>
      <point x="103" y="583" type="line"/>
      <point x="103" y="0" type="line"/>
      <point x="227" y="-16" type="line"/>
      <point x="227" y="583" type="line"/>
      <point x="344" y="583" type="line"/>
      <point x="326" y="680" type="line"/>
      <point x="221" y="680" type="line"/>
      <point x="221" y="723" type="line" smooth="yes"/>
      <point x="221" y="800"/>
      <point x="189" y="854"/>
      <point x="114" y="874" type="curve" smooth="yes"/>
      <point x="77" y="883"/>
      <point x="53" y="919"/>
      <point x="53" y="965" type="curve"/>
      <point x="-45" y="983" type="line"/>
      <point x="-45" y="952" type="line" smooth="yes"/>
      <point x="-45" y="895"/>
      <point x="-23" y="853"/>
      <point x="27" y="834" type="curve"/>
      <point x="48" y="824"/>
      <point x="66" y="813"/>
      <point x="84" y="802" type="curve"/>
      <point x="66" y="803"/>
      <point x="48" y="803"/>
      <point x="28" y="803" type="curve" smooth="yes"/>
    </contour>
  </outline>
</glyph>
<glyph name="dv_Anudatta" format="1">
  <advance width="0"/>
  <unicode hex="0952"/>
  <outline>
    <contour>
      <point x="567" y="-171" type="line"/>
      <point x="552" y="-75" type="line"/>
      <point x="17" y="-75" type="line"/>
      <point x="33" y="-171" type="line"/>
    </contour>
  </outline>
</glyph>
<glyph name="dv_Graveaccent" format="1">
  <advance width="0"/>
  <unicode hex="0953"/>
  <outline>
    <contour>
      <point x="218" y="748" type="line"/>
      <point x="134" y="949" type="line"/>
      <point x="17" y="949" type="line"/>
      <point x="141" y="748" type="line"/>
    </contour>
  </outline>
</glyph>
